G04 #@! TF.GenerationSoftware,KiCad,Pcbnew,(5.1.9)-1*
G04 #@! TF.CreationDate,2026-03-03T22:45:46+09:00*
G04 #@! TF.ProjectId,MZ-2000_SD+NRF,4d5a2d32-3030-4305-9f53-442b4e52462e,rev?*
G04 #@! TF.SameCoordinates,PX20a6660PYbcc1c70*
G04 #@! TF.FileFunction,Copper,L1,Top*
G04 #@! TF.FilePolarity,Positive*
%FSLAX46Y46*%
G04 Gerber Fmt 4.6, Leading zero omitted, Abs format (unit mm)*
G04 Created by KiCad (PCBNEW (5.1.9)-1) date 2026-03-03 22:45:46*
%MOMM*%
%LPD*%
G01*
G04 APERTURE LIST*
G04 #@! TA.AperFunction,ConnectorPad*
%ADD10R,1.780000X10.000000*%
G04 #@! TD*
G04 #@! TA.AperFunction,ComponentPad*
%ADD11C,1.600000*%
G04 #@! TD*
G04 #@! TA.AperFunction,ComponentPad*
%ADD12R,1.700000X1.700000*%
G04 #@! TD*
G04 #@! TA.AperFunction,ComponentPad*
%ADD13O,1.700000X1.700000*%
G04 #@! TD*
G04 #@! TA.AperFunction,ComponentPad*
%ADD14R,1.600000X2.400000*%
G04 #@! TD*
G04 #@! TA.AperFunction,ComponentPad*
%ADD15O,1.600000X2.400000*%
G04 #@! TD*
G04 #@! TA.AperFunction,ComponentPad*
%ADD16R,1.600000X1.600000*%
G04 #@! TD*
G04 #@! TA.AperFunction,ComponentPad*
%ADD17O,1.600000X1.600000*%
G04 #@! TD*
G04 #@! TA.AperFunction,ComponentPad*
%ADD18C,4.000000*%
G04 #@! TD*
G04 #@! TA.AperFunction,ViaPad*
%ADD19C,0.500000*%
G04 #@! TD*
G04 #@! TA.AperFunction,Conductor*
%ADD20C,0.200000*%
G04 #@! TD*
G04 #@! TA.AperFunction,Conductor*
%ADD21C,0.400000*%
G04 #@! TD*
G04 #@! TA.AperFunction,Conductor*
%ADD22C,0.254000*%
G04 #@! TD*
G04 #@! TA.AperFunction,Conductor*
%ADD23C,0.100000*%
G04 #@! TD*
G04 APERTURE END LIST*
D10*
X26940000Y137196000D03*
X29480000Y137196000D03*
X32020000Y137196000D03*
X34560000Y137196000D03*
X37100000Y137196000D03*
X39640000Y137196000D03*
X42180000Y137196000D03*
X44720000Y137196000D03*
X47260000Y137196000D03*
X49800000Y137196000D03*
X52340000Y137196000D03*
X54880000Y137196000D03*
X57420000Y137196000D03*
X59960000Y137196000D03*
X62500000Y137196000D03*
X65040000Y137196000D03*
X67580000Y137196000D03*
X70120000Y137196000D03*
X72660000Y137196000D03*
X75200000Y137196000D03*
X77740000Y137196000D03*
X80280000Y137196000D03*
D11*
X59960000Y62778000D03*
X59960000Y65278000D03*
X36830000Y94234000D03*
X36830000Y91734000D03*
X7825000Y91969000D03*
X7825000Y94469000D03*
D12*
X57674000Y38481000D03*
D13*
X55134000Y38481000D03*
X52594000Y38481000D03*
X50054000Y38481000D03*
X47514000Y38481000D03*
X44974000Y38481000D03*
D14*
X11381000Y89389000D03*
D15*
X26621000Y97009000D03*
X13921000Y89389000D03*
X24081000Y97009000D03*
X16461000Y89389000D03*
X21541000Y97009000D03*
X19001000Y89389000D03*
X19001000Y97009000D03*
X21541000Y89389000D03*
X16461000Y97009000D03*
X24081000Y89389000D03*
X13921000Y97009000D03*
X26621000Y89389000D03*
X11381000Y97009000D03*
D14*
X8525000Y56388000D03*
D15*
X56785000Y71628000D03*
X11065000Y56388000D03*
X54245000Y71628000D03*
X13605000Y56388000D03*
X51705000Y71628000D03*
X16145000Y56388000D03*
X49165000Y71628000D03*
X18685000Y56388000D03*
X46625000Y71628000D03*
X21225000Y56388000D03*
X44085000Y71628000D03*
X23765000Y56388000D03*
X41545000Y71628000D03*
X26305000Y56388000D03*
X39005000Y71628000D03*
X28845000Y56388000D03*
X36465000Y71628000D03*
X31385000Y56388000D03*
X33925000Y71628000D03*
X33925000Y56388000D03*
X31385000Y71628000D03*
X36465000Y56388000D03*
X28845000Y71628000D03*
X39005000Y56388000D03*
X26305000Y71628000D03*
X41545000Y56388000D03*
X23765000Y71628000D03*
X44085000Y56388000D03*
X21225000Y71628000D03*
X46625000Y56388000D03*
X18685000Y71628000D03*
X49165000Y56388000D03*
X16145000Y71628000D03*
X51705000Y56388000D03*
X13605000Y71628000D03*
X54245000Y56388000D03*
X11065000Y71628000D03*
X56785000Y56388000D03*
X8525000Y71628000D03*
D12*
X61484000Y30226000D03*
D13*
X58944000Y30226000D03*
X56404000Y30226000D03*
X53864000Y30226000D03*
X51324000Y30226000D03*
X48784000Y30226000D03*
X46244000Y30226000D03*
X43704000Y30226000D03*
X41164000Y30226000D03*
X41164000Y2286000D03*
X41164000Y4826000D03*
X61484000Y2286000D03*
X61484000Y4826000D03*
D16*
X28972000Y12192000D03*
D17*
X28972000Y14732000D03*
X28972000Y17272000D03*
X13732000Y40132000D03*
X28972000Y19812000D03*
X13732000Y37592000D03*
X28972000Y22352000D03*
X13732000Y35052000D03*
X28972000Y24892000D03*
X13732000Y32512000D03*
X28972000Y27432000D03*
X13732000Y29972000D03*
X28972000Y29972000D03*
X13732000Y27432000D03*
X28972000Y32512000D03*
X13732000Y24892000D03*
X28972000Y35052000D03*
X13732000Y22352000D03*
X28972000Y37592000D03*
X13732000Y19812000D03*
X28972000Y40132000D03*
X13732000Y17272000D03*
X13732000Y14732000D03*
X13732000Y12192000D03*
X16272000Y21082000D03*
X16272000Y23622000D03*
X16272000Y31242000D03*
X16272000Y33782000D03*
D16*
X26940000Y123825000D03*
D11*
X26940000Y121325000D03*
D16*
X89916000Y7000000D03*
D11*
X87626000Y7000000D03*
X85336000Y7000000D03*
X83046000Y7000000D03*
X80756000Y7000000D03*
X91061000Y5020000D03*
X88771000Y5020000D03*
X86481000Y5020000D03*
X84191000Y5020000D03*
X81901000Y5020000D03*
X89916000Y3040000D03*
X87626000Y3040000D03*
X85336000Y3040000D03*
X83046000Y3040000D03*
X80756000Y3040000D03*
D18*
X73101000Y4950000D03*
X98101000Y4950000D03*
D11*
X89916000Y14859000D03*
D17*
X97536000Y14859000D03*
X92964000Y26670000D03*
D11*
X85344000Y26670000D03*
X87630000Y20828000D03*
D17*
X95250000Y20828000D03*
D14*
X40132000Y89408000D03*
D15*
X55372000Y97028000D03*
X42672000Y89408000D03*
X52832000Y97028000D03*
X45212000Y89408000D03*
X50292000Y97028000D03*
X47752000Y89408000D03*
X47752000Y97028000D03*
X50292000Y89408000D03*
X45212000Y97028000D03*
X52832000Y89408000D03*
X42672000Y97028000D03*
X55372000Y89408000D03*
X40132000Y97028000D03*
D13*
X105410000Y88900000D03*
X107950000Y88900000D03*
X105410000Y86360000D03*
X107950000Y86360000D03*
X105410000Y83820000D03*
X107950000Y83820000D03*
X105410000Y81280000D03*
X107950000Y81280000D03*
X105410000Y78740000D03*
X107950000Y78740000D03*
X105410000Y76200000D03*
X107950000Y76200000D03*
X105410000Y73660000D03*
X107950000Y73660000D03*
X105410000Y71120000D03*
X107950000Y71120000D03*
X105410000Y68580000D03*
X107950000Y68580000D03*
X105410000Y66040000D03*
X107950000Y66040000D03*
X105410000Y63500000D03*
X107950000Y63500000D03*
X105410000Y60960000D03*
X107950000Y60960000D03*
X105410000Y58420000D03*
X107950000Y58420000D03*
X105410000Y55880000D03*
X107950000Y55880000D03*
X105410000Y53340000D03*
D12*
X107950000Y53340000D03*
X72390000Y53340000D03*
D13*
X69850000Y53340000D03*
X72390000Y55880000D03*
X69850000Y55880000D03*
X72390000Y58420000D03*
X69850000Y58420000D03*
X72390000Y60960000D03*
X69850000Y60960000D03*
X72390000Y63500000D03*
X69850000Y63500000D03*
X72390000Y66040000D03*
X69850000Y66040000D03*
X72390000Y68580000D03*
X69850000Y68580000D03*
X72390000Y71120000D03*
X69850000Y71120000D03*
X72390000Y73660000D03*
X69850000Y73660000D03*
X72390000Y76200000D03*
X69850000Y76200000D03*
X72390000Y78740000D03*
X69850000Y78740000D03*
X72390000Y81280000D03*
X69850000Y81280000D03*
X72390000Y83820000D03*
X69850000Y83820000D03*
X72390000Y86360000D03*
X69850000Y86360000D03*
X72390000Y88900000D03*
X69850000Y88900000D03*
D19*
X38144700Y129757900D03*
X81626000Y132698500D03*
X77623100Y75623000D03*
X33640800Y79906100D03*
X62053200Y118380800D03*
X62891400Y92868900D03*
X27451700Y102209900D03*
X65396300Y119242200D03*
X67512500Y92037400D03*
X71223000Y91491600D03*
X82737800Y93185700D03*
X72660000Y98951200D03*
X61379200Y66804900D03*
X31037700Y130951100D03*
X31948100Y131162400D03*
X34456500Y130959900D03*
X35042100Y129844200D03*
X39064200Y131544200D03*
X46183300Y130821300D03*
X43079500Y83820000D03*
X47176700Y130309000D03*
X48903100Y80891500D03*
X52496000Y130934400D03*
X35853400Y82963500D03*
X66966200Y131373100D03*
X63521900Y94791000D03*
X22055900Y33064300D03*
X54424500Y65930100D03*
X53724100Y65932000D03*
X51705000Y65966800D03*
X48014300Y65930200D03*
X44696300Y128715100D03*
X45434700Y126058200D03*
X48604200Y128660900D03*
X52055700Y121669600D03*
X50393900Y126035100D03*
X55012200Y121120600D03*
X59604700Y121120600D03*
X60229200Y118818700D03*
X55941500Y131236200D03*
X74511000Y131362600D03*
X68822800Y51865900D03*
D20*
X40132000Y97028000D02*
X40132000Y95527700D01*
X46332500Y65278000D02*
X46332500Y67861500D01*
X46332500Y67861500D02*
X47764700Y69293700D01*
X47764700Y69293700D02*
X47764700Y73659100D01*
X47764700Y73659100D02*
X41260400Y80163400D01*
X41260400Y80163400D02*
X41260400Y94399300D01*
X41260400Y94399300D02*
X40132000Y95527700D01*
D21*
X46332500Y65278000D02*
X45797900Y65278000D01*
X45797900Y65278000D02*
X44085000Y66991000D01*
X44085000Y66991000D02*
X44085000Y71628000D01*
X55515000Y65278000D02*
X46332500Y65278000D01*
X36830000Y94234000D02*
X39624000Y97028000D01*
X39624000Y97028000D02*
X40132000Y97028000D01*
D20*
X26940000Y123825000D02*
X26940000Y122724700D01*
X16461000Y97009000D02*
X16461000Y112520800D01*
X16461000Y112520800D02*
X26664900Y122724700D01*
X26664900Y122724700D02*
X26940000Y122724700D01*
X55134000Y38481000D02*
X55134000Y39631300D01*
X55515000Y65278000D02*
X55515000Y40012300D01*
X55515000Y40012300D02*
X55134000Y39631300D01*
D21*
X59960000Y65278000D02*
X55515000Y65278000D01*
X26940000Y137196000D02*
X26940000Y123825000D01*
X7825000Y94469000D02*
X10365000Y97009000D01*
X10365000Y97009000D02*
X11381000Y97009000D01*
D20*
X59960000Y62778000D02*
X61481700Y64299700D01*
X61481700Y64299700D02*
X61481700Y65893400D01*
X61481700Y65893400D02*
X60241600Y67133500D01*
X60241600Y67133500D02*
X60241600Y83038100D01*
X60241600Y83038100D02*
X55372000Y87907700D01*
X26621000Y90889300D02*
X28002000Y92270300D01*
X28002000Y92270300D02*
X28002000Y120263000D01*
X28002000Y120263000D02*
X26940000Y121325000D01*
X55372000Y89408000D02*
X55372000Y87907700D01*
X57674000Y39631300D02*
X69850000Y51807300D01*
X69850000Y51807300D02*
X69850000Y52189700D01*
X53864000Y30801200D02*
X53864000Y30226000D01*
X53864000Y30801200D02*
X53864000Y31376300D01*
X23765000Y56388000D02*
X23765000Y57888300D01*
X23765000Y57888300D02*
X24893400Y59016700D01*
X24893400Y59016700D02*
X24893400Y79388700D01*
X24893400Y79388700D02*
X26621000Y81116300D01*
X26621000Y81116300D02*
X26621000Y89389000D01*
X37100000Y131895700D02*
X38144700Y130851000D01*
X38144700Y130851000D02*
X38144700Y129757900D01*
X37100000Y137196000D02*
X37100000Y131895700D01*
X57674000Y38481000D02*
X57674000Y39631300D01*
X80280000Y131895700D02*
X81321500Y131895700D01*
X81321500Y131895700D02*
X81626000Y132200200D01*
X81626000Y132200200D02*
X81626000Y132698500D01*
X80280000Y137196000D02*
X80280000Y131895700D01*
X69850000Y53340000D02*
X69850000Y52189700D01*
X26621000Y89389000D02*
X26621000Y90889300D01*
X53864000Y31376300D02*
X57674000Y35186300D01*
X57674000Y35186300D02*
X57674000Y38481000D01*
X29480000Y137196000D02*
X29480000Y131895700D01*
X28845000Y71628000D02*
X28845000Y131260700D01*
X28845000Y131260700D02*
X29480000Y131895700D01*
X32020000Y137196000D02*
X32020000Y131895700D01*
X26305000Y71628000D02*
X26305000Y70127700D01*
X26305000Y70127700D02*
X29319600Y70127700D01*
X29319600Y70127700D02*
X30066100Y70874200D01*
X30066100Y70874200D02*
X30066100Y130780700D01*
X30066100Y130780700D02*
X31181100Y131895700D01*
X31181100Y131895700D02*
X32020000Y131895700D01*
X105410000Y58420000D02*
X104259700Y58420000D01*
X104259700Y58420000D02*
X87056700Y75623000D01*
X87056700Y75623000D02*
X77623100Y75623000D01*
X34560000Y131895700D02*
X33640800Y130976500D01*
X33640800Y130976500D02*
X33640800Y79906100D01*
X34560000Y137196000D02*
X34560000Y131895700D01*
X62053200Y118380800D02*
X62053200Y127828800D01*
X62053200Y127828800D02*
X59960000Y129922000D01*
X59960000Y129922000D02*
X59960000Y137196000D01*
X62891400Y92868900D02*
X62891400Y131504300D01*
X62891400Y131504300D02*
X62500000Y131895700D01*
X62500000Y137196000D02*
X62500000Y131895700D01*
X16461000Y89389000D02*
X16461000Y90889300D01*
X27451700Y102209900D02*
X27318300Y102209900D01*
X27318300Y102209900D02*
X22811000Y97702600D01*
X22811000Y97702600D02*
X22811000Y96261200D01*
X22811000Y96261200D02*
X17439100Y90889300D01*
X17439100Y90889300D02*
X16461000Y90889300D01*
X65396300Y119242200D02*
X65040000Y119598500D01*
X65040000Y119598500D02*
X65040000Y137196000D01*
X67512500Y92037400D02*
X67580000Y92104900D01*
X67580000Y92104900D02*
X67580000Y131895700D01*
X67580000Y137196000D02*
X67580000Y131895700D01*
X70120000Y131895700D02*
X71223000Y130792700D01*
X71223000Y130792700D02*
X71223000Y91491600D01*
X70120000Y137196000D02*
X70120000Y131895700D01*
X105410000Y71120000D02*
X104803500Y71120000D01*
X104803500Y71120000D02*
X82737800Y93185700D01*
X72660000Y137196000D02*
X72660000Y98951200D01*
X75200000Y82421400D02*
X72730100Y79951500D01*
X72730100Y79951500D02*
X69367500Y79951500D01*
X69367500Y79951500D02*
X61379200Y71963200D01*
X61379200Y71963200D02*
X61379200Y66804900D01*
X75200000Y82421400D02*
X89921800Y82421400D01*
X89921800Y82421400D02*
X104941700Y67401500D01*
X104941700Y67401500D02*
X105920000Y67401500D01*
X105920000Y67401500D02*
X106799700Y68281200D01*
X106799700Y68281200D02*
X106799700Y69107100D01*
X106799700Y69107100D02*
X107662300Y69969700D01*
X107662300Y69969700D02*
X107950000Y69969700D01*
X75200000Y131895700D02*
X75200000Y82421400D01*
X107950000Y71120000D02*
X107950000Y69969700D01*
X75200000Y137196000D02*
X75200000Y131895700D01*
X105410000Y68580000D02*
X105410000Y69730300D01*
X105410000Y69730300D02*
X105122400Y69730300D01*
X105122400Y69730300D02*
X77740000Y97112700D01*
X77740000Y97112700D02*
X77740000Y137196000D01*
X31037700Y130951100D02*
X31037700Y73475600D01*
X31037700Y73475600D02*
X31385000Y73128300D01*
X31385000Y71628000D02*
X31385000Y73128300D01*
X33925000Y71628000D02*
X33925000Y73128300D01*
X33925000Y73128300D02*
X31948100Y75105200D01*
X31948100Y75105200D02*
X31948100Y131162400D01*
X36465000Y73128300D02*
X34456500Y75136800D01*
X34456500Y75136800D02*
X34456500Y130959900D01*
X36465000Y71628000D02*
X36465000Y73128300D01*
X39005000Y73128300D02*
X34887400Y77245900D01*
X34887400Y77245900D02*
X34887400Y129689500D01*
X34887400Y129689500D02*
X35042100Y129844200D01*
X39005000Y71628000D02*
X39005000Y73128300D01*
X39064200Y131544200D02*
X39064200Y99570100D01*
X39064200Y99570100D02*
X35287700Y95793600D01*
X35287700Y95793600D02*
X35287700Y79385600D01*
X35287700Y79385600D02*
X41545000Y73128300D01*
X41545000Y71628000D02*
X41545000Y73128300D01*
X46183300Y130821300D02*
X46183300Y125919500D01*
X46183300Y125919500D02*
X43942000Y123678200D01*
X43942000Y123678200D02*
X43942000Y84682500D01*
X43942000Y84682500D02*
X43079500Y83820000D01*
X47176700Y130309000D02*
X46600100Y129732400D01*
X46600100Y129732400D02*
X46600100Y94448900D01*
X46600100Y94448900D02*
X48903100Y92145900D01*
X48903100Y92145900D02*
X48903100Y80891500D01*
X51754800Y102531100D02*
X52606000Y103382300D01*
X52606000Y103382300D02*
X52606000Y130824400D01*
X52606000Y130824400D02*
X52496000Y130934400D01*
X47752000Y98528300D02*
X51754800Y102531100D01*
X71239700Y83820000D02*
X71239700Y84107700D01*
X71239700Y84107700D02*
X70377100Y84970300D01*
X70377100Y84970300D02*
X69445400Y84970300D01*
X69445400Y84970300D02*
X55824100Y98591600D01*
X55824100Y98591600D02*
X55694200Y98591600D01*
X55694200Y98591600D02*
X51754800Y102531100D01*
X72390000Y83820000D02*
X71239700Y83820000D01*
X47752000Y97028000D02*
X47752000Y98528300D01*
X42672000Y98528300D02*
X39554500Y98528300D01*
X39554500Y98528300D02*
X35688000Y94661800D01*
X35688000Y94661800D02*
X35688000Y83128900D01*
X35688000Y83128900D02*
X35853400Y82963500D01*
X42672000Y97028000D02*
X42672000Y98528300D01*
X63521900Y94791000D02*
X66966200Y98235300D01*
X66966200Y98235300D02*
X66966200Y131373100D01*
X72390000Y88900000D02*
X71239700Y88900000D01*
X71239700Y88900000D02*
X71239700Y89187700D01*
X71239700Y89187700D02*
X70377100Y90050300D01*
X70377100Y90050300D02*
X68262600Y90050300D01*
X68262600Y90050300D02*
X63521900Y94791000D01*
X48784000Y30226000D02*
X48784000Y31376300D01*
X48784000Y31376300D02*
X52594000Y35186300D01*
X52594000Y35186300D02*
X52594000Y38481000D01*
X50054000Y38481000D02*
X50054000Y37330700D01*
X46244000Y30226000D02*
X46244000Y33520700D01*
X46244000Y33520700D02*
X50054000Y37330700D01*
X43704000Y30226000D02*
X42553700Y30226000D01*
X22055900Y33064300D02*
X22055900Y27680100D01*
X22055900Y27680100D02*
X28484900Y21251100D01*
X28484900Y21251100D02*
X33817100Y21251100D01*
X33817100Y21251100D02*
X42553700Y29987700D01*
X42553700Y29987700D02*
X42553700Y30226000D01*
X44974000Y38481000D02*
X44974000Y37330700D01*
X43704000Y30226000D02*
X43704000Y36060700D01*
X43704000Y36060700D02*
X44974000Y37330700D01*
X45212000Y97028000D02*
X45212000Y91896100D01*
X45212000Y91896100D02*
X46600300Y90507800D01*
X46600300Y90507800D02*
X46600300Y82349200D01*
X46600300Y82349200D02*
X55456100Y73493400D01*
X55456100Y73493400D02*
X56901000Y73493400D01*
X56901000Y73493400D02*
X58780400Y71614000D01*
X58780400Y71614000D02*
X58780400Y68028400D01*
X58780400Y68028400D02*
X61081300Y65727500D01*
X61081300Y65727500D02*
X61081300Y64829000D01*
X61081300Y64829000D02*
X60280300Y64028000D01*
X60280300Y64028000D02*
X59589300Y64028000D01*
X59589300Y64028000D02*
X58835000Y63273700D01*
X58835000Y63273700D02*
X58835000Y43849800D01*
X58835000Y43849800D02*
X56523600Y41538400D01*
X56523600Y41538400D02*
X56523600Y37325800D01*
X56523600Y37325800D02*
X50054000Y30856200D01*
X50054000Y30856200D02*
X50054000Y29854600D01*
X50054000Y29854600D02*
X37471400Y17272000D01*
X37471400Y17272000D02*
X28972000Y17272000D01*
X21225000Y57888300D02*
X22420100Y59083400D01*
X22420100Y59083400D02*
X22420100Y82791800D01*
X22420100Y82791800D02*
X25209400Y85581100D01*
X25209400Y85581100D02*
X25209400Y94097100D01*
X25209400Y94097100D02*
X26621000Y95508700D01*
X26621000Y97009000D02*
X26621000Y95508700D01*
X21225000Y56388000D02*
X21225000Y57888300D01*
X56785000Y70127700D02*
X54424500Y67767200D01*
X54424500Y67767200D02*
X54424500Y65930100D01*
X56785000Y71628000D02*
X56785000Y70127700D01*
X54245000Y70127700D02*
X53724100Y69606800D01*
X53724100Y69606800D02*
X53724100Y65932000D01*
X54245000Y71628000D02*
X54245000Y70127700D01*
X13605000Y54887700D02*
X12226600Y53509300D01*
X12226600Y53509300D02*
X12226600Y24840400D01*
X12226600Y24840400D02*
X13614700Y23452300D01*
X13614700Y23452300D02*
X13732000Y23452300D01*
X13605000Y56388000D02*
X13605000Y54887700D01*
X13732000Y22352000D02*
X13732000Y23452300D01*
X51705000Y71628000D02*
X51705000Y65966800D01*
X16145000Y56388000D02*
X16145000Y54887700D01*
X13732000Y24892000D02*
X13732000Y25992300D01*
X13732000Y25992300D02*
X13594500Y25992300D01*
X13594500Y25992300D02*
X12627000Y26959800D01*
X12627000Y26959800D02*
X12627000Y51369700D01*
X12627000Y51369700D02*
X16145000Y54887700D01*
X48014300Y65930200D02*
X48014300Y68977000D01*
X48014300Y68977000D02*
X49165000Y70127700D01*
X49165000Y71628000D02*
X49165000Y70127700D01*
X46625000Y71628000D02*
X46625000Y73128300D01*
X28972000Y40132000D02*
X28972000Y41232300D01*
X28972000Y41232300D02*
X42728600Y54988900D01*
X42728600Y54988900D02*
X42728600Y72256200D01*
X42728600Y72256200D02*
X43600700Y73128300D01*
X43600700Y73128300D02*
X46625000Y73128300D01*
X13732000Y29972000D02*
X13732000Y31072300D01*
X13732000Y31072300D02*
X14514700Y31072300D01*
X14514700Y31072300D02*
X15954400Y32512000D01*
X15954400Y32512000D02*
X16559900Y32512000D01*
X16559900Y32512000D02*
X31385000Y47337100D01*
X31385000Y47337100D02*
X31385000Y56388000D01*
X46625000Y56388000D02*
X46625000Y54887700D01*
X13732000Y27432000D02*
X15457100Y27432000D01*
X15457100Y27432000D02*
X26887100Y38862000D01*
X26887100Y38862000D02*
X30599300Y38862000D01*
X30599300Y38862000D02*
X46625000Y54887700D01*
X28972000Y22352000D02*
X28972000Y23452300D01*
X28972000Y23452300D02*
X28834500Y23452300D01*
X28834500Y23452300D02*
X27868800Y24418000D01*
X27868800Y24418000D02*
X27868800Y27919200D01*
X27868800Y27919200D02*
X28651600Y28702000D01*
X28651600Y28702000D02*
X29273300Y28702000D01*
X29273300Y28702000D02*
X51705000Y51133700D01*
X51705000Y51133700D02*
X51705000Y56388000D01*
X28972000Y24892000D02*
X28972000Y25992300D01*
X28972000Y25992300D02*
X29109500Y25992300D01*
X29109500Y25992300D02*
X54245000Y51127800D01*
X54245000Y51127800D02*
X54245000Y56388000D01*
X39640000Y137196000D02*
X39640000Y131895700D01*
X44696300Y128715100D02*
X42820600Y128715100D01*
X42820600Y128715100D02*
X39640000Y131895700D01*
X45434700Y126058200D02*
X45434700Y128755000D01*
X45434700Y128755000D02*
X42294000Y131895700D01*
X42294000Y131895700D02*
X42180000Y131895700D01*
X42180000Y137196000D02*
X42180000Y131895700D01*
X44720000Y137196000D02*
X44720000Y131895700D01*
X48604200Y128660900D02*
X48604200Y129770600D01*
X48604200Y129770600D02*
X46479100Y131895700D01*
X46479100Y131895700D02*
X44720000Y131895700D01*
X47260000Y137196000D02*
X47260000Y131895700D01*
X52055700Y121669600D02*
X49399600Y124325700D01*
X49399600Y124325700D02*
X49399600Y129756100D01*
X49399600Y129756100D02*
X47260000Y131895700D01*
X49800000Y137196000D02*
X49800000Y131895700D01*
X49800000Y131895700D02*
X50393900Y131301800D01*
X50393900Y131301800D02*
X50393900Y126035100D01*
X52340000Y137196000D02*
X52340000Y131895700D01*
X55012200Y121120600D02*
X55012200Y129223500D01*
X55012200Y129223500D02*
X52340000Y131895700D01*
X54880000Y137196000D02*
X54880000Y131895700D01*
X59604700Y121120600D02*
X59604700Y128361300D01*
X59604700Y128361300D02*
X56070300Y131895700D01*
X56070300Y131895700D02*
X54880000Y131895700D01*
X57420000Y131895700D02*
X60229100Y129086600D01*
X60229100Y129086600D02*
X60229100Y118818700D01*
X60229100Y118818700D02*
X60229200Y118818700D01*
X57420000Y137196000D02*
X57420000Y131895700D01*
X68699700Y86360000D02*
X68621800Y86360000D01*
X68621800Y86360000D02*
X55941600Y99040200D01*
X55941600Y99040200D02*
X55941500Y99040200D01*
X55941500Y99040200D02*
X55941500Y131236200D01*
X69850000Y86360000D02*
X68699700Y86360000D01*
X74511000Y131362600D02*
X74511000Y84207300D01*
X74511000Y84207300D02*
X72734000Y82430300D01*
X72734000Y82430300D02*
X71862900Y82430300D01*
X71862900Y82430300D02*
X71000300Y81567700D01*
X71000300Y81567700D02*
X71000300Y81280000D01*
X69850000Y81280000D02*
X71000300Y81280000D01*
X83046000Y3040000D02*
X83046000Y5431300D01*
X83046000Y5431300D02*
X84191000Y6576300D01*
X84191000Y6576300D02*
X84191000Y10031200D01*
X84191000Y10031200D02*
X71000300Y23221900D01*
X71000300Y23221900D02*
X71000300Y76727100D01*
X71000300Y76727100D02*
X70137700Y77589700D01*
X70137700Y77589700D02*
X69850000Y77589700D01*
X69850000Y78740000D02*
X69850000Y77589700D01*
X69850000Y76200000D02*
X69850000Y75049700D01*
X69850000Y75049700D02*
X69562400Y75049700D01*
X69562400Y75049700D02*
X68660900Y74148200D01*
X68660900Y74148200D02*
X68660900Y52027800D01*
X68660900Y52027800D02*
X68822800Y51865900D01*
X72390000Y78740000D02*
X72390000Y77589700D01*
X72390000Y77589700D02*
X72630200Y77589700D01*
X72630200Y77589700D02*
X96363300Y53856600D01*
X96363300Y53856600D02*
X96363300Y7892900D01*
X96363300Y7892900D02*
X90379600Y1909200D01*
X90379600Y1909200D02*
X86466800Y1909200D01*
X86466800Y1909200D02*
X85336000Y3040000D01*
X72390000Y76200000D02*
X72390000Y75049700D01*
X72390000Y75049700D02*
X72677600Y75049700D01*
X72677600Y75049700D02*
X92964000Y54763300D01*
X92964000Y54763300D02*
X92964000Y26670000D01*
X95250000Y20828000D02*
X95250000Y21928300D01*
X72390000Y73660000D02*
X72390000Y72509700D01*
X72390000Y72509700D02*
X72677700Y72509700D01*
X72677700Y72509700D02*
X73540300Y71647100D01*
X73540300Y71647100D02*
X73540300Y43638000D01*
X73540300Y43638000D02*
X95250000Y21928300D01*
X89916000Y14859000D02*
X89916000Y7000000D01*
X87630000Y20828000D02*
X87626000Y20824000D01*
X87626000Y20824000D02*
X87626000Y7000000D01*
X85344000Y26670000D02*
X85336000Y26662000D01*
X85336000Y26662000D02*
X85336000Y7000000D01*
D22*
X26105001Y125259625D02*
X26015518Y125250812D01*
X25895820Y125214502D01*
X25785506Y125155537D01*
X25688815Y125076185D01*
X25609463Y124979494D01*
X25550498Y124869180D01*
X25514188Y124749482D01*
X25501928Y124625000D01*
X25501928Y123025000D01*
X25514188Y122900518D01*
X25550498Y122780820D01*
X25596155Y122695402D01*
X15966808Y113066054D01*
X15938763Y113043038D01*
X15846914Y112931120D01*
X15778664Y112803433D01*
X15736635Y112664885D01*
X15722444Y112520800D01*
X15726001Y112484685D01*
X15726000Y98643264D01*
X15659899Y98607932D01*
X15441392Y98428607D01*
X15262068Y98210100D01*
X15191000Y98077142D01*
X15119932Y98210101D01*
X14940607Y98428608D01*
X14722100Y98607932D01*
X14472807Y98741182D01*
X14202308Y98823236D01*
X13921000Y98850943D01*
X13639691Y98823236D01*
X13369192Y98741182D01*
X13119899Y98607932D01*
X12901392Y98428607D01*
X12722068Y98210100D01*
X12651000Y98077142D01*
X12579932Y98210101D01*
X12400607Y98428608D01*
X12182100Y98607932D01*
X11932807Y98741182D01*
X11662308Y98823236D01*
X11381000Y98850943D01*
X11099691Y98823236D01*
X10829192Y98741182D01*
X10579899Y98607932D01*
X10361392Y98428607D01*
X10182068Y98210100D01*
X10048818Y97960807D01*
X9985817Y97753119D01*
X9898854Y97706636D01*
X9771709Y97602291D01*
X9745559Y97570427D01*
X8060418Y95885285D01*
X7966335Y95904000D01*
X7683665Y95904000D01*
X7406426Y95848853D01*
X7145273Y95740680D01*
X6910241Y95583637D01*
X6710363Y95383759D01*
X6553320Y95148727D01*
X6445147Y94887574D01*
X6390000Y94610335D01*
X6390000Y94327665D01*
X6445147Y94050426D01*
X6553320Y93789273D01*
X6710363Y93554241D01*
X6910241Y93354363D01*
X7110869Y93220308D01*
X7083486Y93205671D01*
X7011903Y92961702D01*
X7825000Y92148605D01*
X8638097Y92961702D01*
X8566514Y93205671D01*
X8537659Y93219324D01*
X8739759Y93354363D01*
X8939637Y93554241D01*
X9096680Y93789273D01*
X9204853Y94050426D01*
X9260000Y94327665D01*
X9260000Y94610335D01*
X9241285Y94704418D01*
X10255405Y95718538D01*
X10361393Y95589392D01*
X10579900Y95410068D01*
X10829193Y95276818D01*
X11099692Y95194764D01*
X11381000Y95167057D01*
X11662309Y95194764D01*
X11932808Y95276818D01*
X12182101Y95410068D01*
X12400608Y95589392D01*
X12579932Y95807899D01*
X12651000Y95940858D01*
X12722068Y95807899D01*
X12901393Y95589392D01*
X13119900Y95410068D01*
X13369193Y95276818D01*
X13639692Y95194764D01*
X13921000Y95167057D01*
X14202309Y95194764D01*
X14472808Y95276818D01*
X14722101Y95410068D01*
X14940608Y95589392D01*
X15119932Y95807899D01*
X15191000Y95940858D01*
X15262068Y95807899D01*
X15441393Y95589392D01*
X15659900Y95410068D01*
X15909193Y95276818D01*
X16179692Y95194764D01*
X16461000Y95167057D01*
X16742309Y95194764D01*
X17012808Y95276818D01*
X17262101Y95410068D01*
X17480608Y95589392D01*
X17659932Y95807899D01*
X17731000Y95940858D01*
X17802068Y95807899D01*
X17981393Y95589392D01*
X18199900Y95410068D01*
X18449193Y95276818D01*
X18719692Y95194764D01*
X19001000Y95167057D01*
X19282309Y95194764D01*
X19552808Y95276818D01*
X19802101Y95410068D01*
X20020608Y95589392D01*
X20199932Y95807899D01*
X20271000Y95940858D01*
X20342068Y95807899D01*
X20521393Y95589392D01*
X20739900Y95410068D01*
X20857541Y95347188D01*
X17134654Y91624300D01*
X16497105Y91624300D01*
X16461000Y91627856D01*
X16424895Y91624300D01*
X16316915Y91613665D01*
X16178367Y91571637D01*
X16050680Y91503387D01*
X15938762Y91411538D01*
X15846913Y91299620D01*
X15778663Y91171933D01*
X15736635Y91033385D01*
X15736174Y91028702D01*
X15659899Y90987932D01*
X15441392Y90808607D01*
X15262068Y90590100D01*
X15191000Y90457142D01*
X15119932Y90590101D01*
X14940607Y90808608D01*
X14722100Y90987932D01*
X14472807Y91121182D01*
X14202308Y91203236D01*
X13921000Y91230943D01*
X13639691Y91203236D01*
X13369192Y91121182D01*
X13119899Y90987932D01*
X12901392Y90808607D01*
X12808581Y90695517D01*
X12806812Y90713482D01*
X12770502Y90833180D01*
X12711537Y90943494D01*
X12632185Y91040185D01*
X12535494Y91119537D01*
X12425180Y91178502D01*
X12305482Y91214812D01*
X12181000Y91227072D01*
X10581000Y91227072D01*
X10456518Y91214812D01*
X10336820Y91178502D01*
X10226506Y91119537D01*
X10129815Y91040185D01*
X10050463Y90943494D01*
X9991498Y90833180D01*
X9955188Y90713482D01*
X9942928Y90589000D01*
X9942928Y88189000D01*
X9955188Y88064518D01*
X9991498Y87944820D01*
X10050463Y87834506D01*
X10129815Y87737815D01*
X10226506Y87658463D01*
X10336820Y87599498D01*
X10456518Y87563188D01*
X10581000Y87550928D01*
X12181000Y87550928D01*
X12305482Y87563188D01*
X12425180Y87599498D01*
X12535494Y87658463D01*
X12632185Y87737815D01*
X12711537Y87834506D01*
X12770502Y87944820D01*
X12806812Y88064518D01*
X12808581Y88082483D01*
X12901393Y87969392D01*
X13119900Y87790068D01*
X13369193Y87656818D01*
X13639692Y87574764D01*
X13921000Y87547057D01*
X14202309Y87574764D01*
X14472808Y87656818D01*
X14722101Y87790068D01*
X14940608Y87969392D01*
X15119932Y88187899D01*
X15191000Y88320858D01*
X15262068Y88187899D01*
X15441393Y87969392D01*
X15659900Y87790068D01*
X15909193Y87656818D01*
X16179692Y87574764D01*
X16461000Y87547057D01*
X16742309Y87574764D01*
X17012808Y87656818D01*
X17262101Y87790068D01*
X17480608Y87969392D01*
X17659932Y88187899D01*
X17731000Y88320858D01*
X17802068Y88187899D01*
X17981393Y87969392D01*
X18199900Y87790068D01*
X18449193Y87656818D01*
X18719692Y87574764D01*
X19001000Y87547057D01*
X19282309Y87574764D01*
X19552808Y87656818D01*
X19802101Y87790068D01*
X20020608Y87969392D01*
X20199932Y88187899D01*
X20271000Y88320858D01*
X20342068Y88187899D01*
X20521393Y87969392D01*
X20739900Y87790068D01*
X20989193Y87656818D01*
X21259692Y87574764D01*
X21541000Y87547057D01*
X21822309Y87574764D01*
X22092808Y87656818D01*
X22342101Y87790068D01*
X22560608Y87969392D01*
X22739932Y88187899D01*
X22811000Y88320858D01*
X22882068Y88187899D01*
X23061393Y87969392D01*
X23279900Y87790068D01*
X23529193Y87656818D01*
X23799692Y87574764D01*
X24081000Y87547057D01*
X24362309Y87574764D01*
X24474400Y87608766D01*
X24474400Y85885547D01*
X21925908Y83337054D01*
X21897863Y83314038D01*
X21806014Y83202120D01*
X21755484Y83107585D01*
X21737764Y83074433D01*
X21695735Y82935885D01*
X21681544Y82791800D01*
X21685101Y82755685D01*
X21685101Y73388001D01*
X21506308Y73442236D01*
X21225000Y73469943D01*
X20943691Y73442236D01*
X20673192Y73360182D01*
X20423899Y73226932D01*
X20205392Y73047607D01*
X20026068Y72829100D01*
X19955000Y72696142D01*
X19883932Y72829101D01*
X19704607Y73047608D01*
X19486100Y73226932D01*
X19236807Y73360182D01*
X18966308Y73442236D01*
X18685000Y73469943D01*
X18403691Y73442236D01*
X18133192Y73360182D01*
X17883899Y73226932D01*
X17665392Y73047607D01*
X17486068Y72829100D01*
X17415000Y72696142D01*
X17343932Y72829101D01*
X17164607Y73047608D01*
X16946100Y73226932D01*
X16696807Y73360182D01*
X16426308Y73442236D01*
X16145000Y73469943D01*
X15863691Y73442236D01*
X15593192Y73360182D01*
X15343899Y73226932D01*
X15125392Y73047607D01*
X14946068Y72829100D01*
X14875000Y72696142D01*
X14803932Y72829101D01*
X14624607Y73047608D01*
X14406100Y73226932D01*
X14156807Y73360182D01*
X13886308Y73442236D01*
X13605000Y73469943D01*
X13323691Y73442236D01*
X13053192Y73360182D01*
X12803899Y73226932D01*
X12585392Y73047607D01*
X12406068Y72829100D01*
X12335000Y72696142D01*
X12263932Y72829101D01*
X12084607Y73047608D01*
X11866100Y73226932D01*
X11616807Y73360182D01*
X11346308Y73442236D01*
X11065000Y73469943D01*
X10783691Y73442236D01*
X10513192Y73360182D01*
X10263899Y73226932D01*
X10045392Y73047607D01*
X9866068Y72829100D01*
X9795000Y72696142D01*
X9723932Y72829101D01*
X9544607Y73047608D01*
X9326100Y73226932D01*
X9076807Y73360182D01*
X8806308Y73442236D01*
X8525000Y73469943D01*
X8243691Y73442236D01*
X7973192Y73360182D01*
X7723899Y73226932D01*
X7505392Y73047607D01*
X7326068Y72829100D01*
X7192818Y72579807D01*
X7110764Y72309308D01*
X7090000Y72098491D01*
X7090000Y71157508D01*
X7110764Y70946691D01*
X7192818Y70676192D01*
X7326068Y70426899D01*
X7505393Y70208392D01*
X7723900Y70029068D01*
X7973193Y69895818D01*
X8243692Y69813764D01*
X8525000Y69786057D01*
X8806309Y69813764D01*
X9076808Y69895818D01*
X9326101Y70029068D01*
X9544608Y70208392D01*
X9723932Y70426899D01*
X9795000Y70559858D01*
X9866068Y70426899D01*
X10045393Y70208392D01*
X10263900Y70029068D01*
X10513193Y69895818D01*
X10783692Y69813764D01*
X11065000Y69786057D01*
X11346309Y69813764D01*
X11616808Y69895818D01*
X11866101Y70029068D01*
X12084608Y70208392D01*
X12263932Y70426899D01*
X12335000Y70559858D01*
X12406068Y70426899D01*
X12585393Y70208392D01*
X12803900Y70029068D01*
X13053193Y69895818D01*
X13323692Y69813764D01*
X13605000Y69786057D01*
X13886309Y69813764D01*
X14156808Y69895818D01*
X14406101Y70029068D01*
X14624608Y70208392D01*
X14803932Y70426899D01*
X14875000Y70559858D01*
X14946068Y70426899D01*
X15125393Y70208392D01*
X15343900Y70029068D01*
X15593193Y69895818D01*
X15863692Y69813764D01*
X16145000Y69786057D01*
X16426309Y69813764D01*
X16696808Y69895818D01*
X16946101Y70029068D01*
X17164608Y70208392D01*
X17343932Y70426899D01*
X17415000Y70559858D01*
X17486068Y70426899D01*
X17665393Y70208392D01*
X17883900Y70029068D01*
X18133193Y69895818D01*
X18403692Y69813764D01*
X18685000Y69786057D01*
X18966309Y69813764D01*
X19236808Y69895818D01*
X19486101Y70029068D01*
X19704608Y70208392D01*
X19883932Y70426899D01*
X19955000Y70559858D01*
X20026068Y70426899D01*
X20205393Y70208392D01*
X20423900Y70029068D01*
X20673193Y69895818D01*
X20943692Y69813764D01*
X21225000Y69786057D01*
X21506309Y69813764D01*
X21685100Y69867999D01*
X21685100Y59387847D01*
X20730808Y58433554D01*
X20702763Y58410538D01*
X20610914Y58298620D01*
X20565583Y58213812D01*
X20542664Y58170933D01*
X20500635Y58032385D01*
X20500174Y58027702D01*
X20423899Y57986932D01*
X20205392Y57807607D01*
X20026068Y57589100D01*
X19955000Y57456142D01*
X19883932Y57589101D01*
X19704607Y57807608D01*
X19486100Y57986932D01*
X19236807Y58120182D01*
X18966308Y58202236D01*
X18685000Y58229943D01*
X18403691Y58202236D01*
X18133192Y58120182D01*
X17883899Y57986932D01*
X17665392Y57807607D01*
X17486068Y57589100D01*
X17415000Y57456142D01*
X17343932Y57589101D01*
X17164607Y57807608D01*
X16946100Y57986932D01*
X16696807Y58120182D01*
X16426308Y58202236D01*
X16145000Y58229943D01*
X15863691Y58202236D01*
X15593192Y58120182D01*
X15343899Y57986932D01*
X15125392Y57807607D01*
X14946068Y57589100D01*
X14875000Y57456142D01*
X14803932Y57589101D01*
X14624607Y57807608D01*
X14406100Y57986932D01*
X14156807Y58120182D01*
X13886308Y58202236D01*
X13605000Y58229943D01*
X13323691Y58202236D01*
X13053192Y58120182D01*
X12803899Y57986932D01*
X12585392Y57807607D01*
X12406068Y57589100D01*
X12335000Y57456142D01*
X12263932Y57589101D01*
X12084607Y57807608D01*
X11866100Y57986932D01*
X11616807Y58120182D01*
X11346308Y58202236D01*
X11065000Y58229943D01*
X10783691Y58202236D01*
X10513192Y58120182D01*
X10263899Y57986932D01*
X10045392Y57807607D01*
X9952581Y57694517D01*
X9950812Y57712482D01*
X9914502Y57832180D01*
X9855537Y57942494D01*
X9776185Y58039185D01*
X9679494Y58118537D01*
X9569180Y58177502D01*
X9449482Y58213812D01*
X9325000Y58226072D01*
X7725000Y58226072D01*
X7600518Y58213812D01*
X7480820Y58177502D01*
X7370506Y58118537D01*
X7273815Y58039185D01*
X7194463Y57942494D01*
X7135498Y57832180D01*
X7099188Y57712482D01*
X7086928Y57588000D01*
X7086928Y55188000D01*
X7099188Y55063518D01*
X7135498Y54943820D01*
X7194463Y54833506D01*
X7273815Y54736815D01*
X7370506Y54657463D01*
X7480820Y54598498D01*
X7600518Y54562188D01*
X7725000Y54549928D01*
X9325000Y54549928D01*
X9449482Y54562188D01*
X9569180Y54598498D01*
X9679494Y54657463D01*
X9776185Y54736815D01*
X9855537Y54833506D01*
X9914502Y54943820D01*
X9950812Y55063518D01*
X9952581Y55081483D01*
X10045393Y54968392D01*
X10263900Y54789068D01*
X10513193Y54655818D01*
X10783692Y54573764D01*
X11065000Y54546057D01*
X11346309Y54573764D01*
X11616808Y54655818D01*
X11866101Y54789068D01*
X12084608Y54968392D01*
X12263932Y55186899D01*
X12335000Y55319858D01*
X12406068Y55186899D01*
X12585393Y54968392D01*
X12618816Y54940963D01*
X11732408Y54054554D01*
X11704362Y54031537D01*
X11612513Y53919619D01*
X11544263Y53791932D01*
X11520172Y53712515D01*
X11502235Y53653385D01*
X11488044Y53509300D01*
X11491600Y53473195D01*
X11491601Y24876515D01*
X11488044Y24840400D01*
X11502235Y24696315D01*
X11528611Y24609368D01*
X11544264Y24557767D01*
X11612514Y24430080D01*
X11704363Y24318162D01*
X11732408Y24295146D01*
X12689079Y23338475D01*
X12617363Y23266759D01*
X12460320Y23031727D01*
X12352147Y22770574D01*
X12297000Y22493335D01*
X12297000Y22210665D01*
X12352147Y21933426D01*
X12460320Y21672273D01*
X12617363Y21437241D01*
X12817241Y21237363D01*
X13049759Y21082000D01*
X12817241Y20926637D01*
X12617363Y20726759D01*
X12460320Y20491727D01*
X12352147Y20230574D01*
X12297000Y19953335D01*
X12297000Y19670665D01*
X12352147Y19393426D01*
X12460320Y19132273D01*
X12617363Y18897241D01*
X12817241Y18697363D01*
X13049759Y18542000D01*
X12817241Y18386637D01*
X12617363Y18186759D01*
X12460320Y17951727D01*
X12352147Y17690574D01*
X12297000Y17413335D01*
X12297000Y17130665D01*
X12352147Y16853426D01*
X12460320Y16592273D01*
X12617363Y16357241D01*
X12817241Y16157363D01*
X13052273Y16000320D01*
X13062865Y15995933D01*
X12876869Y15884385D01*
X12668481Y15695414D01*
X12500963Y15469420D01*
X12380754Y15215087D01*
X12340096Y15081039D01*
X12462085Y14859000D01*
X13605000Y14859000D01*
X13605000Y14879000D01*
X13859000Y14879000D01*
X13859000Y14859000D01*
X15001915Y14859000D01*
X15123904Y15081039D01*
X15083246Y15215087D01*
X14963037Y15469420D01*
X14795519Y15695414D01*
X14587131Y15884385D01*
X14401135Y15995933D01*
X14411727Y16000320D01*
X14646759Y16157363D01*
X14846637Y16357241D01*
X15003680Y16592273D01*
X15111853Y16853426D01*
X15167000Y17130665D01*
X15167000Y17413335D01*
X15111853Y17690574D01*
X15003680Y17951727D01*
X14846637Y18186759D01*
X14646759Y18386637D01*
X14414241Y18542000D01*
X14646759Y18697363D01*
X14846637Y18897241D01*
X15003680Y19132273D01*
X15111853Y19393426D01*
X15167000Y19670665D01*
X15167000Y19953335D01*
X15111853Y20230574D01*
X15106646Y20243144D01*
X15157363Y20167241D01*
X15357241Y19967363D01*
X15592273Y19810320D01*
X15853426Y19702147D01*
X16130665Y19647000D01*
X16413335Y19647000D01*
X16690574Y19702147D01*
X16951727Y19810320D01*
X17186759Y19967363D01*
X17386637Y20167241D01*
X17543680Y20402273D01*
X17651853Y20663426D01*
X17707000Y20940665D01*
X17707000Y21223335D01*
X17651853Y21500574D01*
X17543680Y21761727D01*
X17386637Y21996759D01*
X17186759Y22196637D01*
X16954241Y22352000D01*
X17186759Y22507363D01*
X17386637Y22707241D01*
X17543680Y22942273D01*
X17651853Y23203426D01*
X17707000Y23480665D01*
X17707000Y23763335D01*
X17651853Y24040574D01*
X17543680Y24301727D01*
X17386637Y24536759D01*
X17186759Y24736637D01*
X16951727Y24893680D01*
X16690574Y25001853D01*
X16413335Y25057000D01*
X16130665Y25057000D01*
X15853426Y25001853D01*
X15592273Y24893680D01*
X15357241Y24736637D01*
X15157363Y24536759D01*
X15106646Y24460856D01*
X15111853Y24473426D01*
X15167000Y24750665D01*
X15167000Y25033335D01*
X15111853Y25310574D01*
X15003680Y25571727D01*
X14846637Y25806759D01*
X14646759Y26006637D01*
X14456632Y26133676D01*
X14456365Y26136385D01*
X14442805Y26181086D01*
X14646759Y26317363D01*
X14846637Y26517241D01*
X14966748Y26697000D01*
X15420995Y26697000D01*
X15457100Y26693444D01*
X15493205Y26697000D01*
X15601185Y26707635D01*
X15739733Y26749663D01*
X15867420Y26817913D01*
X15979338Y26909762D01*
X16002359Y26937813D01*
X21320900Y32256354D01*
X21320901Y27716215D01*
X21317344Y27680100D01*
X21331535Y27536015D01*
X21370200Y27408556D01*
X21373564Y27397467D01*
X21441814Y27269780D01*
X21533663Y27157862D01*
X21561708Y27134846D01*
X27913579Y20782975D01*
X27857363Y20726759D01*
X27700320Y20491727D01*
X27592147Y20230574D01*
X27537000Y19953335D01*
X27537000Y19670665D01*
X27592147Y19393426D01*
X27700320Y19132273D01*
X27857363Y18897241D01*
X28057241Y18697363D01*
X28289759Y18542000D01*
X28057241Y18386637D01*
X27857363Y18186759D01*
X27700320Y17951727D01*
X27592147Y17690574D01*
X27537000Y17413335D01*
X27537000Y17130665D01*
X27592147Y16853426D01*
X27700320Y16592273D01*
X27857363Y16357241D01*
X28057241Y16157363D01*
X28289759Y16002000D01*
X28057241Y15846637D01*
X27857363Y15646759D01*
X27700320Y15411727D01*
X27592147Y15150574D01*
X27537000Y14873335D01*
X27537000Y14590665D01*
X27592147Y14313426D01*
X27700320Y14052273D01*
X27857363Y13817241D01*
X28055961Y13618643D01*
X28047518Y13617812D01*
X27927820Y13581502D01*
X27817506Y13522537D01*
X27720815Y13443185D01*
X27641463Y13346494D01*
X27582498Y13236180D01*
X27546188Y13116482D01*
X27533928Y12992000D01*
X27533928Y11392000D01*
X27546188Y11267518D01*
X27582498Y11147820D01*
X27641463Y11037506D01*
X27720815Y10940815D01*
X27817506Y10861463D01*
X27927820Y10802498D01*
X28047518Y10766188D01*
X28172000Y10753928D01*
X29772000Y10753928D01*
X29896482Y10766188D01*
X30016180Y10802498D01*
X30126494Y10861463D01*
X30223185Y10940815D01*
X30302537Y11037506D01*
X30361502Y11147820D01*
X30397812Y11267518D01*
X30410072Y11392000D01*
X30410072Y12992000D01*
X30397812Y13116482D01*
X30361502Y13236180D01*
X30302537Y13346494D01*
X30223185Y13443185D01*
X30126494Y13522537D01*
X30016180Y13581502D01*
X29896482Y13617812D01*
X29888039Y13618643D01*
X30086637Y13817241D01*
X30243680Y14052273D01*
X30351853Y14313426D01*
X30407000Y14590665D01*
X30407000Y14873335D01*
X30351853Y15150574D01*
X30243680Y15411727D01*
X30086637Y15646759D01*
X29886759Y15846637D01*
X29654241Y16002000D01*
X29886759Y16157363D01*
X30086637Y16357241D01*
X30206748Y16537000D01*
X37435295Y16537000D01*
X37471400Y16533444D01*
X37507505Y16537000D01*
X37615485Y16547635D01*
X37754033Y16589663D01*
X37881720Y16657913D01*
X37993638Y16749762D01*
X38016659Y16777813D01*
X50344370Y29105523D01*
X50377368Y29072525D01*
X50620589Y28910010D01*
X50890842Y28798068D01*
X51177740Y28741000D01*
X51470260Y28741000D01*
X51757158Y28798068D01*
X52027411Y28910010D01*
X52270632Y29072525D01*
X52477475Y29279368D01*
X52599195Y29461534D01*
X52668822Y29344645D01*
X52863731Y29128412D01*
X53097080Y28954359D01*
X53359901Y28829175D01*
X53507110Y28784524D01*
X53737000Y28905845D01*
X53737000Y30099000D01*
X53717000Y30099000D01*
X53717000Y30353000D01*
X53737000Y30353000D01*
X53737000Y31546155D01*
X53991000Y31546155D01*
X53991000Y30353000D01*
X54011000Y30353000D01*
X54011000Y30099000D01*
X53991000Y30099000D01*
X53991000Y28905845D01*
X54220890Y28784524D01*
X54368099Y28829175D01*
X54630920Y28954359D01*
X54864269Y29128412D01*
X55059178Y29344645D01*
X55128805Y29461534D01*
X55250525Y29279368D01*
X55457368Y29072525D01*
X55700589Y28910010D01*
X55970842Y28798068D01*
X56257740Y28741000D01*
X56550260Y28741000D01*
X56837158Y28798068D01*
X57107411Y28910010D01*
X57350632Y29072525D01*
X57557475Y29279368D01*
X57674000Y29453760D01*
X57790525Y29279368D01*
X57997368Y29072525D01*
X58240589Y28910010D01*
X58510842Y28798068D01*
X58797740Y28741000D01*
X59090260Y28741000D01*
X59377158Y28798068D01*
X59647411Y28910010D01*
X59890632Y29072525D01*
X60022487Y29204380D01*
X60044498Y29131820D01*
X60103463Y29021506D01*
X60182815Y28924815D01*
X60279506Y28845463D01*
X60389820Y28786498D01*
X60509518Y28750188D01*
X60634000Y28737928D01*
X62334000Y28737928D01*
X62458482Y28750188D01*
X62578180Y28786498D01*
X62688494Y28845463D01*
X62785185Y28924815D01*
X62864537Y29021506D01*
X62923502Y29131820D01*
X62959812Y29251518D01*
X62972072Y29376000D01*
X62972072Y31076000D01*
X62959812Y31200482D01*
X62923502Y31320180D01*
X62864537Y31430494D01*
X62785185Y31527185D01*
X62688494Y31606537D01*
X62578180Y31665502D01*
X62458482Y31701812D01*
X62334000Y31714072D01*
X60634000Y31714072D01*
X60509518Y31701812D01*
X60389820Y31665502D01*
X60279506Y31606537D01*
X60182815Y31527185D01*
X60103463Y31430494D01*
X60044498Y31320180D01*
X60022487Y31247620D01*
X59890632Y31379475D01*
X59647411Y31541990D01*
X59377158Y31653932D01*
X59090260Y31711000D01*
X58797740Y31711000D01*
X58510842Y31653932D01*
X58240589Y31541990D01*
X57997368Y31379475D01*
X57790525Y31172632D01*
X57674000Y30998240D01*
X57557475Y31172632D01*
X57350632Y31379475D01*
X57107411Y31541990D01*
X56837158Y31653932D01*
X56550260Y31711000D01*
X56257740Y31711000D01*
X55970842Y31653932D01*
X55700589Y31541990D01*
X55457368Y31379475D01*
X55250525Y31172632D01*
X55128805Y30990466D01*
X55059178Y31107355D01*
X54864269Y31323588D01*
X54630920Y31497641D01*
X54368099Y31622825D01*
X54220890Y31667476D01*
X53991000Y31546155D01*
X53737000Y31546155D01*
X53507110Y31667476D01*
X53359901Y31622825D01*
X53097080Y31497641D01*
X52863731Y31323588D01*
X52668822Y31107355D01*
X52599195Y30990466D01*
X52477475Y31172632D01*
X52270632Y31379475D01*
X52027411Y31541990D01*
X51851925Y31614679D01*
X57017793Y36780546D01*
X57045838Y36803562D01*
X57137687Y36915480D01*
X57180120Y36994867D01*
X57388250Y36996000D01*
X57547000Y37154750D01*
X57547000Y38354000D01*
X57801000Y38354000D01*
X57801000Y37154750D01*
X57959750Y36996000D01*
X58524000Y36992928D01*
X58648482Y37005188D01*
X58768180Y37041498D01*
X58878494Y37100463D01*
X58975185Y37179815D01*
X59054537Y37276506D01*
X59113502Y37386820D01*
X59149812Y37506518D01*
X59162072Y37631000D01*
X59159000Y38195250D01*
X59000250Y38354000D01*
X57801000Y38354000D01*
X57547000Y38354000D01*
X57527000Y38354000D01*
X57527000Y38608000D01*
X57547000Y38608000D01*
X57547000Y39807250D01*
X57801000Y39807250D01*
X57801000Y38608000D01*
X59000250Y38608000D01*
X59159000Y38766750D01*
X59162072Y39331000D01*
X59149812Y39455482D01*
X59113502Y39575180D01*
X59054537Y39685494D01*
X58975185Y39782185D01*
X58878494Y39861537D01*
X58768180Y39920502D01*
X58648482Y39956812D01*
X58524000Y39969072D01*
X57959750Y39966000D01*
X57801000Y39807250D01*
X57547000Y39807250D01*
X57388250Y39966000D01*
X57258600Y39966706D01*
X57258600Y41233954D01*
X59329193Y43304546D01*
X59357238Y43327562D01*
X59449087Y43439480D01*
X59517337Y43567167D01*
X59559365Y43705715D01*
X59570000Y43813695D01*
X59570000Y43813704D01*
X59573555Y43849799D01*
X59570000Y43885894D01*
X59570000Y61396364D01*
X59748184Y61351700D01*
X60030512Y61337783D01*
X60310130Y61379213D01*
X60576292Y61474397D01*
X60701514Y61541329D01*
X60773097Y61785298D01*
X59960000Y62598395D01*
X59945858Y62584252D01*
X59766253Y62763857D01*
X59780395Y62778000D01*
X59766253Y62792142D01*
X59945858Y62971747D01*
X59960000Y62957605D01*
X59974143Y62971747D01*
X60153748Y62792142D01*
X60139605Y62778000D01*
X60952702Y61964903D01*
X61196671Y62036486D01*
X61317571Y62291996D01*
X61386300Y62566184D01*
X61400217Y62848512D01*
X61358787Y63128130D01*
X61263603Y63394292D01*
X61196671Y63519514D01*
X60952704Y63591097D01*
X61068977Y63707370D01*
X61034047Y63742300D01*
X61575493Y64283746D01*
X61603538Y64306762D01*
X61695387Y64418680D01*
X61763637Y64546367D01*
X61799294Y64663913D01*
X61805665Y64684914D01*
X61819856Y64828999D01*
X61816300Y64865104D01*
X61816300Y65691395D01*
X61819856Y65727500D01*
X61805665Y65871586D01*
X61778742Y65960337D01*
X61764691Y66006658D01*
X61798405Y66020623D01*
X61943355Y66117476D01*
X62066624Y66240745D01*
X62163477Y66385695D01*
X62230190Y66546755D01*
X62264200Y66717735D01*
X62264200Y66892065D01*
X62230190Y67063045D01*
X62163477Y67224105D01*
X62114200Y67297853D01*
X62114200Y71658754D01*
X68521716Y78066269D01*
X68534010Y78036589D01*
X68696525Y77793368D01*
X68903368Y77586525D01*
X69077760Y77470000D01*
X68903368Y77353475D01*
X68696525Y77146632D01*
X68534010Y76903411D01*
X68422068Y76633158D01*
X68365000Y76346260D01*
X68365000Y76053740D01*
X68422068Y75766842D01*
X68534010Y75496589D01*
X68696525Y75253368D01*
X68711573Y75238320D01*
X68166708Y74693454D01*
X68138662Y74670437D01*
X68046813Y74558519D01*
X67978563Y74430832D01*
X67963397Y74380835D01*
X67936535Y74292285D01*
X67922344Y74148200D01*
X67925900Y74112095D01*
X67925901Y52063915D01*
X67922344Y52027800D01*
X67936535Y51883715D01*
X67937800Y51879545D01*
X67937800Y51778735D01*
X67971810Y51607755D01*
X68038523Y51446695D01*
X68135376Y51301745D01*
X68258645Y51178476D01*
X68403595Y51081623D01*
X68564655Y51014910D01*
X68735635Y50980900D01*
X68909965Y50980900D01*
X69080945Y51014910D01*
X69242005Y51081623D01*
X69386955Y51178476D01*
X69510224Y51301745D01*
X69607077Y51446695D01*
X69673790Y51607755D01*
X69707800Y51778735D01*
X69707800Y51953065D01*
X69697328Y52005711D01*
X69723000Y52019186D01*
X69723000Y53213000D01*
X69703000Y53213000D01*
X69703000Y53467000D01*
X69723000Y53467000D01*
X69723000Y53487000D01*
X69977000Y53487000D01*
X69977000Y53467000D01*
X69997000Y53467000D01*
X69997000Y53213000D01*
X69977000Y53213000D01*
X69977000Y52019186D01*
X70206891Y51898519D01*
X70265301Y51919239D01*
X70265300Y23258005D01*
X70261744Y23221900D01*
X70275935Y23077816D01*
X70317963Y22939268D01*
X70386213Y22811581D01*
X70478062Y22699663D01*
X70506108Y22676646D01*
X83456001Y9726752D01*
X83456001Y8381558D01*
X83187335Y8435000D01*
X82904665Y8435000D01*
X82627426Y8379853D01*
X82366273Y8271680D01*
X82131241Y8114637D01*
X81931363Y7914759D01*
X81901000Y7869317D01*
X81870637Y7914759D01*
X81670759Y8114637D01*
X81435727Y8271680D01*
X81174574Y8379853D01*
X80897335Y8435000D01*
X80614665Y8435000D01*
X80337426Y8379853D01*
X80076273Y8271680D01*
X79841241Y8114637D01*
X79641363Y7914759D01*
X79484320Y7679727D01*
X79376147Y7418574D01*
X79321000Y7141335D01*
X79321000Y6858665D01*
X79376147Y6581426D01*
X79484320Y6320273D01*
X79641363Y6085241D01*
X79841241Y5885363D01*
X80076273Y5728320D01*
X80337426Y5620147D01*
X80575071Y5572876D01*
X80543429Y5506004D01*
X80474700Y5231816D01*
X80460783Y4949488D01*
X80502213Y4669870D01*
X80574742Y4467059D01*
X80337426Y4419853D01*
X80076273Y4311680D01*
X79841241Y4154637D01*
X79641363Y3954759D01*
X79484320Y3719727D01*
X79376147Y3458574D01*
X79321000Y3181335D01*
X79321000Y2898665D01*
X79376147Y2621426D01*
X79484320Y2360273D01*
X79641363Y2125241D01*
X79841241Y1925363D01*
X80076273Y1768320D01*
X80337426Y1660147D01*
X80614665Y1605000D01*
X80897335Y1605000D01*
X81174574Y1660147D01*
X81435727Y1768320D01*
X81670759Y1925363D01*
X81870637Y2125241D01*
X81901000Y2170683D01*
X81931363Y2125241D01*
X82131241Y1925363D01*
X82366273Y1768320D01*
X82627426Y1660147D01*
X82904665Y1605000D01*
X83187335Y1605000D01*
X83464574Y1660147D01*
X83725727Y1768320D01*
X83960759Y1925363D01*
X84160637Y2125241D01*
X84191000Y2170683D01*
X84221363Y2125241D01*
X84421241Y1925363D01*
X84656273Y1768320D01*
X84917426Y1660147D01*
X85194665Y1605000D01*
X85477335Y1605000D01*
X85689375Y1647178D01*
X85921546Y1415007D01*
X85944562Y1386962D01*
X85972606Y1363947D01*
X86056480Y1295113D01*
X86184166Y1226863D01*
X86322715Y1184835D01*
X86466800Y1170644D01*
X86502905Y1174200D01*
X90343495Y1174200D01*
X90379600Y1170644D01*
X90415705Y1174200D01*
X90523685Y1184835D01*
X90662233Y1226863D01*
X90789920Y1295113D01*
X90901838Y1386962D01*
X90924859Y1415013D01*
X95882495Y6372649D01*
X95765893Y6198141D01*
X95567261Y5718601D01*
X95466000Y5209525D01*
X95466000Y4690475D01*
X95567261Y4181399D01*
X95765893Y3701859D01*
X96054262Y3270285D01*
X96421285Y2903262D01*
X96852859Y2614893D01*
X97332399Y2416261D01*
X97841475Y2315000D01*
X98360525Y2315000D01*
X98869601Y2416261D01*
X99349141Y2614893D01*
X99780715Y2903262D01*
X100147738Y3270285D01*
X100436107Y3701859D01*
X100634739Y4181399D01*
X100736000Y4690475D01*
X100736000Y5209525D01*
X100733891Y5220128D01*
X108765000Y5220128D01*
X108765000Y4779872D01*
X108850890Y4348075D01*
X109019369Y3941331D01*
X109263962Y3575271D01*
X109575271Y3263962D01*
X109941331Y3019369D01*
X110348075Y2850890D01*
X110779872Y2765000D01*
X111220128Y2765000D01*
X111651925Y2850890D01*
X112058669Y3019369D01*
X112424729Y3263962D01*
X112736038Y3575271D01*
X112980631Y3941331D01*
X113149110Y4348075D01*
X113235000Y4779872D01*
X113235000Y5220128D01*
X113149110Y5651925D01*
X112980631Y6058669D01*
X112736038Y6424729D01*
X112424729Y6736038D01*
X112058669Y6980631D01*
X111651925Y7149110D01*
X111220128Y7235000D01*
X110779872Y7235000D01*
X110348075Y7149110D01*
X109941331Y6980631D01*
X109575271Y6736038D01*
X109263962Y6424729D01*
X109019369Y6058669D01*
X108850890Y5651925D01*
X108765000Y5220128D01*
X100733891Y5220128D01*
X100634739Y5718601D01*
X100436107Y6198141D01*
X100147738Y6629715D01*
X99780715Y6996738D01*
X99349141Y7285107D01*
X98869601Y7483739D01*
X98360525Y7585000D01*
X97841475Y7585000D01*
X97332399Y7483739D01*
X96852859Y7285107D01*
X96678352Y7168505D01*
X96857493Y7347646D01*
X96885538Y7370662D01*
X96977387Y7482580D01*
X97045637Y7610266D01*
X97087665Y7748815D01*
X97101856Y7892900D01*
X97098300Y7929005D01*
X97098300Y13487069D01*
X97117426Y13479147D01*
X97394665Y13424000D01*
X97677335Y13424000D01*
X97954574Y13479147D01*
X98215727Y13587320D01*
X98450759Y13744363D01*
X98650637Y13944241D01*
X98807680Y14179273D01*
X98915853Y14440426D01*
X98971000Y14717665D01*
X98971000Y15000335D01*
X98915853Y15277574D01*
X98807680Y15538727D01*
X98650637Y15773759D01*
X98450759Y15973637D01*
X98215727Y16130680D01*
X97954574Y16238853D01*
X97677335Y16294000D01*
X97394665Y16294000D01*
X97117426Y16238853D01*
X97098300Y16230931D01*
X97098300Y53820495D01*
X97101856Y53856600D01*
X97087665Y54000685D01*
X97074704Y54043411D01*
X97045637Y54139233D01*
X96977387Y54266920D01*
X96933417Y54320497D01*
X96908553Y54350794D01*
X96908550Y54350797D01*
X96885537Y54378838D01*
X96857498Y54401849D01*
X73504727Y77754620D01*
X73543475Y77793368D01*
X73705990Y78036589D01*
X73817932Y78306842D01*
X73875000Y78593740D01*
X73875000Y78886260D01*
X73817932Y79173158D01*
X73705990Y79443411D01*
X73543475Y79686632D01*
X73524077Y79706030D01*
X75504447Y81686400D01*
X89617354Y81686400D01*
X104286823Y67016930D01*
X104256525Y66986632D01*
X104094010Y66743411D01*
X103982068Y66473158D01*
X103925000Y66186260D01*
X103925000Y65893740D01*
X103982068Y65606842D01*
X104094010Y65336589D01*
X104256525Y65093368D01*
X104463368Y64886525D01*
X104637760Y64770000D01*
X104463368Y64653475D01*
X104256525Y64446632D01*
X104094010Y64203411D01*
X103982068Y63933158D01*
X103925000Y63646260D01*
X103925000Y63353740D01*
X103982068Y63066842D01*
X104094010Y62796589D01*
X104256525Y62553368D01*
X104463368Y62346525D01*
X104637760Y62230000D01*
X104463368Y62113475D01*
X104256525Y61906632D01*
X104094010Y61663411D01*
X103982068Y61393158D01*
X103925000Y61106260D01*
X103925000Y60813740D01*
X103982068Y60526842D01*
X104094010Y60256589D01*
X104256525Y60013368D01*
X104463368Y59806525D01*
X104637760Y59690000D01*
X104463368Y59573475D01*
X104304520Y59414627D01*
X87601959Y76117187D01*
X87578938Y76145238D01*
X87467020Y76237087D01*
X87339333Y76305337D01*
X87200785Y76347365D01*
X87092805Y76358000D01*
X87056700Y76361556D01*
X87020595Y76358000D01*
X78116053Y76358000D01*
X78042305Y76407277D01*
X77881245Y76473990D01*
X77710265Y76508000D01*
X77535935Y76508000D01*
X77364955Y76473990D01*
X77203895Y76407277D01*
X77058945Y76310424D01*
X76935676Y76187155D01*
X76838823Y76042205D01*
X76772110Y75881145D01*
X76738100Y75710165D01*
X76738100Y75535835D01*
X76772110Y75364855D01*
X76838823Y75203795D01*
X76935676Y75058845D01*
X77058945Y74935576D01*
X77203895Y74838723D01*
X77364955Y74772010D01*
X77535935Y74738000D01*
X77710265Y74738000D01*
X77881245Y74772010D01*
X78042305Y74838723D01*
X78116053Y74888000D01*
X86752254Y74888000D01*
X103714446Y57925807D01*
X103737462Y57897762D01*
X103849380Y57805913D01*
X103977067Y57737663D01*
X104106078Y57698528D01*
X104256525Y57473368D01*
X104463368Y57266525D01*
X104637760Y57150000D01*
X104463368Y57033475D01*
X104256525Y56826632D01*
X104094010Y56583411D01*
X103982068Y56313158D01*
X103925000Y56026260D01*
X103925000Y55733740D01*
X103982068Y55446842D01*
X104094010Y55176589D01*
X104256525Y54933368D01*
X104463368Y54726525D01*
X104637760Y54610000D01*
X104463368Y54493475D01*
X104256525Y54286632D01*
X104094010Y54043411D01*
X103982068Y53773158D01*
X103925000Y53486260D01*
X103925000Y53193740D01*
X103982068Y52906842D01*
X104094010Y52636589D01*
X104256525Y52393368D01*
X104463368Y52186525D01*
X104706589Y52024010D01*
X104976842Y51912068D01*
X105263740Y51855000D01*
X105556260Y51855000D01*
X105843158Y51912068D01*
X106113411Y52024010D01*
X106356632Y52186525D01*
X106488487Y52318380D01*
X106510498Y52245820D01*
X106569463Y52135506D01*
X106648815Y52038815D01*
X106745506Y51959463D01*
X106855820Y51900498D01*
X106975518Y51864188D01*
X107100000Y51851928D01*
X108800000Y51851928D01*
X108924482Y51864188D01*
X109044180Y51900498D01*
X109154494Y51959463D01*
X109251185Y52038815D01*
X109330537Y52135506D01*
X109389502Y52245820D01*
X109425812Y52365518D01*
X109438072Y52490000D01*
X109438072Y54190000D01*
X109425812Y54314482D01*
X109389502Y54434180D01*
X109330537Y54544494D01*
X109251185Y54641185D01*
X109154494Y54720537D01*
X109044180Y54779502D01*
X108971620Y54801513D01*
X109103475Y54933368D01*
X109265990Y55176589D01*
X109377932Y55446842D01*
X109435000Y55733740D01*
X109435000Y56026260D01*
X109377932Y56313158D01*
X109265990Y56583411D01*
X109103475Y56826632D01*
X108896632Y57033475D01*
X108722240Y57150000D01*
X108896632Y57266525D01*
X109103475Y57473368D01*
X109265990Y57716589D01*
X109377932Y57986842D01*
X109435000Y58273740D01*
X109435000Y58566260D01*
X109377932Y58853158D01*
X109265990Y59123411D01*
X109103475Y59366632D01*
X108896632Y59573475D01*
X108722240Y59690000D01*
X108896632Y59806525D01*
X109103475Y60013368D01*
X109265990Y60256589D01*
X109377932Y60526842D01*
X109435000Y60813740D01*
X109435000Y61106260D01*
X109377932Y61393158D01*
X109265990Y61663411D01*
X109103475Y61906632D01*
X108896632Y62113475D01*
X108722240Y62230000D01*
X108896632Y62346525D01*
X109103475Y62553368D01*
X109265990Y62796589D01*
X109377932Y63066842D01*
X109435000Y63353740D01*
X109435000Y63646260D01*
X109377932Y63933158D01*
X109265990Y64203411D01*
X109103475Y64446632D01*
X108896632Y64653475D01*
X108722240Y64770000D01*
X108896632Y64886525D01*
X109103475Y65093368D01*
X109265990Y65336589D01*
X109377932Y65606842D01*
X109435000Y65893740D01*
X109435000Y66186260D01*
X109377932Y66473158D01*
X109265990Y66743411D01*
X109103475Y66986632D01*
X108896632Y67193475D01*
X108722240Y67310000D01*
X108896632Y67426525D01*
X109103475Y67633368D01*
X109265990Y67876589D01*
X109377932Y68146842D01*
X109435000Y68433740D01*
X109435000Y68726260D01*
X109377932Y69013158D01*
X109265990Y69283411D01*
X109103475Y69526632D01*
X108896632Y69733475D01*
X108722240Y69850000D01*
X108896632Y69966525D01*
X109103475Y70173368D01*
X109265990Y70416589D01*
X109377932Y70686842D01*
X109435000Y70973740D01*
X109435000Y71266260D01*
X109377932Y71553158D01*
X109265990Y71823411D01*
X109103475Y72066632D01*
X108896632Y72273475D01*
X108722240Y72390000D01*
X108896632Y72506525D01*
X109103475Y72713368D01*
X109265990Y72956589D01*
X109377932Y73226842D01*
X109435000Y73513740D01*
X109435000Y73806260D01*
X109377932Y74093158D01*
X109265990Y74363411D01*
X109103475Y74606632D01*
X108896632Y74813475D01*
X108722240Y74930000D01*
X108896632Y75046525D01*
X109103475Y75253368D01*
X109265990Y75496589D01*
X109377932Y75766842D01*
X109435000Y76053740D01*
X109435000Y76346260D01*
X109377932Y76633158D01*
X109265990Y76903411D01*
X109103475Y77146632D01*
X108896632Y77353475D01*
X108722240Y77470000D01*
X108896632Y77586525D01*
X109103475Y77793368D01*
X109265990Y78036589D01*
X109377932Y78306842D01*
X109435000Y78593740D01*
X109435000Y78886260D01*
X109377932Y79173158D01*
X109265990Y79443411D01*
X109103475Y79686632D01*
X108896632Y79893475D01*
X108722240Y80010000D01*
X108896632Y80126525D01*
X109103475Y80333368D01*
X109265990Y80576589D01*
X109377932Y80846842D01*
X109435000Y81133740D01*
X109435000Y81426260D01*
X109377932Y81713158D01*
X109265990Y81983411D01*
X109103475Y82226632D01*
X108896632Y82433475D01*
X108722240Y82550000D01*
X108896632Y82666525D01*
X109103475Y82873368D01*
X109265990Y83116589D01*
X109377932Y83386842D01*
X109435000Y83673740D01*
X109435000Y83966260D01*
X109377932Y84253158D01*
X109265990Y84523411D01*
X109103475Y84766632D01*
X108896632Y84973475D01*
X108722240Y85090000D01*
X108896632Y85206525D01*
X109103475Y85413368D01*
X109265990Y85656589D01*
X109377932Y85926842D01*
X109435000Y86213740D01*
X109435000Y86506260D01*
X109377932Y86793158D01*
X109265990Y87063411D01*
X109103475Y87306632D01*
X108896632Y87513475D01*
X108722240Y87630000D01*
X108896632Y87746525D01*
X109103475Y87953368D01*
X109265990Y88196589D01*
X109377932Y88466842D01*
X109435000Y88753740D01*
X109435000Y89046260D01*
X109377932Y89333158D01*
X109265990Y89603411D01*
X109103475Y89846632D01*
X108896632Y90053475D01*
X108653411Y90215990D01*
X108383158Y90327932D01*
X108096260Y90385000D01*
X107803740Y90385000D01*
X107516842Y90327932D01*
X107246589Y90215990D01*
X107003368Y90053475D01*
X106796525Y89846632D01*
X106680000Y89672240D01*
X106563475Y89846632D01*
X106356632Y90053475D01*
X106113411Y90215990D01*
X105843158Y90327932D01*
X105556260Y90385000D01*
X105263740Y90385000D01*
X104976842Y90327932D01*
X104706589Y90215990D01*
X104463368Y90053475D01*
X104256525Y89846632D01*
X104094010Y89603411D01*
X103982068Y89333158D01*
X103925000Y89046260D01*
X103925000Y88753740D01*
X103982068Y88466842D01*
X104094010Y88196589D01*
X104256525Y87953368D01*
X104463368Y87746525D01*
X104637760Y87630000D01*
X104463368Y87513475D01*
X104256525Y87306632D01*
X104094010Y87063411D01*
X103982068Y86793158D01*
X103925000Y86506260D01*
X103925000Y86213740D01*
X103982068Y85926842D01*
X104094010Y85656589D01*
X104256525Y85413368D01*
X104463368Y85206525D01*
X104637760Y85090000D01*
X104463368Y84973475D01*
X104256525Y84766632D01*
X104094010Y84523411D01*
X103982068Y84253158D01*
X103925000Y83966260D01*
X103925000Y83673740D01*
X103982068Y83386842D01*
X104094010Y83116589D01*
X104256525Y82873368D01*
X104463368Y82666525D01*
X104637760Y82550000D01*
X104463368Y82433475D01*
X104256525Y82226632D01*
X104094010Y81983411D01*
X103982068Y81713158D01*
X103925000Y81426260D01*
X103925000Y81133740D01*
X103982068Y80846842D01*
X104094010Y80576589D01*
X104256525Y80333368D01*
X104463368Y80126525D01*
X104637760Y80010000D01*
X104463368Y79893475D01*
X104256525Y79686632D01*
X104094010Y79443411D01*
X103982068Y79173158D01*
X103925000Y78886260D01*
X103925000Y78593740D01*
X103982068Y78306842D01*
X104094010Y78036589D01*
X104256525Y77793368D01*
X104463368Y77586525D01*
X104637760Y77470000D01*
X104463368Y77353475D01*
X104256525Y77146632D01*
X104094010Y76903411D01*
X103982068Y76633158D01*
X103925000Y76346260D01*
X103925000Y76053740D01*
X103982068Y75766842D01*
X104094010Y75496589D01*
X104256525Y75253368D01*
X104463368Y75046525D01*
X104637760Y74930000D01*
X104463368Y74813475D01*
X104256525Y74606632D01*
X104094010Y74363411D01*
X103982068Y74093158D01*
X103925000Y73806260D01*
X103925000Y73513740D01*
X103982068Y73226842D01*
X104094010Y72956589D01*
X104256525Y72713368D01*
X104463368Y72506525D01*
X104637760Y72390000D01*
X104598907Y72364040D01*
X83606094Y93356852D01*
X83588790Y93443845D01*
X83522077Y93604905D01*
X83425224Y93749855D01*
X83301955Y93873124D01*
X83157005Y93969977D01*
X82995945Y94036690D01*
X82824965Y94070700D01*
X82650635Y94070700D01*
X82479655Y94036690D01*
X82318595Y93969977D01*
X82173645Y93873124D01*
X82096334Y93795813D01*
X78475000Y97417146D01*
X78475000Y127220128D01*
X108765000Y127220128D01*
X108765000Y126779872D01*
X108850890Y126348075D01*
X109019369Y125941331D01*
X109263962Y125575271D01*
X109575271Y125263962D01*
X109941331Y125019369D01*
X110348075Y124850890D01*
X110779872Y124765000D01*
X111220128Y124765000D01*
X111651925Y124850890D01*
X112058669Y125019369D01*
X112424729Y125263962D01*
X112736038Y125575271D01*
X112980631Y125941331D01*
X113149110Y126348075D01*
X113235000Y126779872D01*
X113235000Y127220128D01*
X113149110Y127651925D01*
X112980631Y128058669D01*
X112736038Y128424729D01*
X112424729Y128736038D01*
X112058669Y128980631D01*
X111651925Y129149110D01*
X111220128Y129235000D01*
X110779872Y129235000D01*
X110348075Y129149110D01*
X109941331Y128980631D01*
X109575271Y128736038D01*
X109263962Y128424729D01*
X109019369Y128058669D01*
X108850890Y127651925D01*
X108765000Y127220128D01*
X78475000Y127220128D01*
X78475000Y131373000D01*
X114873000Y131373000D01*
X114873000Y660000D01*
X660000Y660000D01*
X660000Y5220128D01*
X1765000Y5220128D01*
X1765000Y4779872D01*
X1850890Y4348075D01*
X2019369Y3941331D01*
X2263962Y3575271D01*
X2575271Y3263962D01*
X2941331Y3019369D01*
X3348075Y2850890D01*
X3779872Y2765000D01*
X4220128Y2765000D01*
X4651925Y2850890D01*
X5058669Y3019369D01*
X5424729Y3263962D01*
X5736038Y3575271D01*
X5980631Y3941331D01*
X6149110Y4348075D01*
X6235000Y4779872D01*
X6235000Y4972260D01*
X39679000Y4972260D01*
X39679000Y4679740D01*
X39736068Y4392842D01*
X39848010Y4122589D01*
X40010525Y3879368D01*
X40217368Y3672525D01*
X40391760Y3556000D01*
X40217368Y3439475D01*
X40010525Y3232632D01*
X39848010Y2989411D01*
X39736068Y2719158D01*
X39679000Y2432260D01*
X39679000Y2139740D01*
X39736068Y1852842D01*
X39848010Y1582589D01*
X40010525Y1339368D01*
X40217368Y1132525D01*
X40460589Y970010D01*
X40730842Y858068D01*
X41017740Y801000D01*
X41310260Y801000D01*
X41597158Y858068D01*
X41867411Y970010D01*
X42110632Y1132525D01*
X42317475Y1339368D01*
X42479990Y1582589D01*
X42591932Y1852842D01*
X42649000Y2139740D01*
X42649000Y2432260D01*
X42591932Y2719158D01*
X42479990Y2989411D01*
X42317475Y3232632D01*
X42110632Y3439475D01*
X41936240Y3556000D01*
X42110632Y3672525D01*
X42317475Y3879368D01*
X42479990Y4122589D01*
X42591932Y4392842D01*
X42649000Y4679740D01*
X42649000Y4972260D01*
X59999000Y4972260D01*
X59999000Y4679740D01*
X60056068Y4392842D01*
X60168010Y4122589D01*
X60330525Y3879368D01*
X60537368Y3672525D01*
X60711760Y3556000D01*
X60537368Y3439475D01*
X60330525Y3232632D01*
X60168010Y2989411D01*
X60056068Y2719158D01*
X59999000Y2432260D01*
X59999000Y2139740D01*
X60056068Y1852842D01*
X60168010Y1582589D01*
X60330525Y1339368D01*
X60537368Y1132525D01*
X60780589Y970010D01*
X61050842Y858068D01*
X61337740Y801000D01*
X61630260Y801000D01*
X61917158Y858068D01*
X62187411Y970010D01*
X62430632Y1132525D01*
X62637475Y1339368D01*
X62799990Y1582589D01*
X62911932Y1852842D01*
X62969000Y2139740D01*
X62969000Y2432260D01*
X62911932Y2719158D01*
X62799990Y2989411D01*
X62637475Y3232632D01*
X62430632Y3439475D01*
X62256240Y3556000D01*
X62430632Y3672525D01*
X62637475Y3879368D01*
X62799990Y4122589D01*
X62911932Y4392842D01*
X62969000Y4679740D01*
X62969000Y4972260D01*
X62921805Y5209525D01*
X70466000Y5209525D01*
X70466000Y4690475D01*
X70567261Y4181399D01*
X70765893Y3701859D01*
X71054262Y3270285D01*
X71421285Y2903262D01*
X71852859Y2614893D01*
X72332399Y2416261D01*
X72841475Y2315000D01*
X73360525Y2315000D01*
X73869601Y2416261D01*
X74349141Y2614893D01*
X74780715Y2903262D01*
X75147738Y3270285D01*
X75436107Y3701859D01*
X75634739Y4181399D01*
X75736000Y4690475D01*
X75736000Y5209525D01*
X75634739Y5718601D01*
X75436107Y6198141D01*
X75147738Y6629715D01*
X74780715Y6996738D01*
X74349141Y7285107D01*
X73869601Y7483739D01*
X73360525Y7585000D01*
X72841475Y7585000D01*
X72332399Y7483739D01*
X71852859Y7285107D01*
X71421285Y6996738D01*
X71054262Y6629715D01*
X70765893Y6198141D01*
X70567261Y5718601D01*
X70466000Y5209525D01*
X62921805Y5209525D01*
X62911932Y5259158D01*
X62799990Y5529411D01*
X62637475Y5772632D01*
X62430632Y5979475D01*
X62187411Y6141990D01*
X61917158Y6253932D01*
X61630260Y6311000D01*
X61337740Y6311000D01*
X61050842Y6253932D01*
X60780589Y6141990D01*
X60537368Y5979475D01*
X60330525Y5772632D01*
X60168010Y5529411D01*
X60056068Y5259158D01*
X59999000Y4972260D01*
X42649000Y4972260D01*
X42591932Y5259158D01*
X42479990Y5529411D01*
X42317475Y5772632D01*
X42110632Y5979475D01*
X41867411Y6141990D01*
X41597158Y6253932D01*
X41310260Y6311000D01*
X41017740Y6311000D01*
X40730842Y6253932D01*
X40460589Y6141990D01*
X40217368Y5979475D01*
X40010525Y5772632D01*
X39848010Y5529411D01*
X39736068Y5259158D01*
X39679000Y4972260D01*
X6235000Y4972260D01*
X6235000Y5220128D01*
X6149110Y5651925D01*
X5980631Y6058669D01*
X5736038Y6424729D01*
X5424729Y6736038D01*
X5058669Y6980631D01*
X4651925Y7149110D01*
X4220128Y7235000D01*
X3779872Y7235000D01*
X3348075Y7149110D01*
X2941331Y6980631D01*
X2575271Y6736038D01*
X2263962Y6424729D01*
X2019369Y6058669D01*
X1850890Y5651925D01*
X1765000Y5220128D01*
X660000Y5220128D01*
X660000Y12333335D01*
X12297000Y12333335D01*
X12297000Y12050665D01*
X12352147Y11773426D01*
X12460320Y11512273D01*
X12617363Y11277241D01*
X12817241Y11077363D01*
X13052273Y10920320D01*
X13313426Y10812147D01*
X13590665Y10757000D01*
X13873335Y10757000D01*
X14150574Y10812147D01*
X14411727Y10920320D01*
X14646759Y11077363D01*
X14846637Y11277241D01*
X15003680Y11512273D01*
X15111853Y11773426D01*
X15167000Y12050665D01*
X15167000Y12333335D01*
X15111853Y12610574D01*
X15003680Y12871727D01*
X14846637Y13106759D01*
X14646759Y13306637D01*
X14411727Y13463680D01*
X14401135Y13468067D01*
X14587131Y13579615D01*
X14795519Y13768586D01*
X14963037Y13994580D01*
X15083246Y14248913D01*
X15123904Y14382961D01*
X15001915Y14605000D01*
X13859000Y14605000D01*
X13859000Y14585000D01*
X13605000Y14585000D01*
X13605000Y14605000D01*
X12462085Y14605000D01*
X12340096Y14382961D01*
X12380754Y14248913D01*
X12500963Y13994580D01*
X12668481Y13768586D01*
X12876869Y13579615D01*
X13062865Y13468067D01*
X13052273Y13463680D01*
X12817241Y13306637D01*
X12617363Y13106759D01*
X12460320Y12871727D01*
X12352147Y12610574D01*
X12297000Y12333335D01*
X660000Y12333335D01*
X660000Y90976298D01*
X7011903Y90976298D01*
X7083486Y90732329D01*
X7338996Y90611429D01*
X7613184Y90542700D01*
X7895512Y90528783D01*
X8175130Y90570213D01*
X8441292Y90665397D01*
X8566514Y90732329D01*
X8638097Y90976298D01*
X7825000Y91789395D01*
X7011903Y90976298D01*
X660000Y90976298D01*
X660000Y91898488D01*
X6384783Y91898488D01*
X6426213Y91618870D01*
X6521397Y91352708D01*
X6588329Y91227486D01*
X6832298Y91155903D01*
X7645395Y91969000D01*
X8004605Y91969000D01*
X8817702Y91155903D01*
X9061671Y91227486D01*
X9182571Y91482996D01*
X9251300Y91757184D01*
X9265217Y92039512D01*
X9223787Y92319130D01*
X9128603Y92585292D01*
X9061671Y92710514D01*
X8817702Y92782097D01*
X8004605Y91969000D01*
X7645395Y91969000D01*
X6832298Y92782097D01*
X6588329Y92710514D01*
X6467429Y92455004D01*
X6398700Y92180816D01*
X6384783Y91898488D01*
X660000Y91898488D01*
X660000Y127220128D01*
X1765000Y127220128D01*
X1765000Y126779872D01*
X1850890Y126348075D01*
X2019369Y125941331D01*
X2263962Y125575271D01*
X2575271Y125263962D01*
X2941331Y125019369D01*
X3348075Y124850890D01*
X3779872Y124765000D01*
X4220128Y124765000D01*
X4651925Y124850890D01*
X5058669Y125019369D01*
X5424729Y125263962D01*
X5736038Y125575271D01*
X5980631Y125941331D01*
X6149110Y126348075D01*
X6235000Y126779872D01*
X6235000Y127220128D01*
X6149110Y127651925D01*
X5980631Y128058669D01*
X5736038Y128424729D01*
X5424729Y128736038D01*
X5058669Y128980631D01*
X4651925Y129149110D01*
X4220128Y129235000D01*
X3779872Y129235000D01*
X3348075Y129149110D01*
X2941331Y128980631D01*
X2575271Y128736038D01*
X2263962Y128424729D01*
X2019369Y128058669D01*
X1850890Y127651925D01*
X1765000Y127220128D01*
X660000Y127220128D01*
X660000Y131373000D01*
X26105000Y131373000D01*
X26105001Y125259625D01*
G04 #@! TA.AperFunction,Conductor*
D23*
G36*
X26105001Y125259625D02*
G01*
X26015518Y125250812D01*
X25895820Y125214502D01*
X25785506Y125155537D01*
X25688815Y125076185D01*
X25609463Y124979494D01*
X25550498Y124869180D01*
X25514188Y124749482D01*
X25501928Y124625000D01*
X25501928Y123025000D01*
X25514188Y122900518D01*
X25550498Y122780820D01*
X25596155Y122695402D01*
X15966808Y113066054D01*
X15938763Y113043038D01*
X15846914Y112931120D01*
X15778664Y112803433D01*
X15736635Y112664885D01*
X15722444Y112520800D01*
X15726001Y112484685D01*
X15726000Y98643264D01*
X15659899Y98607932D01*
X15441392Y98428607D01*
X15262068Y98210100D01*
X15191000Y98077142D01*
X15119932Y98210101D01*
X14940607Y98428608D01*
X14722100Y98607932D01*
X14472807Y98741182D01*
X14202308Y98823236D01*
X13921000Y98850943D01*
X13639691Y98823236D01*
X13369192Y98741182D01*
X13119899Y98607932D01*
X12901392Y98428607D01*
X12722068Y98210100D01*
X12651000Y98077142D01*
X12579932Y98210101D01*
X12400607Y98428608D01*
X12182100Y98607932D01*
X11932807Y98741182D01*
X11662308Y98823236D01*
X11381000Y98850943D01*
X11099691Y98823236D01*
X10829192Y98741182D01*
X10579899Y98607932D01*
X10361392Y98428607D01*
X10182068Y98210100D01*
X10048818Y97960807D01*
X9985817Y97753119D01*
X9898854Y97706636D01*
X9771709Y97602291D01*
X9745559Y97570427D01*
X8060418Y95885285D01*
X7966335Y95904000D01*
X7683665Y95904000D01*
X7406426Y95848853D01*
X7145273Y95740680D01*
X6910241Y95583637D01*
X6710363Y95383759D01*
X6553320Y95148727D01*
X6445147Y94887574D01*
X6390000Y94610335D01*
X6390000Y94327665D01*
X6445147Y94050426D01*
X6553320Y93789273D01*
X6710363Y93554241D01*
X6910241Y93354363D01*
X7110869Y93220308D01*
X7083486Y93205671D01*
X7011903Y92961702D01*
X7825000Y92148605D01*
X8638097Y92961702D01*
X8566514Y93205671D01*
X8537659Y93219324D01*
X8739759Y93354363D01*
X8939637Y93554241D01*
X9096680Y93789273D01*
X9204853Y94050426D01*
X9260000Y94327665D01*
X9260000Y94610335D01*
X9241285Y94704418D01*
X10255405Y95718538D01*
X10361393Y95589392D01*
X10579900Y95410068D01*
X10829193Y95276818D01*
X11099692Y95194764D01*
X11381000Y95167057D01*
X11662309Y95194764D01*
X11932808Y95276818D01*
X12182101Y95410068D01*
X12400608Y95589392D01*
X12579932Y95807899D01*
X12651000Y95940858D01*
X12722068Y95807899D01*
X12901393Y95589392D01*
X13119900Y95410068D01*
X13369193Y95276818D01*
X13639692Y95194764D01*
X13921000Y95167057D01*
X14202309Y95194764D01*
X14472808Y95276818D01*
X14722101Y95410068D01*
X14940608Y95589392D01*
X15119932Y95807899D01*
X15191000Y95940858D01*
X15262068Y95807899D01*
X15441393Y95589392D01*
X15659900Y95410068D01*
X15909193Y95276818D01*
X16179692Y95194764D01*
X16461000Y95167057D01*
X16742309Y95194764D01*
X17012808Y95276818D01*
X17262101Y95410068D01*
X17480608Y95589392D01*
X17659932Y95807899D01*
X17731000Y95940858D01*
X17802068Y95807899D01*
X17981393Y95589392D01*
X18199900Y95410068D01*
X18449193Y95276818D01*
X18719692Y95194764D01*
X19001000Y95167057D01*
X19282309Y95194764D01*
X19552808Y95276818D01*
X19802101Y95410068D01*
X20020608Y95589392D01*
X20199932Y95807899D01*
X20271000Y95940858D01*
X20342068Y95807899D01*
X20521393Y95589392D01*
X20739900Y95410068D01*
X20857541Y95347188D01*
X17134654Y91624300D01*
X16497105Y91624300D01*
X16461000Y91627856D01*
X16424895Y91624300D01*
X16316915Y91613665D01*
X16178367Y91571637D01*
X16050680Y91503387D01*
X15938762Y91411538D01*
X15846913Y91299620D01*
X15778663Y91171933D01*
X15736635Y91033385D01*
X15736174Y91028702D01*
X15659899Y90987932D01*
X15441392Y90808607D01*
X15262068Y90590100D01*
X15191000Y90457142D01*
X15119932Y90590101D01*
X14940607Y90808608D01*
X14722100Y90987932D01*
X14472807Y91121182D01*
X14202308Y91203236D01*
X13921000Y91230943D01*
X13639691Y91203236D01*
X13369192Y91121182D01*
X13119899Y90987932D01*
X12901392Y90808607D01*
X12808581Y90695517D01*
X12806812Y90713482D01*
X12770502Y90833180D01*
X12711537Y90943494D01*
X12632185Y91040185D01*
X12535494Y91119537D01*
X12425180Y91178502D01*
X12305482Y91214812D01*
X12181000Y91227072D01*
X10581000Y91227072D01*
X10456518Y91214812D01*
X10336820Y91178502D01*
X10226506Y91119537D01*
X10129815Y91040185D01*
X10050463Y90943494D01*
X9991498Y90833180D01*
X9955188Y90713482D01*
X9942928Y90589000D01*
X9942928Y88189000D01*
X9955188Y88064518D01*
X9991498Y87944820D01*
X10050463Y87834506D01*
X10129815Y87737815D01*
X10226506Y87658463D01*
X10336820Y87599498D01*
X10456518Y87563188D01*
X10581000Y87550928D01*
X12181000Y87550928D01*
X12305482Y87563188D01*
X12425180Y87599498D01*
X12535494Y87658463D01*
X12632185Y87737815D01*
X12711537Y87834506D01*
X12770502Y87944820D01*
X12806812Y88064518D01*
X12808581Y88082483D01*
X12901393Y87969392D01*
X13119900Y87790068D01*
X13369193Y87656818D01*
X13639692Y87574764D01*
X13921000Y87547057D01*
X14202309Y87574764D01*
X14472808Y87656818D01*
X14722101Y87790068D01*
X14940608Y87969392D01*
X15119932Y88187899D01*
X15191000Y88320858D01*
X15262068Y88187899D01*
X15441393Y87969392D01*
X15659900Y87790068D01*
X15909193Y87656818D01*
X16179692Y87574764D01*
X16461000Y87547057D01*
X16742309Y87574764D01*
X17012808Y87656818D01*
X17262101Y87790068D01*
X17480608Y87969392D01*
X17659932Y88187899D01*
X17731000Y88320858D01*
X17802068Y88187899D01*
X17981393Y87969392D01*
X18199900Y87790068D01*
X18449193Y87656818D01*
X18719692Y87574764D01*
X19001000Y87547057D01*
X19282309Y87574764D01*
X19552808Y87656818D01*
X19802101Y87790068D01*
X20020608Y87969392D01*
X20199932Y88187899D01*
X20271000Y88320858D01*
X20342068Y88187899D01*
X20521393Y87969392D01*
X20739900Y87790068D01*
X20989193Y87656818D01*
X21259692Y87574764D01*
X21541000Y87547057D01*
X21822309Y87574764D01*
X22092808Y87656818D01*
X22342101Y87790068D01*
X22560608Y87969392D01*
X22739932Y88187899D01*
X22811000Y88320858D01*
X22882068Y88187899D01*
X23061393Y87969392D01*
X23279900Y87790068D01*
X23529193Y87656818D01*
X23799692Y87574764D01*
X24081000Y87547057D01*
X24362309Y87574764D01*
X24474400Y87608766D01*
X24474400Y85885547D01*
X21925908Y83337054D01*
X21897863Y83314038D01*
X21806014Y83202120D01*
X21755484Y83107585D01*
X21737764Y83074433D01*
X21695735Y82935885D01*
X21681544Y82791800D01*
X21685101Y82755685D01*
X21685101Y73388001D01*
X21506308Y73442236D01*
X21225000Y73469943D01*
X20943691Y73442236D01*
X20673192Y73360182D01*
X20423899Y73226932D01*
X20205392Y73047607D01*
X20026068Y72829100D01*
X19955000Y72696142D01*
X19883932Y72829101D01*
X19704607Y73047608D01*
X19486100Y73226932D01*
X19236807Y73360182D01*
X18966308Y73442236D01*
X18685000Y73469943D01*
X18403691Y73442236D01*
X18133192Y73360182D01*
X17883899Y73226932D01*
X17665392Y73047607D01*
X17486068Y72829100D01*
X17415000Y72696142D01*
X17343932Y72829101D01*
X17164607Y73047608D01*
X16946100Y73226932D01*
X16696807Y73360182D01*
X16426308Y73442236D01*
X16145000Y73469943D01*
X15863691Y73442236D01*
X15593192Y73360182D01*
X15343899Y73226932D01*
X15125392Y73047607D01*
X14946068Y72829100D01*
X14875000Y72696142D01*
X14803932Y72829101D01*
X14624607Y73047608D01*
X14406100Y73226932D01*
X14156807Y73360182D01*
X13886308Y73442236D01*
X13605000Y73469943D01*
X13323691Y73442236D01*
X13053192Y73360182D01*
X12803899Y73226932D01*
X12585392Y73047607D01*
X12406068Y72829100D01*
X12335000Y72696142D01*
X12263932Y72829101D01*
X12084607Y73047608D01*
X11866100Y73226932D01*
X11616807Y73360182D01*
X11346308Y73442236D01*
X11065000Y73469943D01*
X10783691Y73442236D01*
X10513192Y73360182D01*
X10263899Y73226932D01*
X10045392Y73047607D01*
X9866068Y72829100D01*
X9795000Y72696142D01*
X9723932Y72829101D01*
X9544607Y73047608D01*
X9326100Y73226932D01*
X9076807Y73360182D01*
X8806308Y73442236D01*
X8525000Y73469943D01*
X8243691Y73442236D01*
X7973192Y73360182D01*
X7723899Y73226932D01*
X7505392Y73047607D01*
X7326068Y72829100D01*
X7192818Y72579807D01*
X7110764Y72309308D01*
X7090000Y72098491D01*
X7090000Y71157508D01*
X7110764Y70946691D01*
X7192818Y70676192D01*
X7326068Y70426899D01*
X7505393Y70208392D01*
X7723900Y70029068D01*
X7973193Y69895818D01*
X8243692Y69813764D01*
X8525000Y69786057D01*
X8806309Y69813764D01*
X9076808Y69895818D01*
X9326101Y70029068D01*
X9544608Y70208392D01*
X9723932Y70426899D01*
X9795000Y70559858D01*
X9866068Y70426899D01*
X10045393Y70208392D01*
X10263900Y70029068D01*
X10513193Y69895818D01*
X10783692Y69813764D01*
X11065000Y69786057D01*
X11346309Y69813764D01*
X11616808Y69895818D01*
X11866101Y70029068D01*
X12084608Y70208392D01*
X12263932Y70426899D01*
X12335000Y70559858D01*
X12406068Y70426899D01*
X12585393Y70208392D01*
X12803900Y70029068D01*
X13053193Y69895818D01*
X13323692Y69813764D01*
X13605000Y69786057D01*
X13886309Y69813764D01*
X14156808Y69895818D01*
X14406101Y70029068D01*
X14624608Y70208392D01*
X14803932Y70426899D01*
X14875000Y70559858D01*
X14946068Y70426899D01*
X15125393Y70208392D01*
X15343900Y70029068D01*
X15593193Y69895818D01*
X15863692Y69813764D01*
X16145000Y69786057D01*
X16426309Y69813764D01*
X16696808Y69895818D01*
X16946101Y70029068D01*
X17164608Y70208392D01*
X17343932Y70426899D01*
X17415000Y70559858D01*
X17486068Y70426899D01*
X17665393Y70208392D01*
X17883900Y70029068D01*
X18133193Y69895818D01*
X18403692Y69813764D01*
X18685000Y69786057D01*
X18966309Y69813764D01*
X19236808Y69895818D01*
X19486101Y70029068D01*
X19704608Y70208392D01*
X19883932Y70426899D01*
X19955000Y70559858D01*
X20026068Y70426899D01*
X20205393Y70208392D01*
X20423900Y70029068D01*
X20673193Y69895818D01*
X20943692Y69813764D01*
X21225000Y69786057D01*
X21506309Y69813764D01*
X21685100Y69867999D01*
X21685100Y59387847D01*
X20730808Y58433554D01*
X20702763Y58410538D01*
X20610914Y58298620D01*
X20565583Y58213812D01*
X20542664Y58170933D01*
X20500635Y58032385D01*
X20500174Y58027702D01*
X20423899Y57986932D01*
X20205392Y57807607D01*
X20026068Y57589100D01*
X19955000Y57456142D01*
X19883932Y57589101D01*
X19704607Y57807608D01*
X19486100Y57986932D01*
X19236807Y58120182D01*
X18966308Y58202236D01*
X18685000Y58229943D01*
X18403691Y58202236D01*
X18133192Y58120182D01*
X17883899Y57986932D01*
X17665392Y57807607D01*
X17486068Y57589100D01*
X17415000Y57456142D01*
X17343932Y57589101D01*
X17164607Y57807608D01*
X16946100Y57986932D01*
X16696807Y58120182D01*
X16426308Y58202236D01*
X16145000Y58229943D01*
X15863691Y58202236D01*
X15593192Y58120182D01*
X15343899Y57986932D01*
X15125392Y57807607D01*
X14946068Y57589100D01*
X14875000Y57456142D01*
X14803932Y57589101D01*
X14624607Y57807608D01*
X14406100Y57986932D01*
X14156807Y58120182D01*
X13886308Y58202236D01*
X13605000Y58229943D01*
X13323691Y58202236D01*
X13053192Y58120182D01*
X12803899Y57986932D01*
X12585392Y57807607D01*
X12406068Y57589100D01*
X12335000Y57456142D01*
X12263932Y57589101D01*
X12084607Y57807608D01*
X11866100Y57986932D01*
X11616807Y58120182D01*
X11346308Y58202236D01*
X11065000Y58229943D01*
X10783691Y58202236D01*
X10513192Y58120182D01*
X10263899Y57986932D01*
X10045392Y57807607D01*
X9952581Y57694517D01*
X9950812Y57712482D01*
X9914502Y57832180D01*
X9855537Y57942494D01*
X9776185Y58039185D01*
X9679494Y58118537D01*
X9569180Y58177502D01*
X9449482Y58213812D01*
X9325000Y58226072D01*
X7725000Y58226072D01*
X7600518Y58213812D01*
X7480820Y58177502D01*
X7370506Y58118537D01*
X7273815Y58039185D01*
X7194463Y57942494D01*
X7135498Y57832180D01*
X7099188Y57712482D01*
X7086928Y57588000D01*
X7086928Y55188000D01*
X7099188Y55063518D01*
X7135498Y54943820D01*
X7194463Y54833506D01*
X7273815Y54736815D01*
X7370506Y54657463D01*
X7480820Y54598498D01*
X7600518Y54562188D01*
X7725000Y54549928D01*
X9325000Y54549928D01*
X9449482Y54562188D01*
X9569180Y54598498D01*
X9679494Y54657463D01*
X9776185Y54736815D01*
X9855537Y54833506D01*
X9914502Y54943820D01*
X9950812Y55063518D01*
X9952581Y55081483D01*
X10045393Y54968392D01*
X10263900Y54789068D01*
X10513193Y54655818D01*
X10783692Y54573764D01*
X11065000Y54546057D01*
X11346309Y54573764D01*
X11616808Y54655818D01*
X11866101Y54789068D01*
X12084608Y54968392D01*
X12263932Y55186899D01*
X12335000Y55319858D01*
X12406068Y55186899D01*
X12585393Y54968392D01*
X12618816Y54940963D01*
X11732408Y54054554D01*
X11704362Y54031537D01*
X11612513Y53919619D01*
X11544263Y53791932D01*
X11520172Y53712515D01*
X11502235Y53653385D01*
X11488044Y53509300D01*
X11491600Y53473195D01*
X11491601Y24876515D01*
X11488044Y24840400D01*
X11502235Y24696315D01*
X11528611Y24609368D01*
X11544264Y24557767D01*
X11612514Y24430080D01*
X11704363Y24318162D01*
X11732408Y24295146D01*
X12689079Y23338475D01*
X12617363Y23266759D01*
X12460320Y23031727D01*
X12352147Y22770574D01*
X12297000Y22493335D01*
X12297000Y22210665D01*
X12352147Y21933426D01*
X12460320Y21672273D01*
X12617363Y21437241D01*
X12817241Y21237363D01*
X13049759Y21082000D01*
X12817241Y20926637D01*
X12617363Y20726759D01*
X12460320Y20491727D01*
X12352147Y20230574D01*
X12297000Y19953335D01*
X12297000Y19670665D01*
X12352147Y19393426D01*
X12460320Y19132273D01*
X12617363Y18897241D01*
X12817241Y18697363D01*
X13049759Y18542000D01*
X12817241Y18386637D01*
X12617363Y18186759D01*
X12460320Y17951727D01*
X12352147Y17690574D01*
X12297000Y17413335D01*
X12297000Y17130665D01*
X12352147Y16853426D01*
X12460320Y16592273D01*
X12617363Y16357241D01*
X12817241Y16157363D01*
X13052273Y16000320D01*
X13062865Y15995933D01*
X12876869Y15884385D01*
X12668481Y15695414D01*
X12500963Y15469420D01*
X12380754Y15215087D01*
X12340096Y15081039D01*
X12462085Y14859000D01*
X13605000Y14859000D01*
X13605000Y14879000D01*
X13859000Y14879000D01*
X13859000Y14859000D01*
X15001915Y14859000D01*
X15123904Y15081039D01*
X15083246Y15215087D01*
X14963037Y15469420D01*
X14795519Y15695414D01*
X14587131Y15884385D01*
X14401135Y15995933D01*
X14411727Y16000320D01*
X14646759Y16157363D01*
X14846637Y16357241D01*
X15003680Y16592273D01*
X15111853Y16853426D01*
X15167000Y17130665D01*
X15167000Y17413335D01*
X15111853Y17690574D01*
X15003680Y17951727D01*
X14846637Y18186759D01*
X14646759Y18386637D01*
X14414241Y18542000D01*
X14646759Y18697363D01*
X14846637Y18897241D01*
X15003680Y19132273D01*
X15111853Y19393426D01*
X15167000Y19670665D01*
X15167000Y19953335D01*
X15111853Y20230574D01*
X15106646Y20243144D01*
X15157363Y20167241D01*
X15357241Y19967363D01*
X15592273Y19810320D01*
X15853426Y19702147D01*
X16130665Y19647000D01*
X16413335Y19647000D01*
X16690574Y19702147D01*
X16951727Y19810320D01*
X17186759Y19967363D01*
X17386637Y20167241D01*
X17543680Y20402273D01*
X17651853Y20663426D01*
X17707000Y20940665D01*
X17707000Y21223335D01*
X17651853Y21500574D01*
X17543680Y21761727D01*
X17386637Y21996759D01*
X17186759Y22196637D01*
X16954241Y22352000D01*
X17186759Y22507363D01*
X17386637Y22707241D01*
X17543680Y22942273D01*
X17651853Y23203426D01*
X17707000Y23480665D01*
X17707000Y23763335D01*
X17651853Y24040574D01*
X17543680Y24301727D01*
X17386637Y24536759D01*
X17186759Y24736637D01*
X16951727Y24893680D01*
X16690574Y25001853D01*
X16413335Y25057000D01*
X16130665Y25057000D01*
X15853426Y25001853D01*
X15592273Y24893680D01*
X15357241Y24736637D01*
X15157363Y24536759D01*
X15106646Y24460856D01*
X15111853Y24473426D01*
X15167000Y24750665D01*
X15167000Y25033335D01*
X15111853Y25310574D01*
X15003680Y25571727D01*
X14846637Y25806759D01*
X14646759Y26006637D01*
X14456632Y26133676D01*
X14456365Y26136385D01*
X14442805Y26181086D01*
X14646759Y26317363D01*
X14846637Y26517241D01*
X14966748Y26697000D01*
X15420995Y26697000D01*
X15457100Y26693444D01*
X15493205Y26697000D01*
X15601185Y26707635D01*
X15739733Y26749663D01*
X15867420Y26817913D01*
X15979338Y26909762D01*
X16002359Y26937813D01*
X21320900Y32256354D01*
X21320901Y27716215D01*
X21317344Y27680100D01*
X21331535Y27536015D01*
X21370200Y27408556D01*
X21373564Y27397467D01*
X21441814Y27269780D01*
X21533663Y27157862D01*
X21561708Y27134846D01*
X27913579Y20782975D01*
X27857363Y20726759D01*
X27700320Y20491727D01*
X27592147Y20230574D01*
X27537000Y19953335D01*
X27537000Y19670665D01*
X27592147Y19393426D01*
X27700320Y19132273D01*
X27857363Y18897241D01*
X28057241Y18697363D01*
X28289759Y18542000D01*
X28057241Y18386637D01*
X27857363Y18186759D01*
X27700320Y17951727D01*
X27592147Y17690574D01*
X27537000Y17413335D01*
X27537000Y17130665D01*
X27592147Y16853426D01*
X27700320Y16592273D01*
X27857363Y16357241D01*
X28057241Y16157363D01*
X28289759Y16002000D01*
X28057241Y15846637D01*
X27857363Y15646759D01*
X27700320Y15411727D01*
X27592147Y15150574D01*
X27537000Y14873335D01*
X27537000Y14590665D01*
X27592147Y14313426D01*
X27700320Y14052273D01*
X27857363Y13817241D01*
X28055961Y13618643D01*
X28047518Y13617812D01*
X27927820Y13581502D01*
X27817506Y13522537D01*
X27720815Y13443185D01*
X27641463Y13346494D01*
X27582498Y13236180D01*
X27546188Y13116482D01*
X27533928Y12992000D01*
X27533928Y11392000D01*
X27546188Y11267518D01*
X27582498Y11147820D01*
X27641463Y11037506D01*
X27720815Y10940815D01*
X27817506Y10861463D01*
X27927820Y10802498D01*
X28047518Y10766188D01*
X28172000Y10753928D01*
X29772000Y10753928D01*
X29896482Y10766188D01*
X30016180Y10802498D01*
X30126494Y10861463D01*
X30223185Y10940815D01*
X30302537Y11037506D01*
X30361502Y11147820D01*
X30397812Y11267518D01*
X30410072Y11392000D01*
X30410072Y12992000D01*
X30397812Y13116482D01*
X30361502Y13236180D01*
X30302537Y13346494D01*
X30223185Y13443185D01*
X30126494Y13522537D01*
X30016180Y13581502D01*
X29896482Y13617812D01*
X29888039Y13618643D01*
X30086637Y13817241D01*
X30243680Y14052273D01*
X30351853Y14313426D01*
X30407000Y14590665D01*
X30407000Y14873335D01*
X30351853Y15150574D01*
X30243680Y15411727D01*
X30086637Y15646759D01*
X29886759Y15846637D01*
X29654241Y16002000D01*
X29886759Y16157363D01*
X30086637Y16357241D01*
X30206748Y16537000D01*
X37435295Y16537000D01*
X37471400Y16533444D01*
X37507505Y16537000D01*
X37615485Y16547635D01*
X37754033Y16589663D01*
X37881720Y16657913D01*
X37993638Y16749762D01*
X38016659Y16777813D01*
X50344370Y29105523D01*
X50377368Y29072525D01*
X50620589Y28910010D01*
X50890842Y28798068D01*
X51177740Y28741000D01*
X51470260Y28741000D01*
X51757158Y28798068D01*
X52027411Y28910010D01*
X52270632Y29072525D01*
X52477475Y29279368D01*
X52599195Y29461534D01*
X52668822Y29344645D01*
X52863731Y29128412D01*
X53097080Y28954359D01*
X53359901Y28829175D01*
X53507110Y28784524D01*
X53737000Y28905845D01*
X53737000Y30099000D01*
X53717000Y30099000D01*
X53717000Y30353000D01*
X53737000Y30353000D01*
X53737000Y31546155D01*
X53991000Y31546155D01*
X53991000Y30353000D01*
X54011000Y30353000D01*
X54011000Y30099000D01*
X53991000Y30099000D01*
X53991000Y28905845D01*
X54220890Y28784524D01*
X54368099Y28829175D01*
X54630920Y28954359D01*
X54864269Y29128412D01*
X55059178Y29344645D01*
X55128805Y29461534D01*
X55250525Y29279368D01*
X55457368Y29072525D01*
X55700589Y28910010D01*
X55970842Y28798068D01*
X56257740Y28741000D01*
X56550260Y28741000D01*
X56837158Y28798068D01*
X57107411Y28910010D01*
X57350632Y29072525D01*
X57557475Y29279368D01*
X57674000Y29453760D01*
X57790525Y29279368D01*
X57997368Y29072525D01*
X58240589Y28910010D01*
X58510842Y28798068D01*
X58797740Y28741000D01*
X59090260Y28741000D01*
X59377158Y28798068D01*
X59647411Y28910010D01*
X59890632Y29072525D01*
X60022487Y29204380D01*
X60044498Y29131820D01*
X60103463Y29021506D01*
X60182815Y28924815D01*
X60279506Y28845463D01*
X60389820Y28786498D01*
X60509518Y28750188D01*
X60634000Y28737928D01*
X62334000Y28737928D01*
X62458482Y28750188D01*
X62578180Y28786498D01*
X62688494Y28845463D01*
X62785185Y28924815D01*
X62864537Y29021506D01*
X62923502Y29131820D01*
X62959812Y29251518D01*
X62972072Y29376000D01*
X62972072Y31076000D01*
X62959812Y31200482D01*
X62923502Y31320180D01*
X62864537Y31430494D01*
X62785185Y31527185D01*
X62688494Y31606537D01*
X62578180Y31665502D01*
X62458482Y31701812D01*
X62334000Y31714072D01*
X60634000Y31714072D01*
X60509518Y31701812D01*
X60389820Y31665502D01*
X60279506Y31606537D01*
X60182815Y31527185D01*
X60103463Y31430494D01*
X60044498Y31320180D01*
X60022487Y31247620D01*
X59890632Y31379475D01*
X59647411Y31541990D01*
X59377158Y31653932D01*
X59090260Y31711000D01*
X58797740Y31711000D01*
X58510842Y31653932D01*
X58240589Y31541990D01*
X57997368Y31379475D01*
X57790525Y31172632D01*
X57674000Y30998240D01*
X57557475Y31172632D01*
X57350632Y31379475D01*
X57107411Y31541990D01*
X56837158Y31653932D01*
X56550260Y31711000D01*
X56257740Y31711000D01*
X55970842Y31653932D01*
X55700589Y31541990D01*
X55457368Y31379475D01*
X55250525Y31172632D01*
X55128805Y30990466D01*
X55059178Y31107355D01*
X54864269Y31323588D01*
X54630920Y31497641D01*
X54368099Y31622825D01*
X54220890Y31667476D01*
X53991000Y31546155D01*
X53737000Y31546155D01*
X53507110Y31667476D01*
X53359901Y31622825D01*
X53097080Y31497641D01*
X52863731Y31323588D01*
X52668822Y31107355D01*
X52599195Y30990466D01*
X52477475Y31172632D01*
X52270632Y31379475D01*
X52027411Y31541990D01*
X51851925Y31614679D01*
X57017793Y36780546D01*
X57045838Y36803562D01*
X57137687Y36915480D01*
X57180120Y36994867D01*
X57388250Y36996000D01*
X57547000Y37154750D01*
X57547000Y38354000D01*
X57801000Y38354000D01*
X57801000Y37154750D01*
X57959750Y36996000D01*
X58524000Y36992928D01*
X58648482Y37005188D01*
X58768180Y37041498D01*
X58878494Y37100463D01*
X58975185Y37179815D01*
X59054537Y37276506D01*
X59113502Y37386820D01*
X59149812Y37506518D01*
X59162072Y37631000D01*
X59159000Y38195250D01*
X59000250Y38354000D01*
X57801000Y38354000D01*
X57547000Y38354000D01*
X57527000Y38354000D01*
X57527000Y38608000D01*
X57547000Y38608000D01*
X57547000Y39807250D01*
X57801000Y39807250D01*
X57801000Y38608000D01*
X59000250Y38608000D01*
X59159000Y38766750D01*
X59162072Y39331000D01*
X59149812Y39455482D01*
X59113502Y39575180D01*
X59054537Y39685494D01*
X58975185Y39782185D01*
X58878494Y39861537D01*
X58768180Y39920502D01*
X58648482Y39956812D01*
X58524000Y39969072D01*
X57959750Y39966000D01*
X57801000Y39807250D01*
X57547000Y39807250D01*
X57388250Y39966000D01*
X57258600Y39966706D01*
X57258600Y41233954D01*
X59329193Y43304546D01*
X59357238Y43327562D01*
X59449087Y43439480D01*
X59517337Y43567167D01*
X59559365Y43705715D01*
X59570000Y43813695D01*
X59570000Y43813704D01*
X59573555Y43849799D01*
X59570000Y43885894D01*
X59570000Y61396364D01*
X59748184Y61351700D01*
X60030512Y61337783D01*
X60310130Y61379213D01*
X60576292Y61474397D01*
X60701514Y61541329D01*
X60773097Y61785298D01*
X59960000Y62598395D01*
X59945858Y62584252D01*
X59766253Y62763857D01*
X59780395Y62778000D01*
X59766253Y62792142D01*
X59945858Y62971747D01*
X59960000Y62957605D01*
X59974143Y62971747D01*
X60153748Y62792142D01*
X60139605Y62778000D01*
X60952702Y61964903D01*
X61196671Y62036486D01*
X61317571Y62291996D01*
X61386300Y62566184D01*
X61400217Y62848512D01*
X61358787Y63128130D01*
X61263603Y63394292D01*
X61196671Y63519514D01*
X60952704Y63591097D01*
X61068977Y63707370D01*
X61034047Y63742300D01*
X61575493Y64283746D01*
X61603538Y64306762D01*
X61695387Y64418680D01*
X61763637Y64546367D01*
X61799294Y64663913D01*
X61805665Y64684914D01*
X61819856Y64828999D01*
X61816300Y64865104D01*
X61816300Y65691395D01*
X61819856Y65727500D01*
X61805665Y65871586D01*
X61778742Y65960337D01*
X61764691Y66006658D01*
X61798405Y66020623D01*
X61943355Y66117476D01*
X62066624Y66240745D01*
X62163477Y66385695D01*
X62230190Y66546755D01*
X62264200Y66717735D01*
X62264200Y66892065D01*
X62230190Y67063045D01*
X62163477Y67224105D01*
X62114200Y67297853D01*
X62114200Y71658754D01*
X68521716Y78066269D01*
X68534010Y78036589D01*
X68696525Y77793368D01*
X68903368Y77586525D01*
X69077760Y77470000D01*
X68903368Y77353475D01*
X68696525Y77146632D01*
X68534010Y76903411D01*
X68422068Y76633158D01*
X68365000Y76346260D01*
X68365000Y76053740D01*
X68422068Y75766842D01*
X68534010Y75496589D01*
X68696525Y75253368D01*
X68711573Y75238320D01*
X68166708Y74693454D01*
X68138662Y74670437D01*
X68046813Y74558519D01*
X67978563Y74430832D01*
X67963397Y74380835D01*
X67936535Y74292285D01*
X67922344Y74148200D01*
X67925900Y74112095D01*
X67925901Y52063915D01*
X67922344Y52027800D01*
X67936535Y51883715D01*
X67937800Y51879545D01*
X67937800Y51778735D01*
X67971810Y51607755D01*
X68038523Y51446695D01*
X68135376Y51301745D01*
X68258645Y51178476D01*
X68403595Y51081623D01*
X68564655Y51014910D01*
X68735635Y50980900D01*
X68909965Y50980900D01*
X69080945Y51014910D01*
X69242005Y51081623D01*
X69386955Y51178476D01*
X69510224Y51301745D01*
X69607077Y51446695D01*
X69673790Y51607755D01*
X69707800Y51778735D01*
X69707800Y51953065D01*
X69697328Y52005711D01*
X69723000Y52019186D01*
X69723000Y53213000D01*
X69703000Y53213000D01*
X69703000Y53467000D01*
X69723000Y53467000D01*
X69723000Y53487000D01*
X69977000Y53487000D01*
X69977000Y53467000D01*
X69997000Y53467000D01*
X69997000Y53213000D01*
X69977000Y53213000D01*
X69977000Y52019186D01*
X70206891Y51898519D01*
X70265301Y51919239D01*
X70265300Y23258005D01*
X70261744Y23221900D01*
X70275935Y23077816D01*
X70317963Y22939268D01*
X70386213Y22811581D01*
X70478062Y22699663D01*
X70506108Y22676646D01*
X83456001Y9726752D01*
X83456001Y8381558D01*
X83187335Y8435000D01*
X82904665Y8435000D01*
X82627426Y8379853D01*
X82366273Y8271680D01*
X82131241Y8114637D01*
X81931363Y7914759D01*
X81901000Y7869317D01*
X81870637Y7914759D01*
X81670759Y8114637D01*
X81435727Y8271680D01*
X81174574Y8379853D01*
X80897335Y8435000D01*
X80614665Y8435000D01*
X80337426Y8379853D01*
X80076273Y8271680D01*
X79841241Y8114637D01*
X79641363Y7914759D01*
X79484320Y7679727D01*
X79376147Y7418574D01*
X79321000Y7141335D01*
X79321000Y6858665D01*
X79376147Y6581426D01*
X79484320Y6320273D01*
X79641363Y6085241D01*
X79841241Y5885363D01*
X80076273Y5728320D01*
X80337426Y5620147D01*
X80575071Y5572876D01*
X80543429Y5506004D01*
X80474700Y5231816D01*
X80460783Y4949488D01*
X80502213Y4669870D01*
X80574742Y4467059D01*
X80337426Y4419853D01*
X80076273Y4311680D01*
X79841241Y4154637D01*
X79641363Y3954759D01*
X79484320Y3719727D01*
X79376147Y3458574D01*
X79321000Y3181335D01*
X79321000Y2898665D01*
X79376147Y2621426D01*
X79484320Y2360273D01*
X79641363Y2125241D01*
X79841241Y1925363D01*
X80076273Y1768320D01*
X80337426Y1660147D01*
X80614665Y1605000D01*
X80897335Y1605000D01*
X81174574Y1660147D01*
X81435727Y1768320D01*
X81670759Y1925363D01*
X81870637Y2125241D01*
X81901000Y2170683D01*
X81931363Y2125241D01*
X82131241Y1925363D01*
X82366273Y1768320D01*
X82627426Y1660147D01*
X82904665Y1605000D01*
X83187335Y1605000D01*
X83464574Y1660147D01*
X83725727Y1768320D01*
X83960759Y1925363D01*
X84160637Y2125241D01*
X84191000Y2170683D01*
X84221363Y2125241D01*
X84421241Y1925363D01*
X84656273Y1768320D01*
X84917426Y1660147D01*
X85194665Y1605000D01*
X85477335Y1605000D01*
X85689375Y1647178D01*
X85921546Y1415007D01*
X85944562Y1386962D01*
X85972606Y1363947D01*
X86056480Y1295113D01*
X86184166Y1226863D01*
X86322715Y1184835D01*
X86466800Y1170644D01*
X86502905Y1174200D01*
X90343495Y1174200D01*
X90379600Y1170644D01*
X90415705Y1174200D01*
X90523685Y1184835D01*
X90662233Y1226863D01*
X90789920Y1295113D01*
X90901838Y1386962D01*
X90924859Y1415013D01*
X95882495Y6372649D01*
X95765893Y6198141D01*
X95567261Y5718601D01*
X95466000Y5209525D01*
X95466000Y4690475D01*
X95567261Y4181399D01*
X95765893Y3701859D01*
X96054262Y3270285D01*
X96421285Y2903262D01*
X96852859Y2614893D01*
X97332399Y2416261D01*
X97841475Y2315000D01*
X98360525Y2315000D01*
X98869601Y2416261D01*
X99349141Y2614893D01*
X99780715Y2903262D01*
X100147738Y3270285D01*
X100436107Y3701859D01*
X100634739Y4181399D01*
X100736000Y4690475D01*
X100736000Y5209525D01*
X100733891Y5220128D01*
X108765000Y5220128D01*
X108765000Y4779872D01*
X108850890Y4348075D01*
X109019369Y3941331D01*
X109263962Y3575271D01*
X109575271Y3263962D01*
X109941331Y3019369D01*
X110348075Y2850890D01*
X110779872Y2765000D01*
X111220128Y2765000D01*
X111651925Y2850890D01*
X112058669Y3019369D01*
X112424729Y3263962D01*
X112736038Y3575271D01*
X112980631Y3941331D01*
X113149110Y4348075D01*
X113235000Y4779872D01*
X113235000Y5220128D01*
X113149110Y5651925D01*
X112980631Y6058669D01*
X112736038Y6424729D01*
X112424729Y6736038D01*
X112058669Y6980631D01*
X111651925Y7149110D01*
X111220128Y7235000D01*
X110779872Y7235000D01*
X110348075Y7149110D01*
X109941331Y6980631D01*
X109575271Y6736038D01*
X109263962Y6424729D01*
X109019369Y6058669D01*
X108850890Y5651925D01*
X108765000Y5220128D01*
X100733891Y5220128D01*
X100634739Y5718601D01*
X100436107Y6198141D01*
X100147738Y6629715D01*
X99780715Y6996738D01*
X99349141Y7285107D01*
X98869601Y7483739D01*
X98360525Y7585000D01*
X97841475Y7585000D01*
X97332399Y7483739D01*
X96852859Y7285107D01*
X96678352Y7168505D01*
X96857493Y7347646D01*
X96885538Y7370662D01*
X96977387Y7482580D01*
X97045637Y7610266D01*
X97087665Y7748815D01*
X97101856Y7892900D01*
X97098300Y7929005D01*
X97098300Y13487069D01*
X97117426Y13479147D01*
X97394665Y13424000D01*
X97677335Y13424000D01*
X97954574Y13479147D01*
X98215727Y13587320D01*
X98450759Y13744363D01*
X98650637Y13944241D01*
X98807680Y14179273D01*
X98915853Y14440426D01*
X98971000Y14717665D01*
X98971000Y15000335D01*
X98915853Y15277574D01*
X98807680Y15538727D01*
X98650637Y15773759D01*
X98450759Y15973637D01*
X98215727Y16130680D01*
X97954574Y16238853D01*
X97677335Y16294000D01*
X97394665Y16294000D01*
X97117426Y16238853D01*
X97098300Y16230931D01*
X97098300Y53820495D01*
X97101856Y53856600D01*
X97087665Y54000685D01*
X97074704Y54043411D01*
X97045637Y54139233D01*
X96977387Y54266920D01*
X96933417Y54320497D01*
X96908553Y54350794D01*
X96908550Y54350797D01*
X96885537Y54378838D01*
X96857498Y54401849D01*
X73504727Y77754620D01*
X73543475Y77793368D01*
X73705990Y78036589D01*
X73817932Y78306842D01*
X73875000Y78593740D01*
X73875000Y78886260D01*
X73817932Y79173158D01*
X73705990Y79443411D01*
X73543475Y79686632D01*
X73524077Y79706030D01*
X75504447Y81686400D01*
X89617354Y81686400D01*
X104286823Y67016930D01*
X104256525Y66986632D01*
X104094010Y66743411D01*
X103982068Y66473158D01*
X103925000Y66186260D01*
X103925000Y65893740D01*
X103982068Y65606842D01*
X104094010Y65336589D01*
X104256525Y65093368D01*
X104463368Y64886525D01*
X104637760Y64770000D01*
X104463368Y64653475D01*
X104256525Y64446632D01*
X104094010Y64203411D01*
X103982068Y63933158D01*
X103925000Y63646260D01*
X103925000Y63353740D01*
X103982068Y63066842D01*
X104094010Y62796589D01*
X104256525Y62553368D01*
X104463368Y62346525D01*
X104637760Y62230000D01*
X104463368Y62113475D01*
X104256525Y61906632D01*
X104094010Y61663411D01*
X103982068Y61393158D01*
X103925000Y61106260D01*
X103925000Y60813740D01*
X103982068Y60526842D01*
X104094010Y60256589D01*
X104256525Y60013368D01*
X104463368Y59806525D01*
X104637760Y59690000D01*
X104463368Y59573475D01*
X104304520Y59414627D01*
X87601959Y76117187D01*
X87578938Y76145238D01*
X87467020Y76237087D01*
X87339333Y76305337D01*
X87200785Y76347365D01*
X87092805Y76358000D01*
X87056700Y76361556D01*
X87020595Y76358000D01*
X78116053Y76358000D01*
X78042305Y76407277D01*
X77881245Y76473990D01*
X77710265Y76508000D01*
X77535935Y76508000D01*
X77364955Y76473990D01*
X77203895Y76407277D01*
X77058945Y76310424D01*
X76935676Y76187155D01*
X76838823Y76042205D01*
X76772110Y75881145D01*
X76738100Y75710165D01*
X76738100Y75535835D01*
X76772110Y75364855D01*
X76838823Y75203795D01*
X76935676Y75058845D01*
X77058945Y74935576D01*
X77203895Y74838723D01*
X77364955Y74772010D01*
X77535935Y74738000D01*
X77710265Y74738000D01*
X77881245Y74772010D01*
X78042305Y74838723D01*
X78116053Y74888000D01*
X86752254Y74888000D01*
X103714446Y57925807D01*
X103737462Y57897762D01*
X103849380Y57805913D01*
X103977067Y57737663D01*
X104106078Y57698528D01*
X104256525Y57473368D01*
X104463368Y57266525D01*
X104637760Y57150000D01*
X104463368Y57033475D01*
X104256525Y56826632D01*
X104094010Y56583411D01*
X103982068Y56313158D01*
X103925000Y56026260D01*
X103925000Y55733740D01*
X103982068Y55446842D01*
X104094010Y55176589D01*
X104256525Y54933368D01*
X104463368Y54726525D01*
X104637760Y54610000D01*
X104463368Y54493475D01*
X104256525Y54286632D01*
X104094010Y54043411D01*
X103982068Y53773158D01*
X103925000Y53486260D01*
X103925000Y53193740D01*
X103982068Y52906842D01*
X104094010Y52636589D01*
X104256525Y52393368D01*
X104463368Y52186525D01*
X104706589Y52024010D01*
X104976842Y51912068D01*
X105263740Y51855000D01*
X105556260Y51855000D01*
X105843158Y51912068D01*
X106113411Y52024010D01*
X106356632Y52186525D01*
X106488487Y52318380D01*
X106510498Y52245820D01*
X106569463Y52135506D01*
X106648815Y52038815D01*
X106745506Y51959463D01*
X106855820Y51900498D01*
X106975518Y51864188D01*
X107100000Y51851928D01*
X108800000Y51851928D01*
X108924482Y51864188D01*
X109044180Y51900498D01*
X109154494Y51959463D01*
X109251185Y52038815D01*
X109330537Y52135506D01*
X109389502Y52245820D01*
X109425812Y52365518D01*
X109438072Y52490000D01*
X109438072Y54190000D01*
X109425812Y54314482D01*
X109389502Y54434180D01*
X109330537Y54544494D01*
X109251185Y54641185D01*
X109154494Y54720537D01*
X109044180Y54779502D01*
X108971620Y54801513D01*
X109103475Y54933368D01*
X109265990Y55176589D01*
X109377932Y55446842D01*
X109435000Y55733740D01*
X109435000Y56026260D01*
X109377932Y56313158D01*
X109265990Y56583411D01*
X109103475Y56826632D01*
X108896632Y57033475D01*
X108722240Y57150000D01*
X108896632Y57266525D01*
X109103475Y57473368D01*
X109265990Y57716589D01*
X109377932Y57986842D01*
X109435000Y58273740D01*
X109435000Y58566260D01*
X109377932Y58853158D01*
X109265990Y59123411D01*
X109103475Y59366632D01*
X108896632Y59573475D01*
X108722240Y59690000D01*
X108896632Y59806525D01*
X109103475Y60013368D01*
X109265990Y60256589D01*
X109377932Y60526842D01*
X109435000Y60813740D01*
X109435000Y61106260D01*
X109377932Y61393158D01*
X109265990Y61663411D01*
X109103475Y61906632D01*
X108896632Y62113475D01*
X108722240Y62230000D01*
X108896632Y62346525D01*
X109103475Y62553368D01*
X109265990Y62796589D01*
X109377932Y63066842D01*
X109435000Y63353740D01*
X109435000Y63646260D01*
X109377932Y63933158D01*
X109265990Y64203411D01*
X109103475Y64446632D01*
X108896632Y64653475D01*
X108722240Y64770000D01*
X108896632Y64886525D01*
X109103475Y65093368D01*
X109265990Y65336589D01*
X109377932Y65606842D01*
X109435000Y65893740D01*
X109435000Y66186260D01*
X109377932Y66473158D01*
X109265990Y66743411D01*
X109103475Y66986632D01*
X108896632Y67193475D01*
X108722240Y67310000D01*
X108896632Y67426525D01*
X109103475Y67633368D01*
X109265990Y67876589D01*
X109377932Y68146842D01*
X109435000Y68433740D01*
X109435000Y68726260D01*
X109377932Y69013158D01*
X109265990Y69283411D01*
X109103475Y69526632D01*
X108896632Y69733475D01*
X108722240Y69850000D01*
X108896632Y69966525D01*
X109103475Y70173368D01*
X109265990Y70416589D01*
X109377932Y70686842D01*
X109435000Y70973740D01*
X109435000Y71266260D01*
X109377932Y71553158D01*
X109265990Y71823411D01*
X109103475Y72066632D01*
X108896632Y72273475D01*
X108722240Y72390000D01*
X108896632Y72506525D01*
X109103475Y72713368D01*
X109265990Y72956589D01*
X109377932Y73226842D01*
X109435000Y73513740D01*
X109435000Y73806260D01*
X109377932Y74093158D01*
X109265990Y74363411D01*
X109103475Y74606632D01*
X108896632Y74813475D01*
X108722240Y74930000D01*
X108896632Y75046525D01*
X109103475Y75253368D01*
X109265990Y75496589D01*
X109377932Y75766842D01*
X109435000Y76053740D01*
X109435000Y76346260D01*
X109377932Y76633158D01*
X109265990Y76903411D01*
X109103475Y77146632D01*
X108896632Y77353475D01*
X108722240Y77470000D01*
X108896632Y77586525D01*
X109103475Y77793368D01*
X109265990Y78036589D01*
X109377932Y78306842D01*
X109435000Y78593740D01*
X109435000Y78886260D01*
X109377932Y79173158D01*
X109265990Y79443411D01*
X109103475Y79686632D01*
X108896632Y79893475D01*
X108722240Y80010000D01*
X108896632Y80126525D01*
X109103475Y80333368D01*
X109265990Y80576589D01*
X109377932Y80846842D01*
X109435000Y81133740D01*
X109435000Y81426260D01*
X109377932Y81713158D01*
X109265990Y81983411D01*
X109103475Y82226632D01*
X108896632Y82433475D01*
X108722240Y82550000D01*
X108896632Y82666525D01*
X109103475Y82873368D01*
X109265990Y83116589D01*
X109377932Y83386842D01*
X109435000Y83673740D01*
X109435000Y83966260D01*
X109377932Y84253158D01*
X109265990Y84523411D01*
X109103475Y84766632D01*
X108896632Y84973475D01*
X108722240Y85090000D01*
X108896632Y85206525D01*
X109103475Y85413368D01*
X109265990Y85656589D01*
X109377932Y85926842D01*
X109435000Y86213740D01*
X109435000Y86506260D01*
X109377932Y86793158D01*
X109265990Y87063411D01*
X109103475Y87306632D01*
X108896632Y87513475D01*
X108722240Y87630000D01*
X108896632Y87746525D01*
X109103475Y87953368D01*
X109265990Y88196589D01*
X109377932Y88466842D01*
X109435000Y88753740D01*
X109435000Y89046260D01*
X109377932Y89333158D01*
X109265990Y89603411D01*
X109103475Y89846632D01*
X108896632Y90053475D01*
X108653411Y90215990D01*
X108383158Y90327932D01*
X108096260Y90385000D01*
X107803740Y90385000D01*
X107516842Y90327932D01*
X107246589Y90215990D01*
X107003368Y90053475D01*
X106796525Y89846632D01*
X106680000Y89672240D01*
X106563475Y89846632D01*
X106356632Y90053475D01*
X106113411Y90215990D01*
X105843158Y90327932D01*
X105556260Y90385000D01*
X105263740Y90385000D01*
X104976842Y90327932D01*
X104706589Y90215990D01*
X104463368Y90053475D01*
X104256525Y89846632D01*
X104094010Y89603411D01*
X103982068Y89333158D01*
X103925000Y89046260D01*
X103925000Y88753740D01*
X103982068Y88466842D01*
X104094010Y88196589D01*
X104256525Y87953368D01*
X104463368Y87746525D01*
X104637760Y87630000D01*
X104463368Y87513475D01*
X104256525Y87306632D01*
X104094010Y87063411D01*
X103982068Y86793158D01*
X103925000Y86506260D01*
X103925000Y86213740D01*
X103982068Y85926842D01*
X104094010Y85656589D01*
X104256525Y85413368D01*
X104463368Y85206525D01*
X104637760Y85090000D01*
X104463368Y84973475D01*
X104256525Y84766632D01*
X104094010Y84523411D01*
X103982068Y84253158D01*
X103925000Y83966260D01*
X103925000Y83673740D01*
X103982068Y83386842D01*
X104094010Y83116589D01*
X104256525Y82873368D01*
X104463368Y82666525D01*
X104637760Y82550000D01*
X104463368Y82433475D01*
X104256525Y82226632D01*
X104094010Y81983411D01*
X103982068Y81713158D01*
X103925000Y81426260D01*
X103925000Y81133740D01*
X103982068Y80846842D01*
X104094010Y80576589D01*
X104256525Y80333368D01*
X104463368Y80126525D01*
X104637760Y80010000D01*
X104463368Y79893475D01*
X104256525Y79686632D01*
X104094010Y79443411D01*
X103982068Y79173158D01*
X103925000Y78886260D01*
X103925000Y78593740D01*
X103982068Y78306842D01*
X104094010Y78036589D01*
X104256525Y77793368D01*
X104463368Y77586525D01*
X104637760Y77470000D01*
X104463368Y77353475D01*
X104256525Y77146632D01*
X104094010Y76903411D01*
X103982068Y76633158D01*
X103925000Y76346260D01*
X103925000Y76053740D01*
X103982068Y75766842D01*
X104094010Y75496589D01*
X104256525Y75253368D01*
X104463368Y75046525D01*
X104637760Y74930000D01*
X104463368Y74813475D01*
X104256525Y74606632D01*
X104094010Y74363411D01*
X103982068Y74093158D01*
X103925000Y73806260D01*
X103925000Y73513740D01*
X103982068Y73226842D01*
X104094010Y72956589D01*
X104256525Y72713368D01*
X104463368Y72506525D01*
X104637760Y72390000D01*
X104598907Y72364040D01*
X83606094Y93356852D01*
X83588790Y93443845D01*
X83522077Y93604905D01*
X83425224Y93749855D01*
X83301955Y93873124D01*
X83157005Y93969977D01*
X82995945Y94036690D01*
X82824965Y94070700D01*
X82650635Y94070700D01*
X82479655Y94036690D01*
X82318595Y93969977D01*
X82173645Y93873124D01*
X82096334Y93795813D01*
X78475000Y97417146D01*
X78475000Y127220128D01*
X108765000Y127220128D01*
X108765000Y126779872D01*
X108850890Y126348075D01*
X109019369Y125941331D01*
X109263962Y125575271D01*
X109575271Y125263962D01*
X109941331Y125019369D01*
X110348075Y124850890D01*
X110779872Y124765000D01*
X111220128Y124765000D01*
X111651925Y124850890D01*
X112058669Y125019369D01*
X112424729Y125263962D01*
X112736038Y125575271D01*
X112980631Y125941331D01*
X113149110Y126348075D01*
X113235000Y126779872D01*
X113235000Y127220128D01*
X113149110Y127651925D01*
X112980631Y128058669D01*
X112736038Y128424729D01*
X112424729Y128736038D01*
X112058669Y128980631D01*
X111651925Y129149110D01*
X111220128Y129235000D01*
X110779872Y129235000D01*
X110348075Y129149110D01*
X109941331Y128980631D01*
X109575271Y128736038D01*
X109263962Y128424729D01*
X109019369Y128058669D01*
X108850890Y127651925D01*
X108765000Y127220128D01*
X78475000Y127220128D01*
X78475000Y131373000D01*
X114873000Y131373000D01*
X114873000Y660000D01*
X660000Y660000D01*
X660000Y5220128D01*
X1765000Y5220128D01*
X1765000Y4779872D01*
X1850890Y4348075D01*
X2019369Y3941331D01*
X2263962Y3575271D01*
X2575271Y3263962D01*
X2941331Y3019369D01*
X3348075Y2850890D01*
X3779872Y2765000D01*
X4220128Y2765000D01*
X4651925Y2850890D01*
X5058669Y3019369D01*
X5424729Y3263962D01*
X5736038Y3575271D01*
X5980631Y3941331D01*
X6149110Y4348075D01*
X6235000Y4779872D01*
X6235000Y4972260D01*
X39679000Y4972260D01*
X39679000Y4679740D01*
X39736068Y4392842D01*
X39848010Y4122589D01*
X40010525Y3879368D01*
X40217368Y3672525D01*
X40391760Y3556000D01*
X40217368Y3439475D01*
X40010525Y3232632D01*
X39848010Y2989411D01*
X39736068Y2719158D01*
X39679000Y2432260D01*
X39679000Y2139740D01*
X39736068Y1852842D01*
X39848010Y1582589D01*
X40010525Y1339368D01*
X40217368Y1132525D01*
X40460589Y970010D01*
X40730842Y858068D01*
X41017740Y801000D01*
X41310260Y801000D01*
X41597158Y858068D01*
X41867411Y970010D01*
X42110632Y1132525D01*
X42317475Y1339368D01*
X42479990Y1582589D01*
X42591932Y1852842D01*
X42649000Y2139740D01*
X42649000Y2432260D01*
X42591932Y2719158D01*
X42479990Y2989411D01*
X42317475Y3232632D01*
X42110632Y3439475D01*
X41936240Y3556000D01*
X42110632Y3672525D01*
X42317475Y3879368D01*
X42479990Y4122589D01*
X42591932Y4392842D01*
X42649000Y4679740D01*
X42649000Y4972260D01*
X59999000Y4972260D01*
X59999000Y4679740D01*
X60056068Y4392842D01*
X60168010Y4122589D01*
X60330525Y3879368D01*
X60537368Y3672525D01*
X60711760Y3556000D01*
X60537368Y3439475D01*
X60330525Y3232632D01*
X60168010Y2989411D01*
X60056068Y2719158D01*
X59999000Y2432260D01*
X59999000Y2139740D01*
X60056068Y1852842D01*
X60168010Y1582589D01*
X60330525Y1339368D01*
X60537368Y1132525D01*
X60780589Y970010D01*
X61050842Y858068D01*
X61337740Y801000D01*
X61630260Y801000D01*
X61917158Y858068D01*
X62187411Y970010D01*
X62430632Y1132525D01*
X62637475Y1339368D01*
X62799990Y1582589D01*
X62911932Y1852842D01*
X62969000Y2139740D01*
X62969000Y2432260D01*
X62911932Y2719158D01*
X62799990Y2989411D01*
X62637475Y3232632D01*
X62430632Y3439475D01*
X62256240Y3556000D01*
X62430632Y3672525D01*
X62637475Y3879368D01*
X62799990Y4122589D01*
X62911932Y4392842D01*
X62969000Y4679740D01*
X62969000Y4972260D01*
X62921805Y5209525D01*
X70466000Y5209525D01*
X70466000Y4690475D01*
X70567261Y4181399D01*
X70765893Y3701859D01*
X71054262Y3270285D01*
X71421285Y2903262D01*
X71852859Y2614893D01*
X72332399Y2416261D01*
X72841475Y2315000D01*
X73360525Y2315000D01*
X73869601Y2416261D01*
X74349141Y2614893D01*
X74780715Y2903262D01*
X75147738Y3270285D01*
X75436107Y3701859D01*
X75634739Y4181399D01*
X75736000Y4690475D01*
X75736000Y5209525D01*
X75634739Y5718601D01*
X75436107Y6198141D01*
X75147738Y6629715D01*
X74780715Y6996738D01*
X74349141Y7285107D01*
X73869601Y7483739D01*
X73360525Y7585000D01*
X72841475Y7585000D01*
X72332399Y7483739D01*
X71852859Y7285107D01*
X71421285Y6996738D01*
X71054262Y6629715D01*
X70765893Y6198141D01*
X70567261Y5718601D01*
X70466000Y5209525D01*
X62921805Y5209525D01*
X62911932Y5259158D01*
X62799990Y5529411D01*
X62637475Y5772632D01*
X62430632Y5979475D01*
X62187411Y6141990D01*
X61917158Y6253932D01*
X61630260Y6311000D01*
X61337740Y6311000D01*
X61050842Y6253932D01*
X60780589Y6141990D01*
X60537368Y5979475D01*
X60330525Y5772632D01*
X60168010Y5529411D01*
X60056068Y5259158D01*
X59999000Y4972260D01*
X42649000Y4972260D01*
X42591932Y5259158D01*
X42479990Y5529411D01*
X42317475Y5772632D01*
X42110632Y5979475D01*
X41867411Y6141990D01*
X41597158Y6253932D01*
X41310260Y6311000D01*
X41017740Y6311000D01*
X40730842Y6253932D01*
X40460589Y6141990D01*
X40217368Y5979475D01*
X40010525Y5772632D01*
X39848010Y5529411D01*
X39736068Y5259158D01*
X39679000Y4972260D01*
X6235000Y4972260D01*
X6235000Y5220128D01*
X6149110Y5651925D01*
X5980631Y6058669D01*
X5736038Y6424729D01*
X5424729Y6736038D01*
X5058669Y6980631D01*
X4651925Y7149110D01*
X4220128Y7235000D01*
X3779872Y7235000D01*
X3348075Y7149110D01*
X2941331Y6980631D01*
X2575271Y6736038D01*
X2263962Y6424729D01*
X2019369Y6058669D01*
X1850890Y5651925D01*
X1765000Y5220128D01*
X660000Y5220128D01*
X660000Y12333335D01*
X12297000Y12333335D01*
X12297000Y12050665D01*
X12352147Y11773426D01*
X12460320Y11512273D01*
X12617363Y11277241D01*
X12817241Y11077363D01*
X13052273Y10920320D01*
X13313426Y10812147D01*
X13590665Y10757000D01*
X13873335Y10757000D01*
X14150574Y10812147D01*
X14411727Y10920320D01*
X14646759Y11077363D01*
X14846637Y11277241D01*
X15003680Y11512273D01*
X15111853Y11773426D01*
X15167000Y12050665D01*
X15167000Y12333335D01*
X15111853Y12610574D01*
X15003680Y12871727D01*
X14846637Y13106759D01*
X14646759Y13306637D01*
X14411727Y13463680D01*
X14401135Y13468067D01*
X14587131Y13579615D01*
X14795519Y13768586D01*
X14963037Y13994580D01*
X15083246Y14248913D01*
X15123904Y14382961D01*
X15001915Y14605000D01*
X13859000Y14605000D01*
X13859000Y14585000D01*
X13605000Y14585000D01*
X13605000Y14605000D01*
X12462085Y14605000D01*
X12340096Y14382961D01*
X12380754Y14248913D01*
X12500963Y13994580D01*
X12668481Y13768586D01*
X12876869Y13579615D01*
X13062865Y13468067D01*
X13052273Y13463680D01*
X12817241Y13306637D01*
X12617363Y13106759D01*
X12460320Y12871727D01*
X12352147Y12610574D01*
X12297000Y12333335D01*
X660000Y12333335D01*
X660000Y90976298D01*
X7011903Y90976298D01*
X7083486Y90732329D01*
X7338996Y90611429D01*
X7613184Y90542700D01*
X7895512Y90528783D01*
X8175130Y90570213D01*
X8441292Y90665397D01*
X8566514Y90732329D01*
X8638097Y90976298D01*
X7825000Y91789395D01*
X7011903Y90976298D01*
X660000Y90976298D01*
X660000Y91898488D01*
X6384783Y91898488D01*
X6426213Y91618870D01*
X6521397Y91352708D01*
X6588329Y91227486D01*
X6832298Y91155903D01*
X7645395Y91969000D01*
X8004605Y91969000D01*
X8817702Y91155903D01*
X9061671Y91227486D01*
X9182571Y91482996D01*
X9251300Y91757184D01*
X9265217Y92039512D01*
X9223787Y92319130D01*
X9128603Y92585292D01*
X9061671Y92710514D01*
X8817702Y92782097D01*
X8004605Y91969000D01*
X7645395Y91969000D01*
X6832298Y92782097D01*
X6588329Y92710514D01*
X6467429Y92455004D01*
X6398700Y92180816D01*
X6384783Y91898488D01*
X660000Y91898488D01*
X660000Y127220128D01*
X1765000Y127220128D01*
X1765000Y126779872D01*
X1850890Y126348075D01*
X2019369Y125941331D01*
X2263962Y125575271D01*
X2575271Y125263962D01*
X2941331Y125019369D01*
X3348075Y124850890D01*
X3779872Y124765000D01*
X4220128Y124765000D01*
X4651925Y124850890D01*
X5058669Y125019369D01*
X5424729Y125263962D01*
X5736038Y125575271D01*
X5980631Y125941331D01*
X6149110Y126348075D01*
X6235000Y126779872D01*
X6235000Y127220128D01*
X6149110Y127651925D01*
X5980631Y128058669D01*
X5736038Y128424729D01*
X5424729Y128736038D01*
X5058669Y128980631D01*
X4651925Y129149110D01*
X4220128Y129235000D01*
X3779872Y129235000D01*
X3348075Y129149110D01*
X2941331Y128980631D01*
X2575271Y128736038D01*
X2263962Y128424729D01*
X2019369Y128058669D01*
X1850890Y127651925D01*
X1765000Y127220128D01*
X660000Y127220128D01*
X660000Y131373000D01*
X26105000Y131373000D01*
X26105001Y125259625D01*
G37*
G04 #@! TD.AperFunction*
D22*
X88964748Y5034142D02*
X88950605Y5020000D01*
X88964748Y5005857D01*
X88785143Y4826252D01*
X88771000Y4840395D01*
X88756858Y4826252D01*
X88577253Y5005857D01*
X88591395Y5020000D01*
X88577253Y5034142D01*
X88756858Y5213747D01*
X88771000Y5199605D01*
X88785143Y5213747D01*
X88964748Y5034142D01*
G04 #@! TA.AperFunction,Conductor*
D23*
G36*
X88964748Y5034142D02*
G01*
X88950605Y5020000D01*
X88964748Y5005857D01*
X88785143Y4826252D01*
X88771000Y4840395D01*
X88756858Y4826252D01*
X88577253Y5005857D01*
X88591395Y5020000D01*
X88577253Y5034142D01*
X88756858Y5213747D01*
X88771000Y5199605D01*
X88785143Y5213747D01*
X88964748Y5034142D01*
G37*
G04 #@! TD.AperFunction*
D22*
X82094748Y5034142D02*
X82080605Y5020000D01*
X82094748Y5005857D01*
X81915143Y4826252D01*
X81901000Y4840395D01*
X81886858Y4826252D01*
X81707253Y5005857D01*
X81721395Y5020000D01*
X81707253Y5034142D01*
X81886858Y5213747D01*
X81901000Y5199605D01*
X81915143Y5213747D01*
X82094748Y5034142D01*
G04 #@! TA.AperFunction,Conductor*
D23*
G36*
X82094748Y5034142D02*
G01*
X82080605Y5020000D01*
X82094748Y5005857D01*
X81915143Y4826252D01*
X81901000Y4840395D01*
X81886858Y4826252D01*
X81707253Y5005857D01*
X81721395Y5020000D01*
X81707253Y5034142D01*
X81886858Y5213747D01*
X81901000Y5199605D01*
X81915143Y5213747D01*
X82094748Y5034142D01*
G37*
G04 #@! TD.AperFunction*
D22*
X72805301Y43674115D02*
X72801744Y43638000D01*
X72815935Y43493915D01*
X72857964Y43355367D01*
X72926214Y43227680D01*
X73018063Y43115762D01*
X73046108Y43092746D01*
X94265729Y21873125D01*
X94135363Y21742759D01*
X93978320Y21507727D01*
X93870147Y21246574D01*
X93815000Y20969335D01*
X93815000Y20686665D01*
X93870147Y20409426D01*
X93978320Y20148273D01*
X94135363Y19913241D01*
X94335241Y19713363D01*
X94570273Y19556320D01*
X94831426Y19448147D01*
X95108665Y19393000D01*
X95391335Y19393000D01*
X95628301Y19440136D01*
X95628301Y8197348D01*
X92500167Y5069214D01*
X92501217Y5090512D01*
X92459787Y5370130D01*
X92364603Y5636292D01*
X92297671Y5761514D01*
X92053702Y5833097D01*
X91240605Y5020000D01*
X91254748Y5005857D01*
X91075143Y4826252D01*
X91061000Y4840395D01*
X91046858Y4826252D01*
X90867253Y5005857D01*
X90881395Y5020000D01*
X90867253Y5034142D01*
X91046858Y5213747D01*
X91061000Y5199605D01*
X91874097Y6012702D01*
X91802514Y6256671D01*
X91547004Y6377571D01*
X91354072Y6425932D01*
X91354072Y7800000D01*
X91341812Y7924482D01*
X91305502Y8044180D01*
X91246537Y8154494D01*
X91167185Y8251185D01*
X91070494Y8330537D01*
X90960180Y8389502D01*
X90840482Y8425812D01*
X90716000Y8438072D01*
X90651000Y8438072D01*
X90651000Y13624252D01*
X90830759Y13744363D01*
X91030637Y13944241D01*
X91187680Y14179273D01*
X91295853Y14440426D01*
X91351000Y14717665D01*
X91351000Y15000335D01*
X91295853Y15277574D01*
X91187680Y15538727D01*
X91030637Y15773759D01*
X90830759Y15973637D01*
X90595727Y16130680D01*
X90334574Y16238853D01*
X90057335Y16294000D01*
X89774665Y16294000D01*
X89497426Y16238853D01*
X89236273Y16130680D01*
X89001241Y15973637D01*
X88801363Y15773759D01*
X88644320Y15538727D01*
X88536147Y15277574D01*
X88481000Y15000335D01*
X88481000Y14717665D01*
X88536147Y14440426D01*
X88644320Y14179273D01*
X88801363Y13944241D01*
X89001241Y13744363D01*
X89181000Y13624252D01*
X89181001Y8438072D01*
X89116000Y8438072D01*
X88991518Y8425812D01*
X88871820Y8389502D01*
X88761506Y8330537D01*
X88664815Y8251185D01*
X88585463Y8154494D01*
X88556008Y8099388D01*
X88540759Y8114637D01*
X88361000Y8234748D01*
X88361000Y19590579D01*
X88544759Y19713363D01*
X88744637Y19913241D01*
X88901680Y20148273D01*
X89009853Y20409426D01*
X89065000Y20686665D01*
X89065000Y20969335D01*
X89009853Y21246574D01*
X88901680Y21507727D01*
X88744637Y21742759D01*
X88544759Y21942637D01*
X88309727Y22099680D01*
X88048574Y22207853D01*
X87771335Y22263000D01*
X87488665Y22263000D01*
X87211426Y22207853D01*
X86950273Y22099680D01*
X86715241Y21942637D01*
X86515363Y21742759D01*
X86358320Y21507727D01*
X86250147Y21246574D01*
X86195000Y20969335D01*
X86195000Y20686665D01*
X86250147Y20409426D01*
X86358320Y20148273D01*
X86515363Y19913241D01*
X86715241Y19713363D01*
X86891000Y19595925D01*
X86891001Y8234748D01*
X86711241Y8114637D01*
X86511363Y7914759D01*
X86481000Y7869317D01*
X86450637Y7914759D01*
X86250759Y8114637D01*
X86071000Y8234748D01*
X86071000Y25429907D01*
X86258759Y25555363D01*
X86458637Y25755241D01*
X86615680Y25990273D01*
X86723853Y26251426D01*
X86779000Y26528665D01*
X86779000Y26811335D01*
X86723853Y27088574D01*
X86615680Y27349727D01*
X86458637Y27584759D01*
X86258759Y27784637D01*
X86023727Y27941680D01*
X85762574Y28049853D01*
X85485335Y28105000D01*
X85202665Y28105000D01*
X84925426Y28049853D01*
X84664273Y27941680D01*
X84429241Y27784637D01*
X84229363Y27584759D01*
X84072320Y27349727D01*
X83964147Y27088574D01*
X83909000Y26811335D01*
X83909000Y26528665D01*
X83964147Y26251426D01*
X84072320Y25990273D01*
X84229363Y25755241D01*
X84429241Y25555363D01*
X84601000Y25440598D01*
X84601001Y10660646D01*
X71735300Y23526346D01*
X71735300Y51851928D01*
X72805301Y51851928D01*
X72805301Y43674115D01*
G04 #@! TA.AperFunction,Conductor*
D23*
G36*
X72805301Y43674115D02*
G01*
X72801744Y43638000D01*
X72815935Y43493915D01*
X72857964Y43355367D01*
X72926214Y43227680D01*
X73018063Y43115762D01*
X73046108Y43092746D01*
X94265729Y21873125D01*
X94135363Y21742759D01*
X93978320Y21507727D01*
X93870147Y21246574D01*
X93815000Y20969335D01*
X93815000Y20686665D01*
X93870147Y20409426D01*
X93978320Y20148273D01*
X94135363Y19913241D01*
X94335241Y19713363D01*
X94570273Y19556320D01*
X94831426Y19448147D01*
X95108665Y19393000D01*
X95391335Y19393000D01*
X95628301Y19440136D01*
X95628301Y8197348D01*
X92500167Y5069214D01*
X92501217Y5090512D01*
X92459787Y5370130D01*
X92364603Y5636292D01*
X92297671Y5761514D01*
X92053702Y5833097D01*
X91240605Y5020000D01*
X91254748Y5005857D01*
X91075143Y4826252D01*
X91061000Y4840395D01*
X91046858Y4826252D01*
X90867253Y5005857D01*
X90881395Y5020000D01*
X90867253Y5034142D01*
X91046858Y5213747D01*
X91061000Y5199605D01*
X91874097Y6012702D01*
X91802514Y6256671D01*
X91547004Y6377571D01*
X91354072Y6425932D01*
X91354072Y7800000D01*
X91341812Y7924482D01*
X91305502Y8044180D01*
X91246537Y8154494D01*
X91167185Y8251185D01*
X91070494Y8330537D01*
X90960180Y8389502D01*
X90840482Y8425812D01*
X90716000Y8438072D01*
X90651000Y8438072D01*
X90651000Y13624252D01*
X90830759Y13744363D01*
X91030637Y13944241D01*
X91187680Y14179273D01*
X91295853Y14440426D01*
X91351000Y14717665D01*
X91351000Y15000335D01*
X91295853Y15277574D01*
X91187680Y15538727D01*
X91030637Y15773759D01*
X90830759Y15973637D01*
X90595727Y16130680D01*
X90334574Y16238853D01*
X90057335Y16294000D01*
X89774665Y16294000D01*
X89497426Y16238853D01*
X89236273Y16130680D01*
X89001241Y15973637D01*
X88801363Y15773759D01*
X88644320Y15538727D01*
X88536147Y15277574D01*
X88481000Y15000335D01*
X88481000Y14717665D01*
X88536147Y14440426D01*
X88644320Y14179273D01*
X88801363Y13944241D01*
X89001241Y13744363D01*
X89181000Y13624252D01*
X89181001Y8438072D01*
X89116000Y8438072D01*
X88991518Y8425812D01*
X88871820Y8389502D01*
X88761506Y8330537D01*
X88664815Y8251185D01*
X88585463Y8154494D01*
X88556008Y8099388D01*
X88540759Y8114637D01*
X88361000Y8234748D01*
X88361000Y19590579D01*
X88544759Y19713363D01*
X88744637Y19913241D01*
X88901680Y20148273D01*
X89009853Y20409426D01*
X89065000Y20686665D01*
X89065000Y20969335D01*
X89009853Y21246574D01*
X88901680Y21507727D01*
X88744637Y21742759D01*
X88544759Y21942637D01*
X88309727Y22099680D01*
X88048574Y22207853D01*
X87771335Y22263000D01*
X87488665Y22263000D01*
X87211426Y22207853D01*
X86950273Y22099680D01*
X86715241Y21942637D01*
X86515363Y21742759D01*
X86358320Y21507727D01*
X86250147Y21246574D01*
X86195000Y20969335D01*
X86195000Y20686665D01*
X86250147Y20409426D01*
X86358320Y20148273D01*
X86515363Y19913241D01*
X86715241Y19713363D01*
X86891000Y19595925D01*
X86891001Y8234748D01*
X86711241Y8114637D01*
X86511363Y7914759D01*
X86481000Y7869317D01*
X86450637Y7914759D01*
X86250759Y8114637D01*
X86071000Y8234748D01*
X86071000Y25429907D01*
X86258759Y25555363D01*
X86458637Y25755241D01*
X86615680Y25990273D01*
X86723853Y26251426D01*
X86779000Y26528665D01*
X86779000Y26811335D01*
X86723853Y27088574D01*
X86615680Y27349727D01*
X86458637Y27584759D01*
X86258759Y27784637D01*
X86023727Y27941680D01*
X85762574Y28049853D01*
X85485335Y28105000D01*
X85202665Y28105000D01*
X84925426Y28049853D01*
X84664273Y27941680D01*
X84429241Y27784637D01*
X84229363Y27584759D01*
X84072320Y27349727D01*
X83964147Y27088574D01*
X83909000Y26811335D01*
X83909000Y26528665D01*
X83964147Y26251426D01*
X84072320Y25990273D01*
X84229363Y25755241D01*
X84429241Y25555363D01*
X84601000Y25440598D01*
X84601001Y10660646D01*
X71735300Y23526346D01*
X71735300Y51851928D01*
X72805301Y51851928D01*
X72805301Y43674115D01*
G37*
G04 #@! TD.AperFunction*
D22*
X86674748Y5034142D02*
X86660605Y5020000D01*
X86674748Y5005857D01*
X86495143Y4826252D01*
X86481000Y4840395D01*
X86466858Y4826252D01*
X86287253Y5005857D01*
X86301395Y5020000D01*
X86287253Y5034142D01*
X86466858Y5213747D01*
X86481000Y5199605D01*
X86495143Y5213747D01*
X86674748Y5034142D01*
G04 #@! TA.AperFunction,Conductor*
D23*
G36*
X86674748Y5034142D02*
G01*
X86660605Y5020000D01*
X86674748Y5005857D01*
X86495143Y4826252D01*
X86481000Y4840395D01*
X86466858Y4826252D01*
X86287253Y5005857D01*
X86301395Y5020000D01*
X86287253Y5034142D01*
X86466858Y5213747D01*
X86481000Y5199605D01*
X86495143Y5213747D01*
X86674748Y5034142D01*
G37*
G04 #@! TD.AperFunction*
D22*
X40346068Y70426899D02*
X40525393Y70208392D01*
X40743900Y70029068D01*
X40993193Y69895818D01*
X41263692Y69813764D01*
X41545000Y69786057D01*
X41826309Y69813764D01*
X41993601Y69864511D01*
X41993600Y58151489D01*
X41826308Y58202236D01*
X41545000Y58229943D01*
X41263691Y58202236D01*
X40993192Y58120182D01*
X40743899Y57986932D01*
X40525392Y57807607D01*
X40346068Y57589100D01*
X40275000Y57456142D01*
X40203932Y57589101D01*
X40024607Y57807608D01*
X39806100Y57986932D01*
X39556807Y58120182D01*
X39286308Y58202236D01*
X39005000Y58229943D01*
X38723691Y58202236D01*
X38453192Y58120182D01*
X38203899Y57986932D01*
X37985392Y57807607D01*
X37806068Y57589100D01*
X37735000Y57456142D01*
X37663932Y57589101D01*
X37484607Y57807608D01*
X37266100Y57986932D01*
X37016807Y58120182D01*
X36746308Y58202236D01*
X36465000Y58229943D01*
X36183691Y58202236D01*
X35913192Y58120182D01*
X35663899Y57986932D01*
X35445392Y57807607D01*
X35266068Y57589100D01*
X35195000Y57456142D01*
X35123932Y57589101D01*
X34944607Y57807608D01*
X34726100Y57986932D01*
X34476807Y58120182D01*
X34206308Y58202236D01*
X33925000Y58229943D01*
X33643691Y58202236D01*
X33373192Y58120182D01*
X33123899Y57986932D01*
X32905392Y57807607D01*
X32726068Y57589100D01*
X32655000Y57456142D01*
X32583932Y57589101D01*
X32404607Y57807608D01*
X32186100Y57986932D01*
X31936807Y58120182D01*
X31666308Y58202236D01*
X31385000Y58229943D01*
X31103691Y58202236D01*
X30833192Y58120182D01*
X30583899Y57986932D01*
X30365392Y57807607D01*
X30186068Y57589100D01*
X30115000Y57456142D01*
X30043932Y57589101D01*
X29864607Y57807608D01*
X29646100Y57986932D01*
X29396807Y58120182D01*
X29126308Y58202236D01*
X28845000Y58229943D01*
X28563691Y58202236D01*
X28293192Y58120182D01*
X28043899Y57986932D01*
X27825392Y57807607D01*
X27646068Y57589100D01*
X27575000Y57456142D01*
X27503932Y57589101D01*
X27324607Y57807608D01*
X27106100Y57986932D01*
X26856807Y58120182D01*
X26586308Y58202236D01*
X26305000Y58229943D01*
X26023691Y58202236D01*
X25753192Y58120182D01*
X25503899Y57986932D01*
X25285392Y57807607D01*
X25106068Y57589100D01*
X25037735Y57461258D01*
X24887601Y57690839D01*
X24689895Y57892500D01*
X24456646Y58051715D01*
X24196818Y58162367D01*
X24114039Y58179904D01*
X23892000Y58057915D01*
X23892000Y56515000D01*
X23912000Y56515000D01*
X23912000Y56261000D01*
X23892000Y56261000D01*
X23892000Y54718085D01*
X24114039Y54596096D01*
X24196818Y54613633D01*
X24456646Y54724285D01*
X24689895Y54883500D01*
X24887601Y55085161D01*
X25037735Y55314741D01*
X25106068Y55186899D01*
X25285393Y54968392D01*
X25503900Y54789068D01*
X25753193Y54655818D01*
X26023692Y54573764D01*
X26305000Y54546057D01*
X26586309Y54573764D01*
X26856808Y54655818D01*
X27106101Y54789068D01*
X27324608Y54968392D01*
X27503932Y55186899D01*
X27575000Y55319858D01*
X27646068Y55186899D01*
X27825393Y54968392D01*
X28043900Y54789068D01*
X28293193Y54655818D01*
X28563692Y54573764D01*
X28845000Y54546057D01*
X29126309Y54573764D01*
X29396808Y54655818D01*
X29646101Y54789068D01*
X29864608Y54968392D01*
X30043932Y55186899D01*
X30115000Y55319858D01*
X30186068Y55186899D01*
X30365393Y54968392D01*
X30583900Y54789068D01*
X30650001Y54753736D01*
X30650000Y47641547D01*
X17514240Y34505787D01*
X17386637Y34696759D01*
X17186759Y34896637D01*
X16951727Y35053680D01*
X16690574Y35161853D01*
X16413335Y35217000D01*
X16130665Y35217000D01*
X15853426Y35161853D01*
X15592273Y35053680D01*
X15357241Y34896637D01*
X15157363Y34696759D01*
X15106646Y34620856D01*
X15111853Y34633426D01*
X15167000Y34910665D01*
X15167000Y35193335D01*
X15111853Y35470574D01*
X15003680Y35731727D01*
X14846637Y35966759D01*
X14646759Y36166637D01*
X14414241Y36322000D01*
X14646759Y36477363D01*
X14846637Y36677241D01*
X15003680Y36912273D01*
X15111853Y37173426D01*
X15167000Y37450665D01*
X15167000Y37733335D01*
X15111853Y38010574D01*
X15003680Y38271727D01*
X14846637Y38506759D01*
X14646759Y38706637D01*
X14414241Y38862000D01*
X14646759Y39017363D01*
X14846637Y39217241D01*
X15003680Y39452273D01*
X15111853Y39713426D01*
X15167000Y39990665D01*
X15167000Y40273335D01*
X15111853Y40550574D01*
X15003680Y40811727D01*
X14846637Y41046759D01*
X14646759Y41246637D01*
X14411727Y41403680D01*
X14150574Y41511853D01*
X13873335Y41567000D01*
X13590665Y41567000D01*
X13362000Y41521515D01*
X13362000Y51065254D01*
X16639193Y54342446D01*
X16667238Y54365462D01*
X16759087Y54477380D01*
X16827337Y54605067D01*
X16869365Y54743615D01*
X16869826Y54748298D01*
X16946101Y54789068D01*
X17164608Y54968392D01*
X17343932Y55186899D01*
X17415000Y55319858D01*
X17486068Y55186899D01*
X17665393Y54968392D01*
X17883900Y54789068D01*
X18133193Y54655818D01*
X18403692Y54573764D01*
X18685000Y54546057D01*
X18966309Y54573764D01*
X19236808Y54655818D01*
X19486101Y54789068D01*
X19704608Y54968392D01*
X19883932Y55186899D01*
X19955000Y55319858D01*
X20026068Y55186899D01*
X20205393Y54968392D01*
X20423900Y54789068D01*
X20673193Y54655818D01*
X20943692Y54573764D01*
X21225000Y54546057D01*
X21506309Y54573764D01*
X21776808Y54655818D01*
X22026101Y54789068D01*
X22244608Y54968392D01*
X22423932Y55186899D01*
X22492265Y55314741D01*
X22642399Y55085161D01*
X22840105Y54883500D01*
X23073354Y54724285D01*
X23333182Y54613633D01*
X23415961Y54596096D01*
X23638000Y54718085D01*
X23638000Y56261000D01*
X23618000Y56261000D01*
X23618000Y56515000D01*
X23638000Y56515000D01*
X23638000Y58057915D01*
X23415961Y58179904D01*
X23333182Y58162367D01*
X23073354Y58051715D01*
X22840105Y57892500D01*
X22642399Y57690839D01*
X22492265Y57461259D01*
X22423932Y57589101D01*
X22244607Y57807608D01*
X22211184Y57835038D01*
X22914297Y58538150D01*
X22942337Y58561162D01*
X22965350Y58589203D01*
X22965353Y58589206D01*
X23034187Y58673080D01*
X23102437Y58800766D01*
X23144465Y58939315D01*
X23158656Y59083400D01*
X23155100Y59119505D01*
X23155100Y69926869D01*
X23213193Y69895818D01*
X23483692Y69813764D01*
X23765000Y69786057D01*
X24046309Y69813764D01*
X24316808Y69895818D01*
X24566101Y70029068D01*
X24784608Y70208392D01*
X24963932Y70426899D01*
X25035000Y70559858D01*
X25106068Y70426899D01*
X25285393Y70208392D01*
X25503900Y70029068D01*
X25580174Y69988299D01*
X25580635Y69983615D01*
X25622663Y69845067D01*
X25690913Y69717380D01*
X25782762Y69605462D01*
X25894680Y69513613D01*
X26022367Y69445363D01*
X26160915Y69403335D01*
X26268895Y69392700D01*
X26305000Y69389144D01*
X26341105Y69392700D01*
X29283495Y69392700D01*
X29319600Y69389144D01*
X29355705Y69392700D01*
X29463685Y69403335D01*
X29602233Y69445363D01*
X29729920Y69513613D01*
X29841838Y69605462D01*
X29864858Y69633512D01*
X30406227Y70174880D01*
X30583900Y70029068D01*
X30833193Y69895818D01*
X31103692Y69813764D01*
X31385000Y69786057D01*
X31666309Y69813764D01*
X31936808Y69895818D01*
X32186101Y70029068D01*
X32404608Y70208392D01*
X32583932Y70426899D01*
X32655000Y70559858D01*
X32726068Y70426899D01*
X32905393Y70208392D01*
X33123900Y70029068D01*
X33373193Y69895818D01*
X33643692Y69813764D01*
X33925000Y69786057D01*
X34206309Y69813764D01*
X34476808Y69895818D01*
X34726101Y70029068D01*
X34944608Y70208392D01*
X35123932Y70426899D01*
X35195000Y70559858D01*
X35266068Y70426899D01*
X35445393Y70208392D01*
X35663900Y70029068D01*
X35913193Y69895818D01*
X36183692Y69813764D01*
X36465000Y69786057D01*
X36746309Y69813764D01*
X37016808Y69895818D01*
X37266101Y70029068D01*
X37484608Y70208392D01*
X37663932Y70426899D01*
X37735000Y70559858D01*
X37806068Y70426899D01*
X37985393Y70208392D01*
X38203900Y70029068D01*
X38453193Y69895818D01*
X38723692Y69813764D01*
X39005000Y69786057D01*
X39286309Y69813764D01*
X39556808Y69895818D01*
X39806101Y70029068D01*
X40024608Y70208392D01*
X40203932Y70426899D01*
X40275000Y70559858D01*
X40346068Y70426899D01*
G04 #@! TA.AperFunction,Conductor*
D23*
G36*
X40346068Y70426899D02*
G01*
X40525393Y70208392D01*
X40743900Y70029068D01*
X40993193Y69895818D01*
X41263692Y69813764D01*
X41545000Y69786057D01*
X41826309Y69813764D01*
X41993601Y69864511D01*
X41993600Y58151489D01*
X41826308Y58202236D01*
X41545000Y58229943D01*
X41263691Y58202236D01*
X40993192Y58120182D01*
X40743899Y57986932D01*
X40525392Y57807607D01*
X40346068Y57589100D01*
X40275000Y57456142D01*
X40203932Y57589101D01*
X40024607Y57807608D01*
X39806100Y57986932D01*
X39556807Y58120182D01*
X39286308Y58202236D01*
X39005000Y58229943D01*
X38723691Y58202236D01*
X38453192Y58120182D01*
X38203899Y57986932D01*
X37985392Y57807607D01*
X37806068Y57589100D01*
X37735000Y57456142D01*
X37663932Y57589101D01*
X37484607Y57807608D01*
X37266100Y57986932D01*
X37016807Y58120182D01*
X36746308Y58202236D01*
X36465000Y58229943D01*
X36183691Y58202236D01*
X35913192Y58120182D01*
X35663899Y57986932D01*
X35445392Y57807607D01*
X35266068Y57589100D01*
X35195000Y57456142D01*
X35123932Y57589101D01*
X34944607Y57807608D01*
X34726100Y57986932D01*
X34476807Y58120182D01*
X34206308Y58202236D01*
X33925000Y58229943D01*
X33643691Y58202236D01*
X33373192Y58120182D01*
X33123899Y57986932D01*
X32905392Y57807607D01*
X32726068Y57589100D01*
X32655000Y57456142D01*
X32583932Y57589101D01*
X32404607Y57807608D01*
X32186100Y57986932D01*
X31936807Y58120182D01*
X31666308Y58202236D01*
X31385000Y58229943D01*
X31103691Y58202236D01*
X30833192Y58120182D01*
X30583899Y57986932D01*
X30365392Y57807607D01*
X30186068Y57589100D01*
X30115000Y57456142D01*
X30043932Y57589101D01*
X29864607Y57807608D01*
X29646100Y57986932D01*
X29396807Y58120182D01*
X29126308Y58202236D01*
X28845000Y58229943D01*
X28563691Y58202236D01*
X28293192Y58120182D01*
X28043899Y57986932D01*
X27825392Y57807607D01*
X27646068Y57589100D01*
X27575000Y57456142D01*
X27503932Y57589101D01*
X27324607Y57807608D01*
X27106100Y57986932D01*
X26856807Y58120182D01*
X26586308Y58202236D01*
X26305000Y58229943D01*
X26023691Y58202236D01*
X25753192Y58120182D01*
X25503899Y57986932D01*
X25285392Y57807607D01*
X25106068Y57589100D01*
X25037735Y57461258D01*
X24887601Y57690839D01*
X24689895Y57892500D01*
X24456646Y58051715D01*
X24196818Y58162367D01*
X24114039Y58179904D01*
X23892000Y58057915D01*
X23892000Y56515000D01*
X23912000Y56515000D01*
X23912000Y56261000D01*
X23892000Y56261000D01*
X23892000Y54718085D01*
X24114039Y54596096D01*
X24196818Y54613633D01*
X24456646Y54724285D01*
X24689895Y54883500D01*
X24887601Y55085161D01*
X25037735Y55314741D01*
X25106068Y55186899D01*
X25285393Y54968392D01*
X25503900Y54789068D01*
X25753193Y54655818D01*
X26023692Y54573764D01*
X26305000Y54546057D01*
X26586309Y54573764D01*
X26856808Y54655818D01*
X27106101Y54789068D01*
X27324608Y54968392D01*
X27503932Y55186899D01*
X27575000Y55319858D01*
X27646068Y55186899D01*
X27825393Y54968392D01*
X28043900Y54789068D01*
X28293193Y54655818D01*
X28563692Y54573764D01*
X28845000Y54546057D01*
X29126309Y54573764D01*
X29396808Y54655818D01*
X29646101Y54789068D01*
X29864608Y54968392D01*
X30043932Y55186899D01*
X30115000Y55319858D01*
X30186068Y55186899D01*
X30365393Y54968392D01*
X30583900Y54789068D01*
X30650001Y54753736D01*
X30650000Y47641547D01*
X17514240Y34505787D01*
X17386637Y34696759D01*
X17186759Y34896637D01*
X16951727Y35053680D01*
X16690574Y35161853D01*
X16413335Y35217000D01*
X16130665Y35217000D01*
X15853426Y35161853D01*
X15592273Y35053680D01*
X15357241Y34896637D01*
X15157363Y34696759D01*
X15106646Y34620856D01*
X15111853Y34633426D01*
X15167000Y34910665D01*
X15167000Y35193335D01*
X15111853Y35470574D01*
X15003680Y35731727D01*
X14846637Y35966759D01*
X14646759Y36166637D01*
X14414241Y36322000D01*
X14646759Y36477363D01*
X14846637Y36677241D01*
X15003680Y36912273D01*
X15111853Y37173426D01*
X15167000Y37450665D01*
X15167000Y37733335D01*
X15111853Y38010574D01*
X15003680Y38271727D01*
X14846637Y38506759D01*
X14646759Y38706637D01*
X14414241Y38862000D01*
X14646759Y39017363D01*
X14846637Y39217241D01*
X15003680Y39452273D01*
X15111853Y39713426D01*
X15167000Y39990665D01*
X15167000Y40273335D01*
X15111853Y40550574D01*
X15003680Y40811727D01*
X14846637Y41046759D01*
X14646759Y41246637D01*
X14411727Y41403680D01*
X14150574Y41511853D01*
X13873335Y41567000D01*
X13590665Y41567000D01*
X13362000Y41521515D01*
X13362000Y51065254D01*
X16639193Y54342446D01*
X16667238Y54365462D01*
X16759087Y54477380D01*
X16827337Y54605067D01*
X16869365Y54743615D01*
X16869826Y54748298D01*
X16946101Y54789068D01*
X17164608Y54968392D01*
X17343932Y55186899D01*
X17415000Y55319858D01*
X17486068Y55186899D01*
X17665393Y54968392D01*
X17883900Y54789068D01*
X18133193Y54655818D01*
X18403692Y54573764D01*
X18685000Y54546057D01*
X18966309Y54573764D01*
X19236808Y54655818D01*
X19486101Y54789068D01*
X19704608Y54968392D01*
X19883932Y55186899D01*
X19955000Y55319858D01*
X20026068Y55186899D01*
X20205393Y54968392D01*
X20423900Y54789068D01*
X20673193Y54655818D01*
X20943692Y54573764D01*
X21225000Y54546057D01*
X21506309Y54573764D01*
X21776808Y54655818D01*
X22026101Y54789068D01*
X22244608Y54968392D01*
X22423932Y55186899D01*
X22492265Y55314741D01*
X22642399Y55085161D01*
X22840105Y54883500D01*
X23073354Y54724285D01*
X23333182Y54613633D01*
X23415961Y54596096D01*
X23638000Y54718085D01*
X23638000Y56261000D01*
X23618000Y56261000D01*
X23618000Y56515000D01*
X23638000Y56515000D01*
X23638000Y58057915D01*
X23415961Y58179904D01*
X23333182Y58162367D01*
X23073354Y58051715D01*
X22840105Y57892500D01*
X22642399Y57690839D01*
X22492265Y57461259D01*
X22423932Y57589101D01*
X22244607Y57807608D01*
X22211184Y57835038D01*
X22914297Y58538150D01*
X22942337Y58561162D01*
X22965350Y58589203D01*
X22965353Y58589206D01*
X23034187Y58673080D01*
X23102437Y58800766D01*
X23144465Y58939315D01*
X23158656Y59083400D01*
X23155100Y59119505D01*
X23155100Y69926869D01*
X23213193Y69895818D01*
X23483692Y69813764D01*
X23765000Y69786057D01*
X24046309Y69813764D01*
X24316808Y69895818D01*
X24566101Y70029068D01*
X24784608Y70208392D01*
X24963932Y70426899D01*
X25035000Y70559858D01*
X25106068Y70426899D01*
X25285393Y70208392D01*
X25503900Y70029068D01*
X25580174Y69988299D01*
X25580635Y69983615D01*
X25622663Y69845067D01*
X25690913Y69717380D01*
X25782762Y69605462D01*
X25894680Y69513613D01*
X26022367Y69445363D01*
X26160915Y69403335D01*
X26268895Y69392700D01*
X26305000Y69389144D01*
X26341105Y69392700D01*
X29283495Y69392700D01*
X29319600Y69389144D01*
X29355705Y69392700D01*
X29463685Y69403335D01*
X29602233Y69445363D01*
X29729920Y69513613D01*
X29841838Y69605462D01*
X29864858Y69633512D01*
X30406227Y70174880D01*
X30583900Y70029068D01*
X30833193Y69895818D01*
X31103692Y69813764D01*
X31385000Y69786057D01*
X31666309Y69813764D01*
X31936808Y69895818D01*
X32186101Y70029068D01*
X32404608Y70208392D01*
X32583932Y70426899D01*
X32655000Y70559858D01*
X32726068Y70426899D01*
X32905393Y70208392D01*
X33123900Y70029068D01*
X33373193Y69895818D01*
X33643692Y69813764D01*
X33925000Y69786057D01*
X34206309Y69813764D01*
X34476808Y69895818D01*
X34726101Y70029068D01*
X34944608Y70208392D01*
X35123932Y70426899D01*
X35195000Y70559858D01*
X35266068Y70426899D01*
X35445393Y70208392D01*
X35663900Y70029068D01*
X35913193Y69895818D01*
X36183692Y69813764D01*
X36465000Y69786057D01*
X36746309Y69813764D01*
X37016808Y69895818D01*
X37266101Y70029068D01*
X37484608Y70208392D01*
X37663932Y70426899D01*
X37735000Y70559858D01*
X37806068Y70426899D01*
X37985393Y70208392D01*
X38203900Y70029068D01*
X38453193Y69895818D01*
X38723692Y69813764D01*
X39005000Y69786057D01*
X39286309Y69813764D01*
X39556808Y69895818D01*
X39806101Y70029068D01*
X40024608Y70208392D01*
X40203932Y70426899D01*
X40275000Y70559858D01*
X40346068Y70426899D01*
G37*
G04 #@! TD.AperFunction*
D22*
X68661716Y84714537D02*
X68534010Y84523411D01*
X68422068Y84253158D01*
X68365000Y83966260D01*
X68365000Y83673740D01*
X68422068Y83386842D01*
X68534010Y83116589D01*
X68696525Y82873368D01*
X68903368Y82666525D01*
X69077760Y82550000D01*
X68903368Y82433475D01*
X68696525Y82226632D01*
X68534010Y81983411D01*
X68422068Y81713158D01*
X68365000Y81426260D01*
X68365000Y81133740D01*
X68422068Y80846842D01*
X68534010Y80576589D01*
X68696525Y80333368D01*
X68703223Y80326670D01*
X60885008Y72508454D01*
X60856962Y72485437D01*
X60765113Y72373519D01*
X60696863Y72245832D01*
X60673659Y72169338D01*
X60654835Y72107285D01*
X60640644Y71963200D01*
X60644200Y71927095D01*
X60644201Y67297854D01*
X60606626Y67241620D01*
X59515400Y68332846D01*
X59515400Y71577895D01*
X59518956Y71614000D01*
X59504765Y71758086D01*
X59486252Y71819115D01*
X59462737Y71896633D01*
X59394487Y72024320D01*
X59350517Y72077897D01*
X59325653Y72108194D01*
X59325650Y72108197D01*
X59302637Y72136238D01*
X59274597Y72159250D01*
X57446258Y73987588D01*
X57423238Y74015638D01*
X57311320Y74107487D01*
X57183633Y74175737D01*
X57045085Y74217765D01*
X56937105Y74228400D01*
X56901000Y74231956D01*
X56864895Y74228400D01*
X55760547Y74228400D01*
X49618994Y80369953D01*
X49687377Y80472295D01*
X49754090Y80633355D01*
X49788100Y80804335D01*
X49788100Y80978665D01*
X49754090Y81149645D01*
X49687377Y81310705D01*
X49638100Y81384453D01*
X49638100Y87730388D01*
X49740193Y87675818D01*
X50010692Y87593764D01*
X50292000Y87566057D01*
X50573309Y87593764D01*
X50843808Y87675818D01*
X51093101Y87809068D01*
X51311608Y87988392D01*
X51490932Y88206899D01*
X51562000Y88339858D01*
X51633068Y88206899D01*
X51812393Y87988392D01*
X52030900Y87809068D01*
X52280193Y87675818D01*
X52550692Y87593764D01*
X52832000Y87566057D01*
X53113309Y87593764D01*
X53383808Y87675818D01*
X53633101Y87809068D01*
X53851608Y87988392D01*
X54030932Y88206899D01*
X54099265Y88334741D01*
X54249399Y88105161D01*
X54447105Y87903500D01*
X54680354Y87744285D01*
X54940182Y87633633D01*
X55022961Y87616096D01*
X55245000Y87738085D01*
X55245000Y89281000D01*
X55499000Y89281000D01*
X55499000Y87738085D01*
X55721039Y87616096D01*
X55803818Y87633633D01*
X56063646Y87744285D01*
X56296895Y87903500D01*
X56494601Y88105161D01*
X56649166Y88341517D01*
X56754650Y88603486D01*
X56807000Y88881000D01*
X56807000Y89281000D01*
X55499000Y89281000D01*
X55245000Y89281000D01*
X55225000Y89281000D01*
X55225000Y89535000D01*
X55245000Y89535000D01*
X55245000Y91077915D01*
X55499000Y91077915D01*
X55499000Y89535000D01*
X56807000Y89535000D01*
X56807000Y89935000D01*
X56754650Y90212514D01*
X56649166Y90474483D01*
X56494601Y90710839D01*
X56296895Y90912500D01*
X56063646Y91071715D01*
X55803818Y91182367D01*
X55721039Y91199904D01*
X55499000Y91077915D01*
X55245000Y91077915D01*
X55022961Y91199904D01*
X54940182Y91182367D01*
X54680354Y91071715D01*
X54447105Y90912500D01*
X54249399Y90710839D01*
X54099265Y90481259D01*
X54030932Y90609101D01*
X53851607Y90827608D01*
X53633100Y91006932D01*
X53383807Y91140182D01*
X53113308Y91222236D01*
X52832000Y91249943D01*
X52550691Y91222236D01*
X52280192Y91140182D01*
X52030899Y91006932D01*
X51812392Y90827607D01*
X51633068Y90609100D01*
X51562000Y90476142D01*
X51490932Y90609101D01*
X51311607Y90827608D01*
X51093100Y91006932D01*
X50843807Y91140182D01*
X50573308Y91222236D01*
X50292000Y91249943D01*
X50010691Y91222236D01*
X49740192Y91140182D01*
X49638100Y91085613D01*
X49638100Y92109795D01*
X49641656Y92145900D01*
X49627465Y92289985D01*
X49609171Y92350292D01*
X49585437Y92428533D01*
X49517187Y92556220D01*
X49464462Y92620465D01*
X49448353Y92640094D01*
X49448350Y92640097D01*
X49425337Y92668138D01*
X49397297Y92691150D01*
X47335100Y94753346D01*
X47335100Y95254895D01*
X47470692Y95213764D01*
X47752000Y95186057D01*
X48033309Y95213764D01*
X48303808Y95295818D01*
X48553101Y95429068D01*
X48771608Y95608392D01*
X48950932Y95826899D01*
X49022000Y95959858D01*
X49093068Y95826899D01*
X49272393Y95608392D01*
X49490900Y95429068D01*
X49740193Y95295818D01*
X50010692Y95213764D01*
X50292000Y95186057D01*
X50573309Y95213764D01*
X50843808Y95295818D01*
X51093101Y95429068D01*
X51311608Y95608392D01*
X51490932Y95826899D01*
X51562000Y95959858D01*
X51633068Y95826899D01*
X51812393Y95608392D01*
X52030900Y95429068D01*
X52280193Y95295818D01*
X52550692Y95213764D01*
X52832000Y95186057D01*
X53113309Y95213764D01*
X53383808Y95295818D01*
X53633101Y95429068D01*
X53851608Y95608392D01*
X54030932Y95826899D01*
X54102000Y95959858D01*
X54173068Y95826899D01*
X54352393Y95608392D01*
X54570900Y95429068D01*
X54820193Y95295818D01*
X55090692Y95213764D01*
X55372000Y95186057D01*
X55653309Y95213764D01*
X55923808Y95295818D01*
X56173101Y95429068D01*
X56391608Y95608392D01*
X56570932Y95826899D01*
X56704182Y96076192D01*
X56786236Y96346691D01*
X56807000Y96557509D01*
X56807000Y96569254D01*
X68661716Y84714537D01*
G04 #@! TA.AperFunction,Conductor*
D23*
G36*
X68661716Y84714537D02*
G01*
X68534010Y84523411D01*
X68422068Y84253158D01*
X68365000Y83966260D01*
X68365000Y83673740D01*
X68422068Y83386842D01*
X68534010Y83116589D01*
X68696525Y82873368D01*
X68903368Y82666525D01*
X69077760Y82550000D01*
X68903368Y82433475D01*
X68696525Y82226632D01*
X68534010Y81983411D01*
X68422068Y81713158D01*
X68365000Y81426260D01*
X68365000Y81133740D01*
X68422068Y80846842D01*
X68534010Y80576589D01*
X68696525Y80333368D01*
X68703223Y80326670D01*
X60885008Y72508454D01*
X60856962Y72485437D01*
X60765113Y72373519D01*
X60696863Y72245832D01*
X60673659Y72169338D01*
X60654835Y72107285D01*
X60640644Y71963200D01*
X60644200Y71927095D01*
X60644201Y67297854D01*
X60606626Y67241620D01*
X59515400Y68332846D01*
X59515400Y71577895D01*
X59518956Y71614000D01*
X59504765Y71758086D01*
X59486252Y71819115D01*
X59462737Y71896633D01*
X59394487Y72024320D01*
X59350517Y72077897D01*
X59325653Y72108194D01*
X59325650Y72108197D01*
X59302637Y72136238D01*
X59274597Y72159250D01*
X57446258Y73987588D01*
X57423238Y74015638D01*
X57311320Y74107487D01*
X57183633Y74175737D01*
X57045085Y74217765D01*
X56937105Y74228400D01*
X56901000Y74231956D01*
X56864895Y74228400D01*
X55760547Y74228400D01*
X49618994Y80369953D01*
X49687377Y80472295D01*
X49754090Y80633355D01*
X49788100Y80804335D01*
X49788100Y80978665D01*
X49754090Y81149645D01*
X49687377Y81310705D01*
X49638100Y81384453D01*
X49638100Y87730388D01*
X49740193Y87675818D01*
X50010692Y87593764D01*
X50292000Y87566057D01*
X50573309Y87593764D01*
X50843808Y87675818D01*
X51093101Y87809068D01*
X51311608Y87988392D01*
X51490932Y88206899D01*
X51562000Y88339858D01*
X51633068Y88206899D01*
X51812393Y87988392D01*
X52030900Y87809068D01*
X52280193Y87675818D01*
X52550692Y87593764D01*
X52832000Y87566057D01*
X53113309Y87593764D01*
X53383808Y87675818D01*
X53633101Y87809068D01*
X53851608Y87988392D01*
X54030932Y88206899D01*
X54099265Y88334741D01*
X54249399Y88105161D01*
X54447105Y87903500D01*
X54680354Y87744285D01*
X54940182Y87633633D01*
X55022961Y87616096D01*
X55245000Y87738085D01*
X55245000Y89281000D01*
X55499000Y89281000D01*
X55499000Y87738085D01*
X55721039Y87616096D01*
X55803818Y87633633D01*
X56063646Y87744285D01*
X56296895Y87903500D01*
X56494601Y88105161D01*
X56649166Y88341517D01*
X56754650Y88603486D01*
X56807000Y88881000D01*
X56807000Y89281000D01*
X55499000Y89281000D01*
X55245000Y89281000D01*
X55225000Y89281000D01*
X55225000Y89535000D01*
X55245000Y89535000D01*
X55245000Y91077915D01*
X55499000Y91077915D01*
X55499000Y89535000D01*
X56807000Y89535000D01*
X56807000Y89935000D01*
X56754650Y90212514D01*
X56649166Y90474483D01*
X56494601Y90710839D01*
X56296895Y90912500D01*
X56063646Y91071715D01*
X55803818Y91182367D01*
X55721039Y91199904D01*
X55499000Y91077915D01*
X55245000Y91077915D01*
X55022961Y91199904D01*
X54940182Y91182367D01*
X54680354Y91071715D01*
X54447105Y90912500D01*
X54249399Y90710839D01*
X54099265Y90481259D01*
X54030932Y90609101D01*
X53851607Y90827608D01*
X53633100Y91006932D01*
X53383807Y91140182D01*
X53113308Y91222236D01*
X52832000Y91249943D01*
X52550691Y91222236D01*
X52280192Y91140182D01*
X52030899Y91006932D01*
X51812392Y90827607D01*
X51633068Y90609100D01*
X51562000Y90476142D01*
X51490932Y90609101D01*
X51311607Y90827608D01*
X51093100Y91006932D01*
X50843807Y91140182D01*
X50573308Y91222236D01*
X50292000Y91249943D01*
X50010691Y91222236D01*
X49740192Y91140182D01*
X49638100Y91085613D01*
X49638100Y92109795D01*
X49641656Y92145900D01*
X49627465Y92289985D01*
X49609171Y92350292D01*
X49585437Y92428533D01*
X49517187Y92556220D01*
X49464462Y92620465D01*
X49448353Y92640094D01*
X49448350Y92640097D01*
X49425337Y92668138D01*
X49397297Y92691150D01*
X47335100Y94753346D01*
X47335100Y95254895D01*
X47470692Y95213764D01*
X47752000Y95186057D01*
X48033309Y95213764D01*
X48303808Y95295818D01*
X48553101Y95429068D01*
X48771608Y95608392D01*
X48950932Y95826899D01*
X49022000Y95959858D01*
X49093068Y95826899D01*
X49272393Y95608392D01*
X49490900Y95429068D01*
X49740193Y95295818D01*
X50010692Y95213764D01*
X50292000Y95186057D01*
X50573309Y95213764D01*
X50843808Y95295818D01*
X51093101Y95429068D01*
X51311608Y95608392D01*
X51490932Y95826899D01*
X51562000Y95959858D01*
X51633068Y95826899D01*
X51812393Y95608392D01*
X52030900Y95429068D01*
X52280193Y95295818D01*
X52550692Y95213764D01*
X52832000Y95186057D01*
X53113309Y95213764D01*
X53383808Y95295818D01*
X53633101Y95429068D01*
X53851608Y95608392D01*
X54030932Y95826899D01*
X54102000Y95959858D01*
X54173068Y95826899D01*
X54352393Y95608392D01*
X54570900Y95429068D01*
X54820193Y95295818D01*
X55090692Y95213764D01*
X55372000Y95186057D01*
X55653309Y95213764D01*
X55923808Y95295818D01*
X56173101Y95429068D01*
X56391608Y95608392D01*
X56570932Y95826899D01*
X56704182Y96076192D01*
X56786236Y96346691D01*
X56807000Y96557509D01*
X56807000Y96569254D01*
X68661716Y84714537D01*
G37*
G04 #@! TD.AperFunction*
D22*
X28110000Y73262264D02*
X28043899Y73226932D01*
X27825392Y73047607D01*
X27646068Y72829100D01*
X27575000Y72696142D01*
X27503932Y72829101D01*
X27324607Y73047608D01*
X27106100Y73226932D01*
X26856807Y73360182D01*
X26586308Y73442236D01*
X26305000Y73469943D01*
X26023691Y73442236D01*
X25753192Y73360182D01*
X25503899Y73226932D01*
X25285392Y73047607D01*
X25106068Y72829100D01*
X25035000Y72696142D01*
X24963932Y72829101D01*
X24784607Y73047608D01*
X24566100Y73226932D01*
X24316807Y73360182D01*
X24046308Y73442236D01*
X23765000Y73469943D01*
X23483691Y73442236D01*
X23213192Y73360182D01*
X23155100Y73329131D01*
X23155100Y82487354D01*
X25703597Y85035850D01*
X25731637Y85058862D01*
X25754650Y85086903D01*
X25754653Y85086906D01*
X25794935Y85135990D01*
X25823487Y85170780D01*
X25891737Y85298467D01*
X25933765Y85437015D01*
X25944400Y85544995D01*
X25944400Y85544996D01*
X25947956Y85581100D01*
X25944400Y85617205D01*
X25944400Y87718877D01*
X26189182Y87614633D01*
X26271961Y87597096D01*
X26494000Y87719085D01*
X26494000Y89262000D01*
X26748000Y89262000D01*
X26748000Y87719085D01*
X26970039Y87597096D01*
X27052818Y87614633D01*
X27312646Y87725285D01*
X27545895Y87884500D01*
X27743601Y88086161D01*
X27898166Y88322517D01*
X28003650Y88584486D01*
X28056000Y88862000D01*
X28056000Y89262000D01*
X26748000Y89262000D01*
X26494000Y89262000D01*
X26474000Y89262000D01*
X26474000Y89516000D01*
X26494000Y89516000D01*
X26494000Y91058915D01*
X26748000Y91058915D01*
X26748000Y89516000D01*
X28056000Y89516000D01*
X28056000Y89916000D01*
X28003650Y90193514D01*
X27898166Y90455483D01*
X27743601Y90691839D01*
X27545895Y90893500D01*
X27312646Y91052715D01*
X27052818Y91163367D01*
X26970039Y91180904D01*
X26748000Y91058915D01*
X26494000Y91058915D01*
X26271961Y91180904D01*
X26189182Y91163367D01*
X25944400Y91059123D01*
X25944400Y93792654D01*
X27115193Y94963446D01*
X27143238Y94986462D01*
X27235087Y95098380D01*
X27303337Y95226067D01*
X27345365Y95364615D01*
X27345826Y95369298D01*
X27422101Y95410068D01*
X27640608Y95589392D01*
X27819932Y95807899D01*
X27953182Y96057192D01*
X28035236Y96327691D01*
X28056000Y96538509D01*
X28056000Y97479492D01*
X28035236Y97690309D01*
X27953182Y97960808D01*
X27819932Y98210101D01*
X27640607Y98428608D01*
X27422100Y98607932D01*
X27172807Y98741182D01*
X26902308Y98823236D01*
X26621000Y98850943D01*
X26339691Y98823236D01*
X26069192Y98741182D01*
X25819899Y98607932D01*
X25601392Y98428607D01*
X25422068Y98210100D01*
X25351000Y98077142D01*
X25279932Y98210101D01*
X25100607Y98428608D01*
X24882100Y98607932D01*
X24799780Y98651933D01*
X27472747Y101324900D01*
X27538865Y101324900D01*
X27709845Y101358910D01*
X27870905Y101425623D01*
X28015855Y101522476D01*
X28110001Y101616622D01*
X28110000Y73262264D01*
G04 #@! TA.AperFunction,Conductor*
D23*
G36*
X28110000Y73262264D02*
G01*
X28043899Y73226932D01*
X27825392Y73047607D01*
X27646068Y72829100D01*
X27575000Y72696142D01*
X27503932Y72829101D01*
X27324607Y73047608D01*
X27106100Y73226932D01*
X26856807Y73360182D01*
X26586308Y73442236D01*
X26305000Y73469943D01*
X26023691Y73442236D01*
X25753192Y73360182D01*
X25503899Y73226932D01*
X25285392Y73047607D01*
X25106068Y72829100D01*
X25035000Y72696142D01*
X24963932Y72829101D01*
X24784607Y73047608D01*
X24566100Y73226932D01*
X24316807Y73360182D01*
X24046308Y73442236D01*
X23765000Y73469943D01*
X23483691Y73442236D01*
X23213192Y73360182D01*
X23155100Y73329131D01*
X23155100Y82487354D01*
X25703597Y85035850D01*
X25731637Y85058862D01*
X25754650Y85086903D01*
X25754653Y85086906D01*
X25794935Y85135990D01*
X25823487Y85170780D01*
X25891737Y85298467D01*
X25933765Y85437015D01*
X25944400Y85544995D01*
X25944400Y85544996D01*
X25947956Y85581100D01*
X25944400Y85617205D01*
X25944400Y87718877D01*
X26189182Y87614633D01*
X26271961Y87597096D01*
X26494000Y87719085D01*
X26494000Y89262000D01*
X26748000Y89262000D01*
X26748000Y87719085D01*
X26970039Y87597096D01*
X27052818Y87614633D01*
X27312646Y87725285D01*
X27545895Y87884500D01*
X27743601Y88086161D01*
X27898166Y88322517D01*
X28003650Y88584486D01*
X28056000Y88862000D01*
X28056000Y89262000D01*
X26748000Y89262000D01*
X26494000Y89262000D01*
X26474000Y89262000D01*
X26474000Y89516000D01*
X26494000Y89516000D01*
X26494000Y91058915D01*
X26748000Y91058915D01*
X26748000Y89516000D01*
X28056000Y89516000D01*
X28056000Y89916000D01*
X28003650Y90193514D01*
X27898166Y90455483D01*
X27743601Y90691839D01*
X27545895Y90893500D01*
X27312646Y91052715D01*
X27052818Y91163367D01*
X26970039Y91180904D01*
X26748000Y91058915D01*
X26494000Y91058915D01*
X26271961Y91180904D01*
X26189182Y91163367D01*
X25944400Y91059123D01*
X25944400Y93792654D01*
X27115193Y94963446D01*
X27143238Y94986462D01*
X27235087Y95098380D01*
X27303337Y95226067D01*
X27345365Y95364615D01*
X27345826Y95369298D01*
X27422101Y95410068D01*
X27640608Y95589392D01*
X27819932Y95807899D01*
X27953182Y96057192D01*
X28035236Y96327691D01*
X28056000Y96538509D01*
X28056000Y97479492D01*
X28035236Y97690309D01*
X27953182Y97960808D01*
X27819932Y98210101D01*
X27640607Y98428608D01*
X27422100Y98607932D01*
X27172807Y98741182D01*
X26902308Y98823236D01*
X26621000Y98850943D01*
X26339691Y98823236D01*
X26069192Y98741182D01*
X25819899Y98607932D01*
X25601392Y98428607D01*
X25422068Y98210100D01*
X25351000Y98077142D01*
X25279932Y98210101D01*
X25100607Y98428608D01*
X24882100Y98607932D01*
X24799780Y98651933D01*
X27472747Y101324900D01*
X27538865Y101324900D01*
X27709845Y101358910D01*
X27870905Y101425623D01*
X28015855Y101522476D01*
X28110001Y101616622D01*
X28110000Y73262264D01*
G37*
G04 #@! TD.AperFunction*
D22*
X39330900Y95429068D02*
X39407174Y95388299D01*
X39407635Y95383615D01*
X39434269Y95295818D01*
X39449664Y95245067D01*
X39517914Y95117380D01*
X39609763Y95005462D01*
X39637808Y94982446D01*
X40525401Y94094852D01*
X40525401Y91246072D01*
X39332000Y91246072D01*
X39207518Y91233812D01*
X39087820Y91197502D01*
X38977506Y91138537D01*
X38880815Y91059185D01*
X38801463Y90962494D01*
X38742498Y90852180D01*
X38706188Y90732482D01*
X38693928Y90608000D01*
X38693928Y88208000D01*
X38706188Y88083518D01*
X38742498Y87963820D01*
X38801463Y87853506D01*
X38880815Y87756815D01*
X38977506Y87677463D01*
X39087820Y87618498D01*
X39207518Y87582188D01*
X39332000Y87569928D01*
X40525401Y87569928D01*
X40525400Y80199505D01*
X40521844Y80163400D01*
X40536035Y80019315D01*
X40541990Y79999686D01*
X40578063Y79880768D01*
X40646313Y79753081D01*
X40738162Y79641163D01*
X40766208Y79618146D01*
X46521053Y73863300D01*
X43636805Y73863300D01*
X43600700Y73866856D01*
X43456615Y73852665D01*
X43318066Y73810637D01*
X43253329Y73776034D01*
X43190380Y73742387D01*
X43078462Y73650538D01*
X43055447Y73622494D01*
X42518445Y73085492D01*
X42346100Y73226932D01*
X42269826Y73267701D01*
X42269365Y73272385D01*
X42227337Y73410934D01*
X42159087Y73538620D01*
X42090253Y73622494D01*
X42067238Y73650538D01*
X42039193Y73673554D01*
X36022700Y79690046D01*
X36022700Y82094838D01*
X36111545Y82112510D01*
X36272605Y82179223D01*
X36417555Y82276076D01*
X36540824Y82399345D01*
X36637677Y82544295D01*
X36704390Y82705355D01*
X36738400Y82876335D01*
X36738400Y83050665D01*
X36704390Y83221645D01*
X36637677Y83382705D01*
X36540824Y83527655D01*
X36423000Y83645479D01*
X36423000Y90356626D01*
X36618184Y90307700D01*
X36900512Y90293783D01*
X37180130Y90335213D01*
X37446292Y90430397D01*
X37571514Y90497329D01*
X37643097Y90741298D01*
X36830000Y91554395D01*
X36815858Y91540252D01*
X36636253Y91719857D01*
X36650395Y91734000D01*
X37009605Y91734000D01*
X37822702Y90920903D01*
X38066671Y90992486D01*
X38187571Y91247996D01*
X38256300Y91522184D01*
X38270217Y91804512D01*
X38228787Y92084130D01*
X38133603Y92350292D01*
X38066671Y92475514D01*
X37822702Y92547097D01*
X37009605Y91734000D01*
X36650395Y91734000D01*
X36636253Y91748142D01*
X36815858Y91927747D01*
X36830000Y91913605D01*
X37643097Y92726702D01*
X37571514Y92970671D01*
X37542659Y92984324D01*
X37744759Y93119363D01*
X37944637Y93319241D01*
X38101680Y93554273D01*
X38209853Y93815426D01*
X38265000Y94092665D01*
X38265000Y94375335D01*
X38246285Y94469418D01*
X39262264Y95485396D01*
X39330900Y95429068D01*
G04 #@! TA.AperFunction,Conductor*
D23*
G36*
X39330900Y95429068D02*
G01*
X39407174Y95388299D01*
X39407635Y95383615D01*
X39434269Y95295818D01*
X39449664Y95245067D01*
X39517914Y95117380D01*
X39609763Y95005462D01*
X39637808Y94982446D01*
X40525401Y94094852D01*
X40525401Y91246072D01*
X39332000Y91246072D01*
X39207518Y91233812D01*
X39087820Y91197502D01*
X38977506Y91138537D01*
X38880815Y91059185D01*
X38801463Y90962494D01*
X38742498Y90852180D01*
X38706188Y90732482D01*
X38693928Y90608000D01*
X38693928Y88208000D01*
X38706188Y88083518D01*
X38742498Y87963820D01*
X38801463Y87853506D01*
X38880815Y87756815D01*
X38977506Y87677463D01*
X39087820Y87618498D01*
X39207518Y87582188D01*
X39332000Y87569928D01*
X40525401Y87569928D01*
X40525400Y80199505D01*
X40521844Y80163400D01*
X40536035Y80019315D01*
X40541990Y79999686D01*
X40578063Y79880768D01*
X40646313Y79753081D01*
X40738162Y79641163D01*
X40766208Y79618146D01*
X46521053Y73863300D01*
X43636805Y73863300D01*
X43600700Y73866856D01*
X43456615Y73852665D01*
X43318066Y73810637D01*
X43253329Y73776034D01*
X43190380Y73742387D01*
X43078462Y73650538D01*
X43055447Y73622494D01*
X42518445Y73085492D01*
X42346100Y73226932D01*
X42269826Y73267701D01*
X42269365Y73272385D01*
X42227337Y73410934D01*
X42159087Y73538620D01*
X42090253Y73622494D01*
X42067238Y73650538D01*
X42039193Y73673554D01*
X36022700Y79690046D01*
X36022700Y82094838D01*
X36111545Y82112510D01*
X36272605Y82179223D01*
X36417555Y82276076D01*
X36540824Y82399345D01*
X36637677Y82544295D01*
X36704390Y82705355D01*
X36738400Y82876335D01*
X36738400Y83050665D01*
X36704390Y83221645D01*
X36637677Y83382705D01*
X36540824Y83527655D01*
X36423000Y83645479D01*
X36423000Y90356626D01*
X36618184Y90307700D01*
X36900512Y90293783D01*
X37180130Y90335213D01*
X37446292Y90430397D01*
X37571514Y90497329D01*
X37643097Y90741298D01*
X36830000Y91554395D01*
X36815858Y91540252D01*
X36636253Y91719857D01*
X36650395Y91734000D01*
X37009605Y91734000D01*
X37822702Y90920903D01*
X38066671Y90992486D01*
X38187571Y91247996D01*
X38256300Y91522184D01*
X38270217Y91804512D01*
X38228787Y92084130D01*
X38133603Y92350292D01*
X38066671Y92475514D01*
X37822702Y92547097D01*
X37009605Y91734000D01*
X36650395Y91734000D01*
X36636253Y91748142D01*
X36815858Y91927747D01*
X36830000Y91913605D01*
X37643097Y92726702D01*
X37571514Y92970671D01*
X37542659Y92984324D01*
X37744759Y93119363D01*
X37944637Y93319241D01*
X38101680Y93554273D01*
X38209853Y93815426D01*
X38265000Y94092665D01*
X38265000Y94375335D01*
X38246285Y94469418D01*
X39262264Y95485396D01*
X39330900Y95429068D01*
G37*
G04 #@! TD.AperFunction*
D22*
X38213210Y131286055D02*
X38279923Y131124995D01*
X38329200Y131051247D01*
X38329201Y99874548D01*
X35622400Y97167746D01*
X35622400Y129172921D01*
X35729524Y129280045D01*
X35826377Y129424995D01*
X35893090Y129586055D01*
X35927100Y129757035D01*
X35927100Y129931365D01*
X35893090Y130102345D01*
X35826377Y130263405D01*
X35729524Y130408355D01*
X35606255Y130531624D01*
X35461305Y130628477D01*
X35304108Y130693590D01*
X35307490Y130701755D01*
X35341500Y130872735D01*
X35341500Y131047065D01*
X35307490Y131218045D01*
X35243306Y131373000D01*
X38195916Y131373000D01*
X38213210Y131286055D01*
G04 #@! TA.AperFunction,Conductor*
D23*
G36*
X38213210Y131286055D02*
G01*
X38279923Y131124995D01*
X38329200Y131051247D01*
X38329201Y99874548D01*
X35622400Y97167746D01*
X35622400Y129172921D01*
X35729524Y129280045D01*
X35826377Y129424995D01*
X35893090Y129586055D01*
X35927100Y129757035D01*
X35927100Y129931365D01*
X35893090Y130102345D01*
X35826377Y130263405D01*
X35729524Y130408355D01*
X35606255Y130531624D01*
X35461305Y130628477D01*
X35304108Y130693590D01*
X35307490Y130701755D01*
X35341500Y130872735D01*
X35341500Y131047065D01*
X35307490Y131218045D01*
X35243306Y131373000D01*
X38195916Y131373000D01*
X38213210Y131286055D01*
G37*
G04 #@! TD.AperFunction*
D22*
X28110001Y122086076D02*
X27932702Y122138097D01*
X27119605Y121325000D01*
X27932702Y120511903D01*
X28110001Y120563924D01*
X28110001Y102803178D01*
X28015855Y102897324D01*
X27870905Y102994177D01*
X27709845Y103060890D01*
X27538865Y103094900D01*
X27364535Y103094900D01*
X27193555Y103060890D01*
X27032495Y102994177D01*
X26887545Y102897324D01*
X26764276Y102774055D01*
X26667423Y102629105D01*
X26645761Y102576808D01*
X22525980Y98457026D01*
X22342100Y98607932D01*
X22092807Y98741182D01*
X21822308Y98823236D01*
X21541000Y98850943D01*
X21259691Y98823236D01*
X20989192Y98741182D01*
X20739899Y98607932D01*
X20521392Y98428607D01*
X20342068Y98210100D01*
X20271000Y98077142D01*
X20199932Y98210101D01*
X20020607Y98428608D01*
X19802100Y98607932D01*
X19552807Y98741182D01*
X19282308Y98823236D01*
X19001000Y98850943D01*
X18719691Y98823236D01*
X18449192Y98741182D01*
X18199899Y98607932D01*
X17981392Y98428607D01*
X17802068Y98210100D01*
X17731000Y98077142D01*
X17659932Y98210101D01*
X17480607Y98428608D01*
X17262100Y98607932D01*
X17196000Y98643263D01*
X17196000Y112216354D01*
X25311944Y120332298D01*
X26126903Y120332298D01*
X26198486Y120088329D01*
X26453996Y119967429D01*
X26728184Y119898700D01*
X27010512Y119884783D01*
X27290130Y119926213D01*
X27556292Y120021397D01*
X27681514Y120088329D01*
X27753097Y120332298D01*
X26940000Y121145395D01*
X26126903Y120332298D01*
X25311944Y120332298D01*
X25654495Y120674848D01*
X25703329Y120583486D01*
X25947298Y120511903D01*
X26760395Y121325000D01*
X26746253Y121339142D01*
X26925858Y121518747D01*
X26940000Y121504605D01*
X27753097Y122317702D01*
X27732785Y122386928D01*
X27740000Y122386928D01*
X27864482Y122399188D01*
X27984180Y122435498D01*
X28094494Y122494463D01*
X28110001Y122507189D01*
X28110001Y122086076D01*
G04 #@! TA.AperFunction,Conductor*
D23*
G36*
X28110001Y122086076D02*
G01*
X27932702Y122138097D01*
X27119605Y121325000D01*
X27932702Y120511903D01*
X28110001Y120563924D01*
X28110001Y102803178D01*
X28015855Y102897324D01*
X27870905Y102994177D01*
X27709845Y103060890D01*
X27538865Y103094900D01*
X27364535Y103094900D01*
X27193555Y103060890D01*
X27032495Y102994177D01*
X26887545Y102897324D01*
X26764276Y102774055D01*
X26667423Y102629105D01*
X26645761Y102576808D01*
X22525980Y98457026D01*
X22342100Y98607932D01*
X22092807Y98741182D01*
X21822308Y98823236D01*
X21541000Y98850943D01*
X21259691Y98823236D01*
X20989192Y98741182D01*
X20739899Y98607932D01*
X20521392Y98428607D01*
X20342068Y98210100D01*
X20271000Y98077142D01*
X20199932Y98210101D01*
X20020607Y98428608D01*
X19802100Y98607932D01*
X19552807Y98741182D01*
X19282308Y98823236D01*
X19001000Y98850943D01*
X18719691Y98823236D01*
X18449192Y98741182D01*
X18199899Y98607932D01*
X17981392Y98428607D01*
X17802068Y98210100D01*
X17731000Y98077142D01*
X17659932Y98210101D01*
X17480607Y98428608D01*
X17262100Y98607932D01*
X17196000Y98643263D01*
X17196000Y112216354D01*
X25311944Y120332298D01*
X26126903Y120332298D01*
X26198486Y120088329D01*
X26453996Y119967429D01*
X26728184Y119898700D01*
X27010512Y119884783D01*
X27290130Y119926213D01*
X27556292Y120021397D01*
X27681514Y120088329D01*
X27753097Y120332298D01*
X26940000Y121145395D01*
X26126903Y120332298D01*
X25311944Y120332298D01*
X25654495Y120674848D01*
X25703329Y120583486D01*
X25947298Y120511903D01*
X26760395Y121325000D01*
X26746253Y121339142D01*
X26925858Y121518747D01*
X26940000Y121504605D01*
X27753097Y122317702D01*
X27732785Y122386928D01*
X27740000Y122386928D01*
X27864482Y122399188D01*
X27984180Y122435498D01*
X28094494Y122494463D01*
X28110001Y122507189D01*
X28110001Y122086076D01*
G37*
G04 #@! TD.AperFunction*
M02*
