G04 #@! TF.GenerationSoftware,KiCad,Pcbnew,(5.1.9)-1*
G04 #@! TF.CreationDate,2026-03-03T22:45:46+09:00*
G04 #@! TF.ProjectId,MZ-2000_SD+NRF,4d5a2d32-3030-4305-9f53-442b4e52462e,rev?*
G04 #@! TF.SameCoordinates,PX20a6660PYbcc1c70*
G04 #@! TF.FileFunction,Soldermask,Bot*
G04 #@! TF.FilePolarity,Negative*
%FSLAX46Y46*%
G04 Gerber Fmt 4.6, Leading zero omitted, Abs format (unit mm)*
G04 Created by KiCad (PCBNEW (5.1.9)-1) date 2026-03-03 22:45:46*
%MOMM*%
%LPD*%
G01*
G04 APERTURE LIST*
%ADD10C,3.200000*%
%ADD11R,1.780000X10.000000*%
%ADD12C,1.600000*%
%ADD13R,1.700000X1.700000*%
%ADD14O,1.700000X1.700000*%
%ADD15R,1.600000X2.400000*%
%ADD16O,1.600000X2.400000*%
%ADD17R,1.600000X1.600000*%
%ADD18O,1.600000X1.600000*%
%ADD19C,4.000000*%
G04 APERTURE END LIST*
D10*
X4000000Y127000000D03*
X111000000Y127000000D03*
X111000000Y5000000D03*
X4000000Y5000000D03*
D11*
X26940000Y137196000D03*
X29480000Y137196000D03*
X32020000Y137196000D03*
X34560000Y137196000D03*
X37100000Y137196000D03*
X39640000Y137196000D03*
X42180000Y137196000D03*
X44720000Y137196000D03*
X47260000Y137196000D03*
X49800000Y137196000D03*
X52340000Y137196000D03*
X54880000Y137196000D03*
X57420000Y137196000D03*
X59960000Y137196000D03*
X62500000Y137196000D03*
X65040000Y137196000D03*
X67580000Y137196000D03*
X70120000Y137196000D03*
X72660000Y137196000D03*
X75200000Y137196000D03*
X77740000Y137196000D03*
X80280000Y137196000D03*
D12*
X59960000Y62778000D03*
X59960000Y65278000D03*
X36830000Y94234000D03*
X36830000Y91734000D03*
X7825000Y91969000D03*
X7825000Y94469000D03*
D13*
X57674000Y38481000D03*
D14*
X55134000Y38481000D03*
X52594000Y38481000D03*
X50054000Y38481000D03*
X47514000Y38481000D03*
X44974000Y38481000D03*
D15*
X11381000Y89389000D03*
D16*
X26621000Y97009000D03*
X13921000Y89389000D03*
X24081000Y97009000D03*
X16461000Y89389000D03*
X21541000Y97009000D03*
X19001000Y89389000D03*
X19001000Y97009000D03*
X21541000Y89389000D03*
X16461000Y97009000D03*
X24081000Y89389000D03*
X13921000Y97009000D03*
X26621000Y89389000D03*
X11381000Y97009000D03*
D15*
X8525000Y56388000D03*
D16*
X56785000Y71628000D03*
X11065000Y56388000D03*
X54245000Y71628000D03*
X13605000Y56388000D03*
X51705000Y71628000D03*
X16145000Y56388000D03*
X49165000Y71628000D03*
X18685000Y56388000D03*
X46625000Y71628000D03*
X21225000Y56388000D03*
X44085000Y71628000D03*
X23765000Y56388000D03*
X41545000Y71628000D03*
X26305000Y56388000D03*
X39005000Y71628000D03*
X28845000Y56388000D03*
X36465000Y71628000D03*
X31385000Y56388000D03*
X33925000Y71628000D03*
X33925000Y56388000D03*
X31385000Y71628000D03*
X36465000Y56388000D03*
X28845000Y71628000D03*
X39005000Y56388000D03*
X26305000Y71628000D03*
X41545000Y56388000D03*
X23765000Y71628000D03*
X44085000Y56388000D03*
X21225000Y71628000D03*
X46625000Y56388000D03*
X18685000Y71628000D03*
X49165000Y56388000D03*
X16145000Y71628000D03*
X51705000Y56388000D03*
X13605000Y71628000D03*
X54245000Y56388000D03*
X11065000Y71628000D03*
X56785000Y56388000D03*
X8525000Y71628000D03*
D13*
X61484000Y30226000D03*
D14*
X58944000Y30226000D03*
X56404000Y30226000D03*
X53864000Y30226000D03*
X51324000Y30226000D03*
X48784000Y30226000D03*
X46244000Y30226000D03*
X43704000Y30226000D03*
X41164000Y30226000D03*
X41164000Y2286000D03*
X41164000Y4826000D03*
X61484000Y2286000D03*
X61484000Y4826000D03*
D17*
X28972000Y12192000D03*
D18*
X28972000Y14732000D03*
X28972000Y17272000D03*
X13732000Y40132000D03*
X28972000Y19812000D03*
X13732000Y37592000D03*
X28972000Y22352000D03*
X13732000Y35052000D03*
X28972000Y24892000D03*
X13732000Y32512000D03*
X28972000Y27432000D03*
X13732000Y29972000D03*
X28972000Y29972000D03*
X13732000Y27432000D03*
X28972000Y32512000D03*
X13732000Y24892000D03*
X28972000Y35052000D03*
X13732000Y22352000D03*
X28972000Y37592000D03*
X13732000Y19812000D03*
X28972000Y40132000D03*
X13732000Y17272000D03*
X13732000Y14732000D03*
X13732000Y12192000D03*
X16272000Y21082000D03*
X16272000Y23622000D03*
X16272000Y31242000D03*
X16272000Y33782000D03*
D17*
X26940000Y123825000D03*
D12*
X26940000Y121325000D03*
D17*
X89916000Y7000000D03*
D12*
X87626000Y7000000D03*
X85336000Y7000000D03*
X83046000Y7000000D03*
X80756000Y7000000D03*
X91061000Y5020000D03*
X88771000Y5020000D03*
X86481000Y5020000D03*
X84191000Y5020000D03*
X81901000Y5020000D03*
X89916000Y3040000D03*
X87626000Y3040000D03*
X85336000Y3040000D03*
X83046000Y3040000D03*
X80756000Y3040000D03*
D19*
X73101000Y4950000D03*
X98101000Y4950000D03*
D12*
X89916000Y14859000D03*
D18*
X97536000Y14859000D03*
X92964000Y26670000D03*
D12*
X85344000Y26670000D03*
X87630000Y20828000D03*
D18*
X95250000Y20828000D03*
D15*
X40132000Y89408000D03*
D16*
X55372000Y97028000D03*
X42672000Y89408000D03*
X52832000Y97028000D03*
X45212000Y89408000D03*
X50292000Y97028000D03*
X47752000Y89408000D03*
X47752000Y97028000D03*
X50292000Y89408000D03*
X45212000Y97028000D03*
X52832000Y89408000D03*
X42672000Y97028000D03*
X55372000Y89408000D03*
X40132000Y97028000D03*
D14*
X105410000Y88900000D03*
X107950000Y88900000D03*
X105410000Y86360000D03*
X107950000Y86360000D03*
X105410000Y83820000D03*
X107950000Y83820000D03*
X105410000Y81280000D03*
X107950000Y81280000D03*
X105410000Y78740000D03*
X107950000Y78740000D03*
X105410000Y76200000D03*
X107950000Y76200000D03*
X105410000Y73660000D03*
X107950000Y73660000D03*
X105410000Y71120000D03*
X107950000Y71120000D03*
X105410000Y68580000D03*
X107950000Y68580000D03*
X105410000Y66040000D03*
X107950000Y66040000D03*
X105410000Y63500000D03*
X107950000Y63500000D03*
X105410000Y60960000D03*
X107950000Y60960000D03*
X105410000Y58420000D03*
X107950000Y58420000D03*
X105410000Y55880000D03*
X107950000Y55880000D03*
X105410000Y53340000D03*
D13*
X107950000Y53340000D03*
X72390000Y53340000D03*
D14*
X69850000Y53340000D03*
X72390000Y55880000D03*
X69850000Y55880000D03*
X72390000Y58420000D03*
X69850000Y58420000D03*
X72390000Y60960000D03*
X69850000Y60960000D03*
X72390000Y63500000D03*
X69850000Y63500000D03*
X72390000Y66040000D03*
X69850000Y66040000D03*
X72390000Y68580000D03*
X69850000Y68580000D03*
X72390000Y71120000D03*
X69850000Y71120000D03*
X72390000Y73660000D03*
X69850000Y73660000D03*
X72390000Y76200000D03*
X69850000Y76200000D03*
X72390000Y78740000D03*
X69850000Y78740000D03*
X72390000Y81280000D03*
X69850000Y81280000D03*
X72390000Y83820000D03*
X69850000Y83820000D03*
X72390000Y86360000D03*
X69850000Y86360000D03*
X72390000Y88900000D03*
X69850000Y88900000D03*
M02*
