G04 #@! TF.GenerationSoftware,KiCad,Pcbnew,(5.1.9)-1*
G04 #@! TF.CreationDate,2026-03-03T22:45:46+09:00*
G04 #@! TF.ProjectId,MZ-2000_SD+NRF,4d5a2d32-3030-4305-9f53-442b4e52462e,rev?*
G04 #@! TF.SameCoordinates,PX20a6660PYbcc1c70*
G04 #@! TF.FileFunction,Legend,Top*
G04 #@! TF.FilePolarity,Positive*
%FSLAX46Y46*%
G04 Gerber Fmt 4.6, Leading zero omitted, Abs format (unit mm)*
G04 Created by KiCad (PCBNEW (5.1.9)-1) date 2026-03-03 22:45:46*
%MOMM*%
%LPD*%
G01*
G04 APERTURE LIST*
%ADD10C,0.150000*%
%ADD11C,0.500000*%
%ADD12C,0.120000*%
G04 APERTURE END LIST*
D10*
X86177761Y50347620D02*
X85844428Y50823810D01*
X85606333Y50347620D02*
X85606333Y51347620D01*
X85987285Y51347620D01*
X86082523Y51300000D01*
X86130142Y51252381D01*
X86177761Y51157143D01*
X86177761Y51014286D01*
X86130142Y50919048D01*
X86082523Y50871429D01*
X85987285Y50823810D01*
X85606333Y50823810D01*
X86606333Y50347620D02*
X86606333Y51347620D01*
X86987285Y51347620D01*
X87082523Y51300000D01*
X87130142Y51252381D01*
X87177761Y51157143D01*
X87177761Y51014286D01*
X87130142Y50919048D01*
X87082523Y50871429D01*
X86987285Y50823810D01*
X86606333Y50823810D01*
X87558714Y51252381D02*
X87606333Y51300000D01*
X87701571Y51347620D01*
X87939666Y51347620D01*
X88034904Y51300000D01*
X88082523Y51252381D01*
X88130142Y51157143D01*
X88130142Y51061905D01*
X88082523Y50919048D01*
X87511095Y50347620D01*
X88130142Y50347620D01*
X88463476Y51347620D02*
X89082523Y51347620D01*
X88749190Y50966667D01*
X88892047Y50966667D01*
X88987285Y50919048D01*
X89034904Y50871429D01*
X89082523Y50776191D01*
X89082523Y50538096D01*
X89034904Y50442858D01*
X88987285Y50395239D01*
X88892047Y50347620D01*
X88606333Y50347620D01*
X88511095Y50395239D01*
X88463476Y50442858D01*
X89987285Y51347620D02*
X89511095Y51347620D01*
X89463476Y50871429D01*
X89511095Y50919048D01*
X89606333Y50966667D01*
X89844428Y50966667D01*
X89939666Y50919048D01*
X89987285Y50871429D01*
X90034904Y50776191D01*
X90034904Y50538096D01*
X89987285Y50442858D01*
X89939666Y50395239D01*
X89844428Y50347620D01*
X89606333Y50347620D01*
X89511095Y50395239D01*
X89463476Y50442858D01*
X90653952Y51347620D02*
X90749190Y51347620D01*
X90844428Y51300000D01*
X90892047Y51252381D01*
X90939666Y51157143D01*
X90987285Y50966667D01*
X90987285Y50728572D01*
X90939666Y50538096D01*
X90892047Y50442858D01*
X90844428Y50395239D01*
X90749190Y50347620D01*
X90653952Y50347620D01*
X90558714Y50395239D01*
X90511095Y50442858D01*
X90463476Y50538096D01*
X90415857Y50728572D01*
X90415857Y50966667D01*
X90463476Y51157143D01*
X90511095Y51252381D01*
X90558714Y51300000D01*
X90653952Y51347620D01*
X91749190Y50871429D02*
X91892047Y50823810D01*
X91939666Y50776191D01*
X91987285Y50680953D01*
X91987285Y50538096D01*
X91939666Y50442858D01*
X91892047Y50395239D01*
X91796809Y50347620D01*
X91415857Y50347620D01*
X91415857Y51347620D01*
X91749190Y51347620D01*
X91844428Y51300000D01*
X91892047Y51252381D01*
X91939666Y51157143D01*
X91939666Y51061905D01*
X91892047Y50966667D01*
X91844428Y50919048D01*
X91749190Y50871429D01*
X91415857Y50871429D01*
X95615285Y17819620D02*
X96234333Y17819620D01*
X95901000Y17438667D01*
X96043857Y17438667D01*
X96139095Y17391048D01*
X96186714Y17343429D01*
X96234333Y17248191D01*
X96234333Y17010096D01*
X96186714Y16914858D01*
X96139095Y16867239D01*
X96043857Y16819620D01*
X95758142Y16819620D01*
X95662904Y16867239D01*
X95615285Y16914858D01*
X96567666Y17819620D02*
X97186714Y17819620D01*
X96853380Y17438667D01*
X96996238Y17438667D01*
X97091476Y17391048D01*
X97139095Y17343429D01*
X97186714Y17248191D01*
X97186714Y17010096D01*
X97139095Y16914858D01*
X97091476Y16867239D01*
X96996238Y16819620D01*
X96710523Y16819620D01*
X96615285Y16867239D01*
X96567666Y16914858D01*
X97805761Y17819620D02*
X97901000Y17819620D01*
X97996238Y17772000D01*
X98043857Y17724381D01*
X98091476Y17629143D01*
X98139095Y17438667D01*
X98139095Y17200572D01*
X98091476Y17010096D01*
X98043857Y16914858D01*
X97996238Y16867239D01*
X97901000Y16819620D01*
X97805761Y16819620D01*
X97710523Y16867239D01*
X97662904Y16914858D01*
X97615285Y17010096D01*
X97567666Y17200572D01*
X97567666Y17438667D01*
X97615285Y17629143D01*
X97662904Y17724381D01*
X97710523Y17772000D01*
X97805761Y17819620D01*
X93710285Y23788620D02*
X94329333Y23788620D01*
X93996000Y23407667D01*
X94138857Y23407667D01*
X94234095Y23360048D01*
X94281714Y23312429D01*
X94329333Y23217191D01*
X94329333Y22979096D01*
X94281714Y22883858D01*
X94234095Y22836239D01*
X94138857Y22788620D01*
X93853142Y22788620D01*
X93757904Y22836239D01*
X93710285Y22883858D01*
X94662666Y23788620D02*
X95281714Y23788620D01*
X94948380Y23407667D01*
X95091238Y23407667D01*
X95186476Y23360048D01*
X95234095Y23312429D01*
X95281714Y23217191D01*
X95281714Y22979096D01*
X95234095Y22883858D01*
X95186476Y22836239D01*
X95091238Y22788620D01*
X94805523Y22788620D01*
X94710285Y22836239D01*
X94662666Y22883858D01*
X95900761Y23788620D02*
X95996000Y23788620D01*
X96091238Y23741000D01*
X96138857Y23693381D01*
X96186476Y23598143D01*
X96234095Y23407667D01*
X96234095Y23169572D01*
X96186476Y22979096D01*
X96138857Y22883858D01*
X96091238Y22836239D01*
X95996000Y22788620D01*
X95900761Y22788620D01*
X95805523Y22836239D01*
X95757904Y22883858D01*
X95710285Y22979096D01*
X95662666Y23169572D01*
X95662666Y23407667D01*
X95710285Y23598143D01*
X95757904Y23693381D01*
X95805523Y23741000D01*
X95900761Y23788620D01*
X92059285Y29757620D02*
X92678333Y29757620D01*
X92345000Y29376667D01*
X92487857Y29376667D01*
X92583095Y29329048D01*
X92630714Y29281429D01*
X92678333Y29186191D01*
X92678333Y28948096D01*
X92630714Y28852858D01*
X92583095Y28805239D01*
X92487857Y28757620D01*
X92202142Y28757620D01*
X92106904Y28805239D01*
X92059285Y28852858D01*
X93011666Y29757620D02*
X93630714Y29757620D01*
X93297380Y29376667D01*
X93440238Y29376667D01*
X93535476Y29329048D01*
X93583095Y29281429D01*
X93630714Y29186191D01*
X93630714Y28948096D01*
X93583095Y28852858D01*
X93535476Y28805239D01*
X93440238Y28757620D01*
X93154523Y28757620D01*
X93059285Y28805239D01*
X93011666Y28852858D01*
X94249761Y29757620D02*
X94345000Y29757620D01*
X94440238Y29710000D01*
X94487857Y29662381D01*
X94535476Y29567143D01*
X94583095Y29376667D01*
X94583095Y29138572D01*
X94535476Y28948096D01*
X94487857Y28852858D01*
X94440238Y28805239D01*
X94345000Y28757620D01*
X94249761Y28757620D01*
X94154523Y28805239D01*
X94106904Y28852858D01*
X94059285Y28948096D01*
X94011666Y29138572D01*
X94011666Y29376667D01*
X94059285Y29567143D01*
X94106904Y29662381D01*
X94154523Y29710000D01*
X94249761Y29757620D01*
D11*
X59566190Y43092858D02*
X59566190Y46092858D01*
X60232857Y43950000D01*
X60899523Y46092858D01*
X60899523Y43092858D01*
X61661428Y46092858D02*
X62994761Y46092858D01*
X61661428Y43092858D01*
X62994761Y43092858D01*
X63756666Y44235715D02*
X65280476Y44235715D01*
X66137619Y45807143D02*
X66232857Y45950000D01*
X66423333Y46092858D01*
X66899523Y46092858D01*
X67090000Y45950000D01*
X67185238Y45807143D01*
X67280476Y45521429D01*
X67280476Y45235715D01*
X67185238Y44807143D01*
X66042380Y43092858D01*
X67280476Y43092858D01*
X68518571Y46092858D02*
X68709047Y46092858D01*
X68899523Y45950000D01*
X68994761Y45807143D01*
X69090000Y45521429D01*
X69185238Y44950000D01*
X69185238Y44235715D01*
X69090000Y43664286D01*
X68994761Y43378572D01*
X68899523Y43235715D01*
X68709047Y43092858D01*
X68518571Y43092858D01*
X68328095Y43235715D01*
X68232857Y43378572D01*
X68137619Y43664286D01*
X68042380Y44235715D01*
X68042380Y44950000D01*
X68137619Y45521429D01*
X68232857Y45807143D01*
X68328095Y45950000D01*
X68518571Y46092858D01*
X70423333Y46092858D02*
X70613809Y46092858D01*
X70804285Y45950000D01*
X70899523Y45807143D01*
X70994761Y45521429D01*
X71090000Y44950000D01*
X71090000Y44235715D01*
X70994761Y43664286D01*
X70899523Y43378572D01*
X70804285Y43235715D01*
X70613809Y43092858D01*
X70423333Y43092858D01*
X70232857Y43235715D01*
X70137619Y43378572D01*
X70042380Y43664286D01*
X69947142Y44235715D01*
X69947142Y44950000D01*
X70042380Y45521429D01*
X70137619Y45807143D01*
X70232857Y45950000D01*
X70423333Y46092858D01*
X72328095Y46092858D02*
X72518571Y46092858D01*
X72709047Y45950000D01*
X72804285Y45807143D01*
X72899523Y45521429D01*
X72994761Y44950000D01*
X72994761Y44235715D01*
X72899523Y43664286D01*
X72804285Y43378572D01*
X72709047Y43235715D01*
X72518571Y43092858D01*
X72328095Y43092858D01*
X72137619Y43235715D01*
X72042380Y43378572D01*
X71947142Y43664286D01*
X71851904Y44235715D01*
X71851904Y44950000D01*
X71947142Y45521429D01*
X72042380Y45807143D01*
X72137619Y45950000D01*
X72328095Y46092858D01*
X73375714Y42807143D02*
X74899523Y42807143D01*
X75280476Y43235715D02*
X75566190Y43092858D01*
X76042380Y43092858D01*
X76232857Y43235715D01*
X76328095Y43378572D01*
X76423333Y43664286D01*
X76423333Y43950000D01*
X76328095Y44235715D01*
X76232857Y44378572D01*
X76042380Y44521429D01*
X75661428Y44664286D01*
X75470952Y44807143D01*
X75375714Y44950000D01*
X75280476Y45235715D01*
X75280476Y45521429D01*
X75375714Y45807143D01*
X75470952Y45950000D01*
X75661428Y46092858D01*
X76137619Y46092858D01*
X76423333Y45950000D01*
X77280476Y43092858D02*
X77280476Y46092858D01*
X77756666Y46092858D01*
X78042380Y45950000D01*
X78232857Y45664286D01*
X78328095Y45378572D01*
X78423333Y44807143D01*
X78423333Y44378572D01*
X78328095Y43807143D01*
X78232857Y43521429D01*
X78042380Y43235715D01*
X77756666Y43092858D01*
X77280476Y43092858D01*
X79280476Y44235715D02*
X80804285Y44235715D01*
X80042380Y43092858D02*
X80042380Y45378572D01*
X81756666Y43092858D02*
X81756666Y46092858D01*
X82899523Y43092858D01*
X82899523Y46092858D01*
X83851904Y43092858D02*
X83851904Y45092858D01*
X83851904Y46092858D02*
X83756666Y45950000D01*
X83851904Y45807143D01*
X83947142Y45950000D01*
X83851904Y46092858D01*
X83851904Y45807143D01*
X84709047Y43235715D02*
X84899523Y43092858D01*
X85280476Y43092858D01*
X85470952Y43235715D01*
X85566190Y43521429D01*
X85566190Y43664286D01*
X85470952Y43950000D01*
X85280476Y44092858D01*
X84994761Y44092858D01*
X84804285Y44235715D01*
X84709047Y44521429D01*
X84709047Y44664286D01*
X84804285Y44950000D01*
X84994761Y45092858D01*
X85280476Y45092858D01*
X85470952Y44950000D01*
X87185238Y43235715D02*
X86994761Y43092858D01*
X86613809Y43092858D01*
X86423333Y43235715D01*
X86328095Y43521429D01*
X86328095Y44664286D01*
X86423333Y44950000D01*
X86613809Y45092858D01*
X86994761Y45092858D01*
X87185238Y44950000D01*
X87280476Y44664286D01*
X87280476Y44378572D01*
X86328095Y44092858D01*
X89280476Y43092858D02*
X88613809Y44521429D01*
X88137619Y43092858D02*
X88137619Y46092858D01*
X88899523Y46092858D01*
X89090000Y45950000D01*
X89185238Y45807143D01*
X89280476Y45521429D01*
X89280476Y45092858D01*
X89185238Y44807143D01*
X89090000Y44664286D01*
X88899523Y44521429D01*
X88137619Y44521429D01*
X90994761Y43092858D02*
X90994761Y44664286D01*
X90899523Y44950000D01*
X90709047Y45092858D01*
X90328095Y45092858D01*
X90137619Y44950000D01*
X90994761Y43235715D02*
X90804285Y43092858D01*
X90328095Y43092858D01*
X90137619Y43235715D01*
X90042380Y43521429D01*
X90042380Y43807143D01*
X90137619Y44092858D01*
X90328095Y44235715D01*
X90804285Y44235715D01*
X90994761Y44378572D01*
X91947142Y43092858D02*
X91947142Y45092858D01*
X91947142Y44807143D02*
X92042380Y44950000D01*
X92232857Y45092858D01*
X92518571Y45092858D01*
X92709047Y44950000D01*
X92804285Y44664286D01*
X92804285Y43092858D01*
X92804285Y44664286D02*
X92899523Y44950000D01*
X93090000Y45092858D01*
X93375714Y45092858D01*
X93566190Y44950000D01*
X93661428Y44664286D01*
X93661428Y43092858D01*
X95280476Y44664286D02*
X94613809Y44664286D01*
X94613809Y43092858D02*
X94613809Y46092858D01*
X95566190Y46092858D01*
X96328095Y43092858D02*
X96328095Y45092858D01*
X96328095Y46092858D02*
X96232857Y45950000D01*
X96328095Y45807143D01*
X96423333Y45950000D01*
X96328095Y46092858D01*
X96328095Y45807143D01*
X97566190Y43092858D02*
X97375714Y43235715D01*
X97280476Y43521429D01*
X97280476Y46092858D01*
X99090000Y43235715D02*
X98899523Y43092858D01*
X98518571Y43092858D01*
X98328095Y43235715D01*
X98232857Y43521429D01*
X98232857Y44664286D01*
X98328095Y44950000D01*
X98518571Y45092858D01*
X98899523Y45092858D01*
X99090000Y44950000D01*
X99185238Y44664286D01*
X99185238Y44378572D01*
X98232857Y44092858D01*
X102709047Y43092858D02*
X102042380Y44521429D01*
X101566190Y43092858D02*
X101566190Y46092858D01*
X102328095Y46092858D01*
X102518571Y45950000D01*
X102613809Y45807143D01*
X102709047Y45521429D01*
X102709047Y45092858D01*
X102613809Y44807143D01*
X102518571Y44664286D01*
X102328095Y44521429D01*
X101566190Y44521429D01*
X104328095Y43235715D02*
X104137619Y43092858D01*
X103756666Y43092858D01*
X103566190Y43235715D01*
X103470952Y43521429D01*
X103470952Y44664286D01*
X103566190Y44950000D01*
X103756666Y45092858D01*
X104137619Y45092858D01*
X104328095Y44950000D01*
X104423333Y44664286D01*
X104423333Y44378572D01*
X103470952Y44092858D01*
X105090000Y45092858D02*
X105566190Y43092858D01*
X106042380Y45092858D01*
X107851904Y43092858D02*
X106709047Y43092858D01*
X107280476Y43092858D02*
X107280476Y46092858D01*
X107090000Y45664286D01*
X106899523Y45378572D01*
X106709047Y45235715D01*
X108709047Y43378572D02*
X108804285Y43235715D01*
X108709047Y43092858D01*
X108613809Y43235715D01*
X108709047Y43378572D01*
X108709047Y43092858D01*
X110042380Y46092858D02*
X110232857Y46092858D01*
X110423333Y45950000D01*
X110518571Y45807143D01*
X110613809Y45521429D01*
X110709047Y44950000D01*
X110709047Y44235715D01*
X110613809Y43664286D01*
X110518571Y43378572D01*
X110423333Y43235715D01*
X110232857Y43092858D01*
X110042380Y43092858D01*
X109851904Y43235715D01*
X109756666Y43378572D01*
X109661428Y43664286D01*
X109566190Y44235715D01*
X109566190Y44950000D01*
X109661428Y45521429D01*
X109756666Y45807143D01*
X109851904Y45950000D01*
X110042380Y46092858D01*
D10*
X109839285Y53268572D02*
X110601190Y53268572D01*
X110220238Y52887620D02*
X110220238Y53649524D01*
X111553571Y53887620D02*
X111077380Y53887620D01*
X111029761Y53411429D01*
X111077380Y53459048D01*
X111172619Y53506667D01*
X111410714Y53506667D01*
X111505952Y53459048D01*
X111553571Y53411429D01*
X111601190Y53316191D01*
X111601190Y53078096D01*
X111553571Y52982858D01*
X111505952Y52935239D01*
X111410714Y52887620D01*
X111172619Y52887620D01*
X111077380Y52935239D01*
X111029761Y52982858D01*
X111886904Y53887620D02*
X112220238Y52887620D01*
X112553571Y53887620D01*
X65278095Y53840000D02*
X65182857Y53887620D01*
X65040000Y53887620D01*
X64897142Y53840000D01*
X64801904Y53744762D01*
X64754285Y53649524D01*
X64706666Y53459048D01*
X64706666Y53316191D01*
X64754285Y53125715D01*
X64801904Y53030477D01*
X64897142Y52935239D01*
X65040000Y52887620D01*
X65135238Y52887620D01*
X65278095Y52935239D01*
X65325714Y52982858D01*
X65325714Y53316191D01*
X65135238Y53316191D01*
X65754285Y52887620D02*
X65754285Y53887620D01*
X66325714Y52887620D01*
X66325714Y53887620D01*
X66801904Y52887620D02*
X66801904Y53887620D01*
X67040000Y53887620D01*
X67182857Y53840000D01*
X67278095Y53744762D01*
X67325714Y53649524D01*
X67373333Y53459048D01*
X67373333Y53316191D01*
X67325714Y53125715D01*
X67278095Y53030477D01*
X67182857Y52935239D01*
X67040000Y52887620D01*
X66801904Y52887620D01*
X15494190Y74541048D02*
X15398952Y74588667D01*
X15351333Y74636286D01*
X15303714Y74731524D01*
X15303714Y74779143D01*
X15351333Y74874381D01*
X15398952Y74922000D01*
X15494190Y74969620D01*
X15684666Y74969620D01*
X15779904Y74922000D01*
X15827523Y74874381D01*
X15875142Y74779143D01*
X15875142Y74731524D01*
X15827523Y74636286D01*
X15779904Y74588667D01*
X15684666Y74541048D01*
X15494190Y74541048D01*
X15398952Y74493429D01*
X15351333Y74445810D01*
X15303714Y74350572D01*
X15303714Y74160096D01*
X15351333Y74064858D01*
X15398952Y74017239D01*
X15494190Y73969620D01*
X15684666Y73969620D01*
X15779904Y74017239D01*
X15827523Y74064858D01*
X15875142Y74160096D01*
X15875142Y74350572D01*
X15827523Y74445810D01*
X15779904Y74493429D01*
X15684666Y74541048D01*
X16256095Y74874381D02*
X16303714Y74922000D01*
X16398952Y74969620D01*
X16637047Y74969620D01*
X16732285Y74922000D01*
X16779904Y74874381D01*
X16827523Y74779143D01*
X16827523Y74683905D01*
X16779904Y74541048D01*
X16208476Y73969620D01*
X16827523Y73969620D01*
X17732285Y74969620D02*
X17256095Y74969620D01*
X17208476Y74493429D01*
X17256095Y74541048D01*
X17351333Y74588667D01*
X17589428Y74588667D01*
X17684666Y74541048D01*
X17732285Y74493429D01*
X17779904Y74398191D01*
X17779904Y74160096D01*
X17732285Y74064858D01*
X17684666Y74017239D01*
X17589428Y73969620D01*
X17351333Y73969620D01*
X17256095Y74017239D01*
X17208476Y74064858D01*
X18684666Y74969620D02*
X18208476Y74969620D01*
X18160857Y74493429D01*
X18208476Y74541048D01*
X18303714Y74588667D01*
X18541809Y74588667D01*
X18637047Y74541048D01*
X18684666Y74493429D01*
X18732285Y74398191D01*
X18732285Y74160096D01*
X18684666Y74064858D01*
X18637047Y74017239D01*
X18541809Y73969620D01*
X18303714Y73969620D01*
X18208476Y74017239D01*
X18160857Y74064858D01*
X46506142Y100369620D02*
X47172809Y100369620D01*
X46744238Y99369620D01*
X47982333Y100036286D02*
X47982333Y99369620D01*
X47744238Y100417239D02*
X47506142Y99702953D01*
X48125190Y99702953D01*
X48982333Y99369620D02*
X48506142Y99369620D01*
X48506142Y100369620D01*
X49268047Y99417239D02*
X49410904Y99369620D01*
X49649000Y99369620D01*
X49744238Y99417239D01*
X49791857Y99464858D01*
X49839476Y99560096D01*
X49839476Y99655334D01*
X49791857Y99750572D01*
X49744238Y99798191D01*
X49649000Y99845810D01*
X49458523Y99893429D01*
X49363285Y99941048D01*
X49315666Y99988667D01*
X49268047Y100083905D01*
X49268047Y100179143D01*
X49315666Y100274381D01*
X49363285Y100322000D01*
X49458523Y100369620D01*
X49696619Y100369620D01*
X49839476Y100322000D01*
X50458523Y100369620D02*
X50553761Y100369620D01*
X50649000Y100322000D01*
X50696619Y100274381D01*
X50744238Y100179143D01*
X50791857Y99988667D01*
X50791857Y99750572D01*
X50744238Y99560096D01*
X50696619Y99464858D01*
X50649000Y99417239D01*
X50553761Y99369620D01*
X50458523Y99369620D01*
X50363285Y99417239D01*
X50315666Y99464858D01*
X50268047Y99560096D01*
X50220428Y99750572D01*
X50220428Y99988667D01*
X50268047Y100179143D01*
X50315666Y100274381D01*
X50363285Y100322000D01*
X50458523Y100369620D01*
X51649000Y100036286D02*
X51649000Y99369620D01*
X51410904Y100417239D02*
X51172809Y99702953D01*
X51791857Y99702953D01*
X58957142Y68147620D02*
X59052380Y68147620D01*
X59147619Y68100000D01*
X59195238Y68052381D01*
X59242857Y67957143D01*
X59290476Y67766667D01*
X59290476Y67528572D01*
X59242857Y67338096D01*
X59195238Y67242858D01*
X59147619Y67195239D01*
X59052380Y67147620D01*
X58957142Y67147620D01*
X58861904Y67195239D01*
X58814285Y67242858D01*
X58766666Y67338096D01*
X58719047Y67528572D01*
X58719047Y67766667D01*
X58766666Y67957143D01*
X58814285Y68052381D01*
X58861904Y68100000D01*
X58957142Y68147620D01*
X59719047Y67242858D02*
X59766666Y67195239D01*
X59719047Y67147620D01*
X59671428Y67195239D01*
X59719047Y67242858D01*
X59719047Y67147620D01*
X60719047Y67147620D02*
X60147619Y67147620D01*
X60433333Y67147620D02*
X60433333Y68147620D01*
X60338095Y68004762D01*
X60242857Y67909524D01*
X60147619Y67861905D01*
X61576190Y67814286D02*
X61576190Y67147620D01*
X61147619Y67814286D02*
X61147619Y67290477D01*
X61195238Y67195239D01*
X61290476Y67147620D01*
X61433333Y67147620D01*
X61528571Y67195239D01*
X61576190Y67242858D01*
X62385714Y67671429D02*
X62052380Y67671429D01*
X62052380Y67147620D02*
X62052380Y68147620D01*
X62528571Y68147620D01*
X34679142Y97194620D02*
X34774380Y97194620D01*
X34869619Y97147000D01*
X34917238Y97099381D01*
X34964857Y97004143D01*
X35012476Y96813667D01*
X35012476Y96575572D01*
X34964857Y96385096D01*
X34917238Y96289858D01*
X34869619Y96242239D01*
X34774380Y96194620D01*
X34679142Y96194620D01*
X34583904Y96242239D01*
X34536285Y96289858D01*
X34488666Y96385096D01*
X34441047Y96575572D01*
X34441047Y96813667D01*
X34488666Y97004143D01*
X34536285Y97099381D01*
X34583904Y97147000D01*
X34679142Y97194620D01*
X35441047Y96289858D02*
X35488666Y96242239D01*
X35441047Y96194620D01*
X35393428Y96242239D01*
X35441047Y96289858D01*
X35441047Y96194620D01*
X36441047Y96194620D02*
X35869619Y96194620D01*
X36155333Y96194620D02*
X36155333Y97194620D01*
X36060095Y97051762D01*
X35964857Y96956524D01*
X35869619Y96908905D01*
X37298190Y96861286D02*
X37298190Y96194620D01*
X36869619Y96861286D02*
X36869619Y96337477D01*
X36917238Y96242239D01*
X37012476Y96194620D01*
X37155333Y96194620D01*
X37250571Y96242239D01*
X37298190Y96289858D01*
X38107714Y96718429D02*
X37774380Y96718429D01*
X37774380Y96194620D02*
X37774380Y97194620D01*
X38250571Y97194620D01*
X25637380Y126007620D02*
X25065952Y126007620D01*
X25351666Y126007620D02*
X25351666Y127007620D01*
X25256428Y126864762D01*
X25161190Y126769524D01*
X25065952Y126721905D01*
X26256428Y127007620D02*
X26351666Y127007620D01*
X26446904Y126960000D01*
X26494523Y126912381D01*
X26542142Y126817143D01*
X26589761Y126626667D01*
X26589761Y126388572D01*
X26542142Y126198096D01*
X26494523Y126102858D01*
X26446904Y126055239D01*
X26351666Y126007620D01*
X26256428Y126007620D01*
X26161190Y126055239D01*
X26113571Y126102858D01*
X26065952Y126198096D01*
X26018333Y126388572D01*
X26018333Y126626667D01*
X26065952Y126817143D01*
X26113571Y126912381D01*
X26161190Y126960000D01*
X26256428Y127007620D01*
X27208809Y127007620D02*
X27304047Y127007620D01*
X27399285Y126960000D01*
X27446904Y126912381D01*
X27494523Y126817143D01*
X27542142Y126626667D01*
X27542142Y126388572D01*
X27494523Y126198096D01*
X27446904Y126102858D01*
X27399285Y126055239D01*
X27304047Y126007620D01*
X27208809Y126007620D01*
X27113571Y126055239D01*
X27065952Y126102858D01*
X27018333Y126198096D01*
X26970714Y126388572D01*
X26970714Y126626667D01*
X27018333Y126817143D01*
X27065952Y126912381D01*
X27113571Y126960000D01*
X27208809Y127007620D01*
X28399285Y126674286D02*
X28399285Y126007620D01*
X27970714Y126674286D02*
X27970714Y126150477D01*
X28018333Y126055239D01*
X28113571Y126007620D01*
X28256428Y126007620D01*
X28351666Y126055239D01*
X28399285Y126102858D01*
X29208809Y126531429D02*
X28875476Y126531429D01*
X28875476Y126007620D02*
X28875476Y127007620D01*
X29351666Y127007620D01*
X5982142Y97432620D02*
X6077380Y97432620D01*
X6172619Y97385000D01*
X6220238Y97337381D01*
X6267857Y97242143D01*
X6315476Y97051667D01*
X6315476Y96813572D01*
X6267857Y96623096D01*
X6220238Y96527858D01*
X6172619Y96480239D01*
X6077380Y96432620D01*
X5982142Y96432620D01*
X5886904Y96480239D01*
X5839285Y96527858D01*
X5791666Y96623096D01*
X5744047Y96813572D01*
X5744047Y97051667D01*
X5791666Y97242143D01*
X5839285Y97337381D01*
X5886904Y97385000D01*
X5982142Y97432620D01*
X6744047Y96527858D02*
X6791666Y96480239D01*
X6744047Y96432620D01*
X6696428Y96480239D01*
X6744047Y96527858D01*
X6744047Y96432620D01*
X7744047Y96432620D02*
X7172619Y96432620D01*
X7458333Y96432620D02*
X7458333Y97432620D01*
X7363095Y97289762D01*
X7267857Y97194524D01*
X7172619Y97146905D01*
X8601190Y97099286D02*
X8601190Y96432620D01*
X8172619Y97099286D02*
X8172619Y96575477D01*
X8220238Y96480239D01*
X8315476Y96432620D01*
X8458333Y96432620D01*
X8553571Y96480239D01*
X8601190Y96527858D01*
X9410714Y96956429D02*
X9077380Y96956429D01*
X9077380Y96432620D02*
X9077380Y97432620D01*
X9553571Y97432620D01*
X16915142Y100369620D02*
X17581809Y100369620D01*
X17153238Y99369620D01*
X18391333Y100036286D02*
X18391333Y99369620D01*
X18153238Y100417239D02*
X17915142Y99702953D01*
X18534190Y99702953D01*
X19391333Y99369620D02*
X18915142Y99369620D01*
X18915142Y100369620D01*
X19677047Y99417239D02*
X19819904Y99369620D01*
X20058000Y99369620D01*
X20153238Y99417239D01*
X20200857Y99464858D01*
X20248476Y99560096D01*
X20248476Y99655334D01*
X20200857Y99750572D01*
X20153238Y99798191D01*
X20058000Y99845810D01*
X19867523Y99893429D01*
X19772285Y99941048D01*
X19724666Y99988667D01*
X19677047Y100083905D01*
X19677047Y100179143D01*
X19724666Y100274381D01*
X19772285Y100322000D01*
X19867523Y100369620D01*
X20105619Y100369620D01*
X20248476Y100322000D01*
X20581809Y100369620D02*
X21200857Y100369620D01*
X20867523Y99988667D01*
X21010380Y99988667D01*
X21105619Y99941048D01*
X21153238Y99893429D01*
X21200857Y99798191D01*
X21200857Y99560096D01*
X21153238Y99464858D01*
X21105619Y99417239D01*
X21010380Y99369620D01*
X20724666Y99369620D01*
X20629428Y99417239D01*
X20581809Y99464858D01*
X21819904Y100369620D02*
X21915142Y100369620D01*
X22010380Y100322000D01*
X22058000Y100274381D01*
X22105619Y100179143D01*
X22153238Y99988667D01*
X22153238Y99750572D01*
X22105619Y99560096D01*
X22058000Y99464858D01*
X22010380Y99417239D01*
X21915142Y99369620D01*
X21819904Y99369620D01*
X21724666Y99417239D01*
X21677047Y99464858D01*
X21629428Y99560096D01*
X21581809Y99750572D01*
X21581809Y99988667D01*
X21629428Y100179143D01*
X21677047Y100274381D01*
X21724666Y100322000D01*
X21819904Y100369620D01*
X13195238Y6033334D02*
X13671428Y6033334D01*
X13100000Y5747620D02*
X13433333Y6747620D01*
X13766666Y5747620D01*
X14100000Y5747620D02*
X14100000Y6414286D01*
X14100000Y6223810D02*
X14147619Y6319048D01*
X14195238Y6366667D01*
X14290476Y6414286D01*
X14385714Y6414286D01*
X15147619Y5747620D02*
X15147619Y6747620D01*
X15147619Y5795239D02*
X15052380Y5747620D01*
X14861904Y5747620D01*
X14766666Y5795239D01*
X14719047Y5842858D01*
X14671428Y5938096D01*
X14671428Y6223810D01*
X14719047Y6319048D01*
X14766666Y6366667D01*
X14861904Y6414286D01*
X15052380Y6414286D01*
X15147619Y6366667D01*
X16052380Y6414286D02*
X16052380Y5747620D01*
X15623809Y6414286D02*
X15623809Y5890477D01*
X15671428Y5795239D01*
X15766666Y5747620D01*
X15909523Y5747620D01*
X16004761Y5795239D01*
X16052380Y5842858D01*
X16528571Y5747620D02*
X16528571Y6414286D01*
X16528571Y6747620D02*
X16480952Y6700000D01*
X16528571Y6652381D01*
X16576190Y6700000D01*
X16528571Y6747620D01*
X16528571Y6652381D01*
X17004761Y6414286D02*
X17004761Y5747620D01*
X17004761Y6319048D02*
X17052380Y6366667D01*
X17147619Y6414286D01*
X17290476Y6414286D01*
X17385714Y6366667D01*
X17433333Y6271429D01*
X17433333Y5747620D01*
X18052380Y5747620D02*
X17957142Y5795239D01*
X17909523Y5842858D01*
X17861904Y5938096D01*
X17861904Y6223810D01*
X17909523Y6319048D01*
X17957142Y6366667D01*
X18052380Y6414286D01*
X18195238Y6414286D01*
X18290476Y6366667D01*
X18338095Y6319048D01*
X18385714Y6223810D01*
X18385714Y5938096D01*
X18338095Y5842858D01*
X18290476Y5795239D01*
X18195238Y5747620D01*
X18052380Y5747620D01*
X18576190Y5652381D02*
X19338095Y5652381D01*
X19576190Y5747620D02*
X19576190Y6747620D01*
X19957142Y6747620D01*
X20052380Y6700000D01*
X20100000Y6652381D01*
X20147619Y6557143D01*
X20147619Y6414286D01*
X20100000Y6319048D01*
X20052380Y6271429D01*
X19957142Y6223810D01*
X19576190Y6223810D01*
X20576190Y5747620D02*
X20576190Y6414286D01*
X20576190Y6223810D02*
X20623809Y6319048D01*
X20671428Y6366667D01*
X20766666Y6414286D01*
X20861904Y6414286D01*
X21338095Y5747620D02*
X21242857Y5795239D01*
X21195238Y5842858D01*
X21147619Y5938096D01*
X21147619Y6223810D01*
X21195238Y6319048D01*
X21242857Y6366667D01*
X21338095Y6414286D01*
X21480952Y6414286D01*
X21576190Y6366667D01*
X21623809Y6319048D01*
X21671428Y6223810D01*
X21671428Y5938096D01*
X21623809Y5842858D01*
X21576190Y5795239D01*
X21480952Y5747620D01*
X21338095Y5747620D01*
X21861904Y5652381D02*
X22623809Y5652381D01*
X22861904Y5747620D02*
X22861904Y6747620D01*
X23195238Y6033334D01*
X23528571Y6747620D01*
X23528571Y5747620D01*
X24004761Y5747620D02*
X24004761Y6414286D01*
X24004761Y6747620D02*
X23957142Y6700000D01*
X24004761Y6652381D01*
X24052380Y6700000D01*
X24004761Y6747620D01*
X24004761Y6652381D01*
X24480952Y6414286D02*
X24480952Y5747620D01*
X24480952Y6319048D02*
X24528571Y6366667D01*
X24623809Y6414286D01*
X24766666Y6414286D01*
X24861904Y6366667D01*
X24909523Y6271429D01*
X24909523Y5747620D01*
X25385714Y5747620D02*
X25385714Y6414286D01*
X25385714Y6747620D02*
X25338095Y6700000D01*
X25385714Y6652381D01*
X25433333Y6700000D01*
X25385714Y6747620D01*
X25385714Y6652381D01*
X25623809Y5652381D02*
X26385714Y5652381D01*
X27100000Y6747620D02*
X26623809Y6747620D01*
X26576190Y6271429D01*
X26623809Y6319048D01*
X26719047Y6366667D01*
X26957142Y6366667D01*
X27052380Y6319048D01*
X27100000Y6271429D01*
X27147619Y6176191D01*
X27147619Y5938096D01*
X27100000Y5842858D01*
X27052380Y5795239D01*
X26957142Y5747620D01*
X26719047Y5747620D01*
X26623809Y5795239D01*
X26576190Y5842858D01*
X27433333Y6747620D02*
X27766666Y5747620D01*
X28099999Y6747620D01*
D12*
X61330000Y66148000D02*
X61330000Y61908000D01*
X58590000Y66148000D02*
X58590000Y61908000D01*
X61330000Y66148000D02*
X60625000Y66148000D01*
X59295000Y66148000D02*
X58590000Y66148000D01*
X61330000Y61908000D02*
X60625000Y61908000D01*
X59295000Y61908000D02*
X58590000Y61908000D01*
X36165000Y90864000D02*
X35460000Y90864000D01*
X38200000Y90864000D02*
X37495000Y90864000D01*
X36165000Y95104000D02*
X35460000Y95104000D01*
X38200000Y95104000D02*
X37495000Y95104000D01*
X35460000Y95104000D02*
X35460000Y90864000D01*
X38200000Y95104000D02*
X38200000Y90864000D01*
X9195000Y95339000D02*
X9195000Y91099000D01*
X6455000Y95339000D02*
X6455000Y91099000D01*
X9195000Y95339000D02*
X8490000Y95339000D01*
X7160000Y95339000D02*
X6455000Y95339000D01*
X9195000Y91099000D02*
X8490000Y91099000D01*
X7160000Y91099000D02*
X6455000Y91099000D01*
X59004000Y38481000D02*
X59004000Y37151000D01*
X59004000Y37151000D02*
X57674000Y37151000D01*
X56404000Y37151000D02*
X43644000Y37151000D01*
X43644000Y39811000D02*
X43644000Y37151000D01*
X56404000Y39811000D02*
X43644000Y39811000D01*
X56404000Y39811000D02*
X56404000Y37151000D01*
X10051000Y95449000D02*
X10051000Y94199000D01*
X27951000Y95449000D02*
X10051000Y95449000D01*
X27951000Y90949000D02*
X27951000Y95449000D01*
X10051000Y90949000D02*
X27951000Y90949000D01*
X10051000Y92199000D02*
X10051000Y90949000D01*
X10051000Y94199000D02*
G75*
G02*
X10051000Y92199000I0J-1000000D01*
G01*
X7195000Y70068000D02*
X7195000Y65008000D01*
X58115000Y70068000D02*
X7195000Y70068000D01*
X58115000Y57948000D02*
X58115000Y70068000D01*
X7195000Y57948000D02*
X58115000Y57948000D01*
X7195000Y63008000D02*
X7195000Y57948000D01*
X7195000Y65008000D02*
G75*
G02*
X7195000Y63008000I0J-1000000D01*
G01*
X63164000Y31926000D02*
X39464000Y31926000D01*
X63164000Y126000D02*
X63164000Y31926000D01*
X39464000Y126000D02*
X63164000Y126000D01*
X39464000Y31926000D02*
X39464000Y126000D01*
X62814000Y31556000D02*
X62814000Y30226000D01*
X61484000Y31556000D02*
X62814000Y31556000D01*
X60214000Y31556000D02*
X60214000Y28896000D01*
X60214000Y28896000D02*
X39834000Y28896000D01*
X60214000Y31556000D02*
X39834000Y31556000D01*
X39834000Y31556000D02*
X39834000Y28896000D01*
X12335000Y8255000D02*
X30369000Y8255000D01*
X12335000Y41529000D02*
X12335000Y8255000D01*
X27702000Y13462000D02*
X27702000Y41529000D01*
X27702000Y13462000D02*
X30369000Y13462000D01*
X30369000Y41529000D02*
X12332000Y41529000D01*
X15002000Y10922000D02*
X15002000Y41529000D01*
X15002000Y10922000D02*
X12332000Y10922000D01*
X30369000Y8255000D02*
X30369000Y10922000D01*
X30369000Y13462000D02*
X30369000Y41529000D01*
X27702000Y10922000D02*
X30369000Y10922000D01*
X27702000Y13462000D02*
X27702000Y10922000D01*
X28665000Y125129775D02*
X28165000Y125129775D01*
X28415000Y125379775D02*
X28415000Y124879775D01*
X27224000Y119974000D02*
X26656000Y119974000D01*
X27458000Y120014000D02*
X26422000Y120014000D01*
X27617000Y120054000D02*
X26263000Y120054000D01*
X27745000Y120094000D02*
X26135000Y120094000D01*
X27855000Y120134000D02*
X26025000Y120134000D01*
X27951000Y120174000D02*
X25929000Y120174000D01*
X28038000Y120214000D02*
X25842000Y120214000D01*
X28118000Y120254000D02*
X25762000Y120254000D01*
X25900000Y120294000D02*
X25689000Y120294000D01*
X28191000Y120294000D02*
X27980000Y120294000D01*
X25900000Y120334000D02*
X25621000Y120334000D01*
X28259000Y120334000D02*
X27980000Y120334000D01*
X25900000Y120374000D02*
X25557000Y120374000D01*
X28323000Y120374000D02*
X27980000Y120374000D01*
X25900000Y120414000D02*
X25497000Y120414000D01*
X28383000Y120414000D02*
X27980000Y120414000D01*
X25900000Y120454000D02*
X25440000Y120454000D01*
X28440000Y120454000D02*
X27980000Y120454000D01*
X25900000Y120494000D02*
X25386000Y120494000D01*
X28494000Y120494000D02*
X27980000Y120494000D01*
X25900000Y120534000D02*
X25335000Y120534000D01*
X28545000Y120534000D02*
X27980000Y120534000D01*
X25900000Y120574000D02*
X25287000Y120574000D01*
X28593000Y120574000D02*
X27980000Y120574000D01*
X25900000Y120614000D02*
X25241000Y120614000D01*
X28639000Y120614000D02*
X27980000Y120614000D01*
X25900000Y120654000D02*
X25197000Y120654000D01*
X28683000Y120654000D02*
X27980000Y120654000D01*
X25900000Y120694000D02*
X25155000Y120694000D01*
X28725000Y120694000D02*
X27980000Y120694000D01*
X25900000Y120734000D02*
X25114000Y120734000D01*
X28766000Y120734000D02*
X27980000Y120734000D01*
X25900000Y120774000D02*
X25076000Y120774000D01*
X28804000Y120774000D02*
X27980000Y120774000D01*
X25900000Y120814000D02*
X25039000Y120814000D01*
X28841000Y120814000D02*
X27980000Y120814000D01*
X25900000Y120854000D02*
X25003000Y120854000D01*
X28877000Y120854000D02*
X27980000Y120854000D01*
X25900000Y120894000D02*
X24969000Y120894000D01*
X28911000Y120894000D02*
X27980000Y120894000D01*
X25900000Y120934000D02*
X24936000Y120934000D01*
X28944000Y120934000D02*
X27980000Y120934000D01*
X25900000Y120974000D02*
X24905000Y120974000D01*
X28975000Y120974000D02*
X27980000Y120974000D01*
X25900000Y121014000D02*
X24875000Y121014000D01*
X29005000Y121014000D02*
X27980000Y121014000D01*
X25900000Y121054000D02*
X24845000Y121054000D01*
X29035000Y121054000D02*
X27980000Y121054000D01*
X25900000Y121094000D02*
X24818000Y121094000D01*
X29062000Y121094000D02*
X27980000Y121094000D01*
X25900000Y121134000D02*
X24791000Y121134000D01*
X29089000Y121134000D02*
X27980000Y121134000D01*
X25900000Y121174000D02*
X24765000Y121174000D01*
X29115000Y121174000D02*
X27980000Y121174000D01*
X25900000Y121214000D02*
X24740000Y121214000D01*
X29140000Y121214000D02*
X27980000Y121214000D01*
X25900000Y121254000D02*
X24716000Y121254000D01*
X29164000Y121254000D02*
X27980000Y121254000D01*
X25900000Y121294000D02*
X24693000Y121294000D01*
X29187000Y121294000D02*
X27980000Y121294000D01*
X25900000Y121334000D02*
X24672000Y121334000D01*
X29208000Y121334000D02*
X27980000Y121334000D01*
X25900000Y121374000D02*
X24650000Y121374000D01*
X29230000Y121374000D02*
X27980000Y121374000D01*
X25900000Y121414000D02*
X24630000Y121414000D01*
X29250000Y121414000D02*
X27980000Y121414000D01*
X25900000Y121454000D02*
X24611000Y121454000D01*
X29269000Y121454000D02*
X27980000Y121454000D01*
X25900000Y121494000D02*
X24592000Y121494000D01*
X29288000Y121494000D02*
X27980000Y121494000D01*
X25900000Y121534000D02*
X24575000Y121534000D01*
X29305000Y121534000D02*
X27980000Y121534000D01*
X25900000Y121574000D02*
X24558000Y121574000D01*
X29322000Y121574000D02*
X27980000Y121574000D01*
X25900000Y121614000D02*
X24542000Y121614000D01*
X29338000Y121614000D02*
X27980000Y121614000D01*
X25900000Y121654000D02*
X24526000Y121654000D01*
X29354000Y121654000D02*
X27980000Y121654000D01*
X25900000Y121694000D02*
X24512000Y121694000D01*
X29368000Y121694000D02*
X27980000Y121694000D01*
X25900000Y121734000D02*
X24498000Y121734000D01*
X29382000Y121734000D02*
X27980000Y121734000D01*
X25900000Y121774000D02*
X24485000Y121774000D01*
X29395000Y121774000D02*
X27980000Y121774000D01*
X25900000Y121814000D02*
X24472000Y121814000D01*
X29408000Y121814000D02*
X27980000Y121814000D01*
X25900000Y121854000D02*
X24460000Y121854000D01*
X29420000Y121854000D02*
X27980000Y121854000D01*
X25900000Y121895000D02*
X24449000Y121895000D01*
X29431000Y121895000D02*
X27980000Y121895000D01*
X25900000Y121935000D02*
X24439000Y121935000D01*
X29441000Y121935000D02*
X27980000Y121935000D01*
X25900000Y121975000D02*
X24429000Y121975000D01*
X29451000Y121975000D02*
X27980000Y121975000D01*
X25900000Y122015000D02*
X24420000Y122015000D01*
X29460000Y122015000D02*
X27980000Y122015000D01*
X25900000Y122055000D02*
X24412000Y122055000D01*
X29468000Y122055000D02*
X27980000Y122055000D01*
X25900000Y122095000D02*
X24404000Y122095000D01*
X29476000Y122095000D02*
X27980000Y122095000D01*
X25900000Y122135000D02*
X24397000Y122135000D01*
X29483000Y122135000D02*
X27980000Y122135000D01*
X25900000Y122175000D02*
X24390000Y122175000D01*
X29490000Y122175000D02*
X27980000Y122175000D01*
X25900000Y122215000D02*
X24384000Y122215000D01*
X29496000Y122215000D02*
X27980000Y122215000D01*
X25900000Y122255000D02*
X24379000Y122255000D01*
X29501000Y122255000D02*
X27980000Y122255000D01*
X25900000Y122295000D02*
X24375000Y122295000D01*
X29505000Y122295000D02*
X27980000Y122295000D01*
X25900000Y122335000D02*
X24371000Y122335000D01*
X29509000Y122335000D02*
X27980000Y122335000D01*
X29513000Y122375000D02*
X24367000Y122375000D01*
X29516000Y122415000D02*
X24364000Y122415000D01*
X29518000Y122455000D02*
X24362000Y122455000D01*
X29519000Y122495000D02*
X24361000Y122495000D01*
X29520000Y122535000D02*
X24360000Y122535000D01*
X29520000Y122575000D02*
X24360000Y122575000D01*
X29560000Y122575000D02*
G75*
G03*
X29560000Y122575000I-2620000J0D01*
G01*
X70116000Y70000D02*
X70116000Y8670000D01*
X70116000Y8670000D02*
X101086000Y8670000D01*
X101086000Y8670000D02*
X101086000Y70000D01*
X89666000Y9564338D02*
X90166000Y9564338D01*
X90166000Y9564338D02*
X89916000Y9131325D01*
X89916000Y9131325D02*
X89666000Y9564338D01*
X90456000Y15899000D02*
X90456000Y16229000D01*
X90456000Y16229000D02*
X96996000Y16229000D01*
X96996000Y16229000D02*
X96996000Y15899000D01*
X90456000Y13819000D02*
X90456000Y13489000D01*
X90456000Y13489000D02*
X96996000Y13489000D01*
X96996000Y13489000D02*
X96996000Y13819000D01*
X92424000Y25300000D02*
X92424000Y25630000D01*
X85884000Y25300000D02*
X92424000Y25300000D01*
X85884000Y25630000D02*
X85884000Y25300000D01*
X92424000Y28040000D02*
X92424000Y27710000D01*
X85884000Y28040000D02*
X92424000Y28040000D01*
X85884000Y27710000D02*
X85884000Y28040000D01*
X88170000Y21868000D02*
X88170000Y22198000D01*
X88170000Y22198000D02*
X94710000Y22198000D01*
X94710000Y22198000D02*
X94710000Y21868000D01*
X88170000Y19788000D02*
X88170000Y19458000D01*
X88170000Y19458000D02*
X94710000Y19458000D01*
X94710000Y19458000D02*
X94710000Y19788000D01*
X38802000Y92218000D02*
X38802000Y90968000D01*
X38802000Y90968000D02*
X56702000Y90968000D01*
X56702000Y90968000D02*
X56702000Y95468000D01*
X56702000Y95468000D02*
X38802000Y95468000D01*
X38802000Y95468000D02*
X38802000Y94218000D01*
X38802000Y94218000D02*
G75*
G02*
X38802000Y92218000I0J-1000000D01*
G01*
X109280000Y52010000D02*
X107950000Y52010000D01*
X109280000Y53340000D02*
X109280000Y52010000D01*
X106680000Y52010000D02*
X104080000Y52010000D01*
X106680000Y54610000D02*
X106680000Y52010000D01*
X109280000Y54610000D02*
X106680000Y54610000D01*
X104080000Y52010000D02*
X104080000Y90230000D01*
X109280000Y54610000D02*
X109280000Y90230000D01*
X109280000Y90230000D02*
X104080000Y90230000D01*
X73720000Y90230000D02*
X68520000Y90230000D01*
X73720000Y54610000D02*
X73720000Y90230000D01*
X68520000Y52010000D02*
X68520000Y90230000D01*
X73720000Y54610000D02*
X71120000Y54610000D01*
X71120000Y54610000D02*
X71120000Y52010000D01*
X71120000Y52010000D02*
X68520000Y52010000D01*
X73720000Y53340000D02*
X73720000Y52010000D01*
X73720000Y52010000D02*
X72390000Y52010000D01*
D10*
X60033333Y60142858D02*
X59985714Y60095239D01*
X59842857Y60047620D01*
X59747619Y60047620D01*
X59604761Y60095239D01*
X59509523Y60190477D01*
X59461904Y60285715D01*
X59414285Y60476191D01*
X59414285Y60619048D01*
X59461904Y60809524D01*
X59509523Y60904762D01*
X59604761Y61000000D01*
X59747619Y61047620D01*
X59842857Y61047620D01*
X59985714Y61000000D01*
X60033333Y60952381D01*
X60366666Y61047620D02*
X60985714Y61047620D01*
X60652380Y60666667D01*
X60795238Y60666667D01*
X60890476Y60619048D01*
X60938095Y60571429D01*
X60985714Y60476191D01*
X60985714Y60238096D01*
X60938095Y60142858D01*
X60890476Y60095239D01*
X60795238Y60047620D01*
X60509523Y60047620D01*
X60414285Y60095239D01*
X60366666Y60142858D01*
X36373333Y89111858D02*
X36325714Y89064239D01*
X36182857Y89016620D01*
X36087619Y89016620D01*
X35944761Y89064239D01*
X35849523Y89159477D01*
X35801904Y89254715D01*
X35754285Y89445191D01*
X35754285Y89588048D01*
X35801904Y89778524D01*
X35849523Y89873762D01*
X35944761Y89969000D01*
X36087619Y90016620D01*
X36182857Y90016620D01*
X36325714Y89969000D01*
X36373333Y89921381D01*
X37325714Y89016620D02*
X36754285Y89016620D01*
X37040000Y89016620D02*
X37040000Y90016620D01*
X36944761Y89873762D01*
X36849523Y89778524D01*
X36754285Y89730905D01*
X7558333Y89527858D02*
X7510714Y89480239D01*
X7367857Y89432620D01*
X7272619Y89432620D01*
X7129761Y89480239D01*
X7034523Y89575477D01*
X6986904Y89670715D01*
X6939285Y89861191D01*
X6939285Y90004048D01*
X6986904Y90194524D01*
X7034523Y90289762D01*
X7129761Y90385000D01*
X7272619Y90432620D01*
X7367857Y90432620D01*
X7510714Y90385000D01*
X7558333Y90337381D01*
X7939285Y90337381D02*
X7986904Y90385000D01*
X8082142Y90432620D01*
X8320238Y90432620D01*
X8415476Y90385000D01*
X8463095Y90337381D01*
X8510714Y90242143D01*
X8510714Y90146905D01*
X8463095Y90004048D01*
X7891666Y89432620D01*
X8510714Y89432620D01*
X60110666Y39028620D02*
X60110666Y38314334D01*
X60063047Y38171477D01*
X59967809Y38076239D01*
X59824952Y38028620D01*
X59729714Y38028620D01*
X61015428Y39028620D02*
X60824952Y39028620D01*
X60729714Y38981000D01*
X60682095Y38933381D01*
X60586857Y38790524D01*
X60539238Y38600048D01*
X60539238Y38219096D01*
X60586857Y38123858D01*
X60634476Y38076239D01*
X60729714Y38028620D01*
X60920190Y38028620D01*
X61015428Y38076239D01*
X61063047Y38123858D01*
X61110666Y38219096D01*
X61110666Y38457191D01*
X61063047Y38552429D01*
X61015428Y38600048D01*
X60920190Y38647667D01*
X60729714Y38647667D01*
X60634476Y38600048D01*
X60586857Y38552429D01*
X60539238Y38457191D01*
X12700095Y100242620D02*
X12700095Y99433096D01*
X12747714Y99337858D01*
X12795333Y99290239D01*
X12890571Y99242620D01*
X13081047Y99242620D01*
X13176285Y99290239D01*
X13223904Y99337858D01*
X13271523Y99433096D01*
X13271523Y100242620D01*
X13700095Y100147381D02*
X13747714Y100195000D01*
X13842952Y100242620D01*
X14081047Y100242620D01*
X14176285Y100195000D01*
X14223904Y100147381D01*
X14271523Y100052143D01*
X14271523Y99956905D01*
X14223904Y99814048D01*
X13652476Y99242620D01*
X14271523Y99242620D01*
X10033095Y75096620D02*
X10033095Y74287096D01*
X10080714Y74191858D01*
X10128333Y74144239D01*
X10223571Y74096620D01*
X10414047Y74096620D01*
X10509285Y74144239D01*
X10556904Y74191858D01*
X10604523Y74287096D01*
X10604523Y75096620D01*
X10985476Y75096620D02*
X11604523Y75096620D01*
X11271190Y74715667D01*
X11414047Y74715667D01*
X11509285Y74668048D01*
X11556904Y74620429D01*
X11604523Y74525191D01*
X11604523Y74287096D01*
X11556904Y74191858D01*
X11509285Y74144239D01*
X11414047Y74096620D01*
X11128333Y74096620D01*
X11033095Y74144239D01*
X10985476Y74191858D01*
X51266666Y17447620D02*
X51266666Y16733334D01*
X51219047Y16590477D01*
X51123809Y16495239D01*
X50980952Y16447620D01*
X50885714Y16447620D01*
X52219047Y17447620D02*
X51742857Y17447620D01*
X51695238Y16971429D01*
X51742857Y17019048D01*
X51838095Y17066667D01*
X52076190Y17066667D01*
X52171428Y17019048D01*
X52219047Y16971429D01*
X52266666Y16876191D01*
X52266666Y16638096D01*
X52219047Y16542858D01*
X52171428Y16495239D01*
X52076190Y16447620D01*
X51838095Y16447620D01*
X51742857Y16495239D01*
X51695238Y16542858D01*
X44738095Y11033334D02*
X45214285Y11033334D01*
X44642857Y10747620D02*
X44976190Y11747620D01*
X45309523Y10747620D01*
X45642857Y11271429D02*
X45976190Y11271429D01*
X46119047Y10747620D02*
X45642857Y10747620D01*
X45642857Y11747620D01*
X46119047Y11747620D01*
X46547619Y11128572D02*
X47309523Y11128572D01*
X47785714Y10747620D02*
X47785714Y11414286D01*
X47785714Y11319048D02*
X47833333Y11366667D01*
X47928571Y11414286D01*
X48071428Y11414286D01*
X48166666Y11366667D01*
X48214285Y11271429D01*
X48214285Y10747620D01*
X48214285Y11271429D02*
X48261904Y11366667D01*
X48357142Y11414286D01*
X48500000Y11414286D01*
X48595238Y11366667D01*
X48642857Y11271429D01*
X48642857Y10747620D01*
X49119047Y10747620D02*
X49119047Y11414286D01*
X49119047Y11747620D02*
X49071428Y11700000D01*
X49119047Y11652381D01*
X49166666Y11700000D01*
X49119047Y11747620D01*
X49119047Y11652381D01*
X50023809Y10795239D02*
X49928571Y10747620D01*
X49738095Y10747620D01*
X49642857Y10795239D01*
X49595238Y10842858D01*
X49547619Y10938096D01*
X49547619Y11223810D01*
X49595238Y11319048D01*
X49642857Y11366667D01*
X49738095Y11414286D01*
X49928571Y11414286D01*
X50023809Y11366667D01*
X50452380Y10747620D02*
X50452380Y11414286D01*
X50452380Y11223810D02*
X50500000Y11319048D01*
X50547619Y11366667D01*
X50642857Y11414286D01*
X50738095Y11414286D01*
X51214285Y10747620D02*
X51119047Y10795239D01*
X51071428Y10842858D01*
X51023809Y10938096D01*
X51023809Y11223810D01*
X51071428Y11319048D01*
X51119047Y11366667D01*
X51214285Y11414286D01*
X51357142Y11414286D01*
X51452380Y11366667D01*
X51500000Y11319048D01*
X51547619Y11223810D01*
X51547619Y10938096D01*
X51500000Y10842858D01*
X51452380Y10795239D01*
X51357142Y10747620D01*
X51214285Y10747620D01*
X51928571Y10795239D02*
X52071428Y10747620D01*
X52309523Y10747620D01*
X52404761Y10795239D01*
X52452380Y10842858D01*
X52500000Y10938096D01*
X52500000Y11033334D01*
X52452380Y11128572D01*
X52404761Y11176191D01*
X52309523Y11223810D01*
X52119047Y11271429D01*
X52023809Y11319048D01*
X51976190Y11366667D01*
X51928571Y11461905D01*
X51928571Y11557143D01*
X51976190Y11652381D01*
X52023809Y11700000D01*
X52119047Y11747620D01*
X52357142Y11747620D01*
X52500000Y11700000D01*
X52928571Y10747620D02*
X52928571Y11747620D01*
X53166666Y11747620D01*
X53309523Y11700000D01*
X53404761Y11604762D01*
X53452380Y11509524D01*
X53500000Y11319048D01*
X53500000Y11176191D01*
X53452380Y10985715D01*
X53404761Y10890477D01*
X53309523Y10795239D01*
X53166666Y10747620D01*
X52928571Y10747620D01*
X53928571Y11128572D02*
X54690476Y11128572D01*
X55642857Y10747620D02*
X55166666Y10747620D01*
X55166666Y11747620D01*
X56452380Y10747620D02*
X55976190Y10747620D01*
X55976190Y11747620D01*
X57357142Y10842858D02*
X57309523Y10795239D01*
X57166666Y10747620D01*
X57071428Y10747620D01*
X56928571Y10795239D01*
X56833333Y10890477D01*
X56785714Y10985715D01*
X56738095Y11176191D01*
X56738095Y11319048D01*
X56785714Y11509524D01*
X56833333Y11604762D01*
X56928571Y11700000D01*
X57071428Y11747620D01*
X57166666Y11747620D01*
X57309523Y11700000D01*
X57357142Y11652381D01*
X57785714Y10747620D02*
X57785714Y11747620D01*
X58357142Y10747620D01*
X58357142Y11747620D01*
X58690476Y11747620D02*
X59023809Y10747620D01*
X59357142Y11747620D01*
X20338095Y31647620D02*
X20338095Y30838096D01*
X20385714Y30742858D01*
X20433333Y30695239D01*
X20528571Y30647620D01*
X20719047Y30647620D01*
X20814285Y30695239D01*
X20861904Y30742858D01*
X20909523Y30838096D01*
X20909523Y31647620D01*
X21814285Y31314286D02*
X21814285Y30647620D01*
X21576190Y31695239D02*
X21338095Y30980953D01*
X21957142Y30980953D01*
X31047142Y122408334D02*
X31094761Y122360715D01*
X31142380Y122217858D01*
X31142380Y122122620D01*
X31094761Y121979762D01*
X30999523Y121884524D01*
X30904285Y121836905D01*
X30713809Y121789286D01*
X30570952Y121789286D01*
X30380476Y121836905D01*
X30285238Y121884524D01*
X30190000Y121979762D01*
X30142380Y122122620D01*
X30142380Y122217858D01*
X30190000Y122360715D01*
X30237619Y122408334D01*
X30475714Y123265477D02*
X31142380Y123265477D01*
X30094761Y123027381D02*
X30809047Y122789286D01*
X30809047Y123408334D01*
X85267666Y10157620D02*
X85267666Y9443334D01*
X85220047Y9300477D01*
X85124809Y9205239D01*
X84981952Y9157620D01*
X84886714Y9157620D01*
X86172428Y9824286D02*
X86172428Y9157620D01*
X85934333Y10205239D02*
X85696238Y9490953D01*
X86315285Y9490953D01*
X93559333Y16776620D02*
X93226000Y17252810D01*
X92987904Y16776620D02*
X92987904Y17776620D01*
X93368857Y17776620D01*
X93464095Y17729000D01*
X93511714Y17681381D01*
X93559333Y17586143D01*
X93559333Y17443286D01*
X93511714Y17348048D01*
X93464095Y17300429D01*
X93368857Y17252810D01*
X92987904Y17252810D01*
X94511714Y16776620D02*
X93940285Y16776620D01*
X94226000Y16776620D02*
X94226000Y17776620D01*
X94130761Y17633762D01*
X94035523Y17538524D01*
X93940285Y17490905D01*
X88987333Y28587620D02*
X88654000Y29063810D01*
X88415904Y28587620D02*
X88415904Y29587620D01*
X88796857Y29587620D01*
X88892095Y29540000D01*
X88939714Y29492381D01*
X88987333Y29397143D01*
X88987333Y29254286D01*
X88939714Y29159048D01*
X88892095Y29111429D01*
X88796857Y29063810D01*
X88415904Y29063810D01*
X89368285Y29492381D02*
X89415904Y29540000D01*
X89511142Y29587620D01*
X89749238Y29587620D01*
X89844476Y29540000D01*
X89892095Y29492381D01*
X89939714Y29397143D01*
X89939714Y29301905D01*
X89892095Y29159048D01*
X89320666Y28587620D01*
X89939714Y28587620D01*
X91273333Y22745620D02*
X90940000Y23221810D01*
X90701904Y22745620D02*
X90701904Y23745620D01*
X91082857Y23745620D01*
X91178095Y23698000D01*
X91225714Y23650381D01*
X91273333Y23555143D01*
X91273333Y23412286D01*
X91225714Y23317048D01*
X91178095Y23269429D01*
X91082857Y23221810D01*
X90701904Y23221810D01*
X91606666Y23745620D02*
X92225714Y23745620D01*
X91892380Y23364667D01*
X92035238Y23364667D01*
X92130476Y23317048D01*
X92178095Y23269429D01*
X92225714Y23174191D01*
X92225714Y22936096D01*
X92178095Y22840858D01*
X92130476Y22793239D01*
X92035238Y22745620D01*
X91749523Y22745620D01*
X91654285Y22793239D01*
X91606666Y22840858D01*
X41529095Y100369620D02*
X41529095Y99560096D01*
X41576714Y99464858D01*
X41624333Y99417239D01*
X41719571Y99369620D01*
X41910047Y99369620D01*
X42005285Y99417239D01*
X42052904Y99464858D01*
X42100523Y99560096D01*
X42100523Y100369620D01*
X43100523Y99369620D02*
X42529095Y99369620D01*
X42814809Y99369620D02*
X42814809Y100369620D01*
X42719571Y100226762D01*
X42624333Y100131524D01*
X42529095Y100083905D01*
X106346666Y51557620D02*
X106346666Y50843334D01*
X106299047Y50700477D01*
X106203809Y50605239D01*
X106060952Y50557620D01*
X105965714Y50557620D01*
X106775238Y51462381D02*
X106822857Y51510000D01*
X106918095Y51557620D01*
X107156190Y51557620D01*
X107251428Y51510000D01*
X107299047Y51462381D01*
X107346666Y51367143D01*
X107346666Y51271905D01*
X107299047Y51129048D01*
X106727619Y50557620D01*
X107346666Y50557620D01*
X70786666Y51557620D02*
X70786666Y50843334D01*
X70739047Y50700477D01*
X70643809Y50605239D01*
X70500952Y50557620D01*
X70405714Y50557620D01*
X71167619Y51557620D02*
X71786666Y51557620D01*
X71453333Y51176667D01*
X71596190Y51176667D01*
X71691428Y51129048D01*
X71739047Y51081429D01*
X71786666Y50986191D01*
X71786666Y50748096D01*
X71739047Y50652858D01*
X71691428Y50605239D01*
X71596190Y50557620D01*
X71310476Y50557620D01*
X71215238Y50605239D01*
X71167619Y50652858D01*
M02*
