M48
; DRILL file {KiCad (5.1.9)-1} date 03/03/26 22:45:48
; FORMAT={-:-/ absolute / metric / decimal}
; #@! TF.CreationDate,2026-03-03T22:45:48+09:00
; #@! TF.GenerationSoftware,Kicad,Pcbnew,(5.1.9)-1
FMAT,2
METRIC
T1C0.300
T2C0.800
T3C1.000
T4C3.200
T5C3.200
%
G90
G05
T1
X22.056Y33.064
X27.452Y102.21
X31.038Y130.951
X31.948Y131.162
X33.641Y79.906
X34.456Y130.96
X35.042Y129.844
X35.853Y82.963
X38.145Y129.758
X39.064Y131.544
X43.079Y83.82
X44.696Y128.715
X45.435Y126.058
X46.183Y130.821
X47.177Y130.309
X48.014Y65.93
X48.604Y128.661
X48.903Y80.891
X50.394Y126.035
X51.705Y65.967
X52.056Y121.67
X52.496Y130.934
X53.724Y65.932
X54.424Y65.93
X55.012Y121.121
X55.941Y131.236
X59.605Y121.121
X60.229Y118.819
X61.379Y66.805
X62.053Y118.381
X62.891Y92.869
X63.522Y94.791
X65.396Y119.242
X66.966Y131.373
X67.513Y92.037
X68.823Y51.866
X71.223Y91.492
X72.66Y98.951
X74.511Y131.363
X77.623Y75.623
X81.626Y132.698
X82.738Y93.186
T2
X7.825Y94.469
X7.825Y91.969
X8.525Y71.628
X8.525Y56.388
X11.065Y71.628
X11.065Y56.388
X11.381Y97.009
X11.381Y89.389
X13.605Y71.628
X13.605Y56.388
X13.732Y40.132
X13.732Y37.592
X13.732Y35.052
X13.732Y32.512
X13.732Y29.972
X13.732Y27.432
X13.732Y24.892
X13.732Y22.352
X13.732Y19.812
X13.732Y17.272
X13.732Y14.732
X13.732Y12.192
X13.921Y97.009
X13.921Y89.389
X16.145Y71.628
X16.145Y56.388
X16.272Y33.782
X16.272Y31.242
X16.272Y23.622
X16.272Y21.082
X16.461Y97.009
X16.461Y89.389
X18.685Y71.628
X18.685Y56.388
X19.001Y97.009
X19.001Y89.389
X21.225Y71.628
X21.225Y56.388
X21.541Y97.009
X21.541Y89.389
X23.765Y71.628
X23.765Y56.388
X24.081Y97.009
X24.081Y89.389
X26.305Y71.628
X26.305Y56.388
X26.621Y97.009
X26.621Y89.389
X26.94Y123.825
X26.94Y121.325
X28.845Y71.628
X28.845Y56.388
X28.972Y40.132
X28.972Y37.592
X28.972Y35.052
X28.972Y32.512
X28.972Y29.972
X28.972Y27.432
X28.972Y24.892
X28.972Y22.352
X28.972Y19.812
X28.972Y17.272
X28.972Y14.732
X28.972Y12.192
X31.385Y71.628
X31.385Y56.388
X33.925Y71.628
X33.925Y56.388
X36.465Y71.628
X36.465Y56.388
X36.83Y94.234
X36.83Y91.734
X39.005Y71.628
X39.005Y56.388
X40.132Y97.028
X40.132Y89.408
X41.545Y71.628
X41.545Y56.388
X42.672Y97.028
X42.672Y89.408
X44.085Y71.628
X44.085Y56.388
X45.212Y97.028
X45.212Y89.408
X46.625Y71.628
X46.625Y56.388
X47.752Y97.028
X47.752Y89.408
X49.165Y71.628
X49.165Y56.388
X50.292Y97.028
X50.292Y89.408
X51.705Y71.628
X51.705Y56.388
X52.832Y97.028
X52.832Y89.408
X54.245Y71.628
X54.245Y56.388
X55.372Y97.028
X55.372Y89.408
X56.785Y71.628
X56.785Y56.388
X59.96Y65.278
X59.96Y62.778
X85.344Y26.67
X87.63Y20.828
X89.916Y14.859
X92.964Y26.67
X95.25Y20.828
X97.536Y14.859
T3
X41.164Y30.226
X41.164Y4.826
X41.164Y2.286
X43.704Y30.226
X44.974Y38.481
X46.244Y30.226
X47.514Y38.481
X48.784Y30.226
X50.054Y38.481
X51.324Y30.226
X52.594Y38.481
X53.864Y30.226
X55.134Y38.481
X56.404Y30.226
X57.674Y38.481
X58.944Y30.226
X61.484Y30.226
X61.484Y4.826
X61.484Y2.286
X69.85Y88.9
X69.85Y86.36
X69.85Y83.82
X69.85Y81.28
X69.85Y78.74
X69.85Y76.2
X69.85Y73.66
X69.85Y71.12
X69.85Y68.58
X69.85Y66.04
X69.85Y63.5
X69.85Y60.96
X69.85Y58.42
X69.85Y55.88
X69.85Y53.34
X72.39Y88.9
X72.39Y86.36
X72.39Y83.82
X72.39Y81.28
X72.39Y78.74
X72.39Y76.2
X72.39Y73.66
X72.39Y71.12
X72.39Y68.58
X72.39Y66.04
X72.39Y63.5
X72.39Y60.96
X72.39Y58.42
X72.39Y55.88
X72.39Y53.34
X80.756Y7.0
X80.756Y3.04
X81.901Y5.02
X83.046Y7.0
X83.046Y3.04
X84.191Y5.02
X85.336Y7.0
X85.336Y3.04
X86.481Y5.02
X87.626Y7.0
X87.626Y3.04
X88.771Y5.02
X89.916Y7.0
X89.916Y3.04
X91.061Y5.02
X105.41Y88.9
X105.41Y86.36
X105.41Y83.82
X105.41Y81.28
X105.41Y78.74
X105.41Y76.2
X105.41Y73.66
X105.41Y71.12
X105.41Y68.58
X105.41Y66.04
X105.41Y63.5
X105.41Y60.96
X105.41Y58.42
X105.41Y55.88
X105.41Y53.34
X107.95Y88.9
X107.95Y86.36
X107.95Y83.82
X107.95Y81.28
X107.95Y78.74
X107.95Y76.2
X107.95Y73.66
X107.95Y71.12
X107.95Y68.58
X107.95Y66.04
X107.95Y63.5
X107.95Y60.96
X107.95Y58.42
X107.95Y55.88
X107.95Y53.34
T4
X73.101Y4.95
X98.101Y4.95
T5
X4.0Y127.0
X4.0Y5.0
X111.0Y127.0
X111.0Y5.0
T0
M30
